<?xml version="1.0" encoding="UTF-8" standalone="no"?>
<svg
   fill="current"
   stroke="current"
   xmlnsdc="http://purl.org/dc/elements/1.1/"
   xmlnscc="http://creativecommons.org/ns#"
   xmlnsrdf="http://www.w3.org/1999/02/22-rdf-syntax-ns#"
   xmlnssvg="http://www.w3.org/2000/svg"
   xmlns="http://www.w3.org/2000/svg"
   xmlnssodipodi="http://sodipodi.sourceforge.net/DTD/sodipodi-0.dtd"
   xmlnsinkscape="http://www.inkscape.org/namespaces/inkscape"
   inkscapeversion="1.0beta2 (2b71d25, 2019-12-03)"
   sodipodidocname="gmail.svg"
   viewbox="0 0 81.599998 101.44"
   height="101.44"
   width="81.599998"
   id="svg833"
   version="1.1"
   >
  <metadata
     id="metadata839">
    <rdfRDF>
      <ccWork
         rdfabout="">
        <dcFormat>image/svg+xml</dcFormat>
        <dcType
           rdfresource="http://purl.org/dc/dcmitype/StillImage" />
        <dcTitle></dcTitle>
      </ccWork>
    </rdfRDF>
  </metadata>
  <defs
     id="defs837" />
  <sodipodiNamedview
     inkscapecurrent-layer="g841"
     inkscapewindow-maximized="0"
     inkscapewindow-y="23"
     inkscapewindow-x="0"
     inkscapecy="50.720001"
     inkscapecx="40.799999"
     inkscapezoom="6.2007096"
     showgrid="false"
     id="namedview835"
     inkscapewindow-height="480"
     inkscapewindow-width="740"
     inkscapepageshadow="2"
     inkscapepageopacity="0"
     guidetolerance="10"
     gridtolerance="10"
     objecttolerance="10"
     borderopacity="1"
     inkscapedocument-rotation="0"
     bordercolor="#ff00ff"
     pagecolor="#ffffff" />
  <g
     id="g841"
     inkscapelabel="Image"
     inkscapegroupmode="layer">
    <path
       inkscapeconnector-curvature="0"
       id="path845"
       d="m 32.213311,100.59873 c -0.02932,-0.0227 -1.781312,-0.12897 -3.893312,-0.23615 C 21.831,100.03327 14.675845,98.945213 14.22737,98.219565 14.125542,98.054803 13.690727,97.92 13.261114,97.92 12.831501,97.92 12.48,97.764 12.48,97.573334 12.48,97.382666 12.3,97.290378 12.08,97.368243 11.54912,97.556147 8.2999576,95.90183 7.6363349,95.105747 7.3483192,94.760243 6.9829806,94.424106 6.8244712,94.358778 6.332789,94.156138 4.922246,91.459738 4.1676559,89.28 3.34079,86.891485 2.6897388,82.691072 2.1269683,76.114019 2.0570363,75.296726 1.9012116,74.468486 1.7806913,74.273478 1.660171,74.078474 1.4970877,72.803165 1.4182841,71.439462 1.3394804,70.075757 1.1467205,68.096 0.98992868,67.04 0.6633235,64.840298 0.73492488,56.303066 1.0847258,55.737075 1.2129005,55.529683 1.2012724,55.359766 1.0588854,55.359482 0.72531313,55.358842 0.73541726,35.29897 1.0695232,34.24 1.2703049,33.60361 1.2469017,33.538166 0.95508903,33.92 0.22566611,34.874442 1.1232121,26.529569 2.0220502,24 c 0.2814234,-0.792 0.8304609,-2.621127 1.2200834,-4.064727 0.3896227,-1.4436 0.7915337,-2.574511 0.8931356,-2.513135 0.1016016,0.06137 0.2016263,-0.502909 0.2222765,-1.253966 0.022608,-0.822224 0.3849936,-2.003933 0.910784,-2.969984 C 6.2407191,11.411589 8.473489,8.5801558 8.7175175,8.8241846 8.8040384,8.9107053 9.2992477,8.4981075 9.8179827,7.9073011 10.758524,6.8360842 14.044431,4.48 14.59786,4.48 14.75825,4.48 15.45865,4.1749418 16.154305,3.8020928 18.520014,2.5341488 22.363164,1.7087143 27.199999,1.4296907 40.528655,0.6607977 52.986252,0.59921802 55.39596,1.290314 55.989858,1.4606413 57.053675,1.6 57.759999,1.6 c 0.706323,0 1.787273,0.1447465 2.402112,0.321659 0.614838,0.1769124 1.981887,0.4028088 3.037887,0.501992 2.890544,0.27149 3.958928,0.4854702 6.633127,1.3285077 2.892409,0.9118291 8.334803,7.2227163 7.708412,8.9385163 -0.07443,0.203871 0.01629,0.464369 0.201568,0.578885 0.185293,0.114516 0.336893,0.825986 0.336893,1.581044 0,3.243456 0.412608,6.269396 0.854877,6.269396 0.775267,0 1.154128,1.660348 1.270048,5.56594 0.06213,2.093266 0.245085,3.965266 0.406566,4.16 0.177546,0.214105 0.180339,2.441164 0.0071,5.63406 -0.157597,2.904 -0.359789,8.52 -0.449315,12.48 -0.08953,3.96 -0.235325,8.928 -0.323994,11.04 -0.08867,2.112 -0.23888,5.712 -0.333798,8 -0.293882,7.083933 -1.82905,19.972419 -2.422643,20.33928 -0.220778,0.136448 -0.450122,0.567248 -0.509651,0.957334 -0.05953,0.390087 -0.502195,1.185159 -0.983696,1.766829 -0.481501,0.581671 -1.429847,1.791258 -2.107434,2.687971 -1.953872,2.585732 -6.279907,4.865911 -11.591596,6.109732 -0.984237,0.230474 -6.324682,0.424614 -14.216426,0.516814 -6.951999,0.0812 -13.264009,0.1734 -14.026687,0.20485 -0.762675,0.0315 -1.410675,0.0386 -1.44,0.0159 z m 18.026688,-3.455751 c 4.381795,0.04485 8.120931,-0.06224 8.96,-0.256614 5.865369,-1.35873 10.050345,-3.423802 11.835423,-5.840173 0.672455,-0.910266 1.649056,-2.081443 2.170231,-2.602614 1.535395,-1.535396 1.887529,-2.578314 1.966521,-5.82426 0.0399,-1.639372 0.131063,-3.284576 0.202592,-3.656 C 75.848667,76.502544 76.188104,72.785814 76.31756,68.64 76.4,66 76.541291,63.12 76.631553,62.24 76.721813,61.36 76.881646,56.752 76.986734,52 77.091825,47.248 77.243301,42.856 77.323349,42.24 77.692324,39.400643 77.436597,28.506558 76.947025,26.208335 76.250299,22.937669 75.85771,20.224007 75.701643,17.6 75.426011,12.965706 74.875093,11.564325 72.327253,9.0164864 71.358606,8.0478384 68.554261,6.997169 65.759998,6.556015 c -0.704,-0.1111465 -1.568,-0.250928 -1.92,-0.3106252 -0.352,-0.059697 -1.36,-0.2087908 -2.24,-0.3313188 -0.879999,-0.122528 -1.711427,-0.289936 -1.847619,-0.3720182 -0.34327,-0.2068912 -4.22326,-0.4951683 -6.119043,-0.4546355 -0.861664,0.018422 -1.725664,-0.091542 -1.92,-0.2443671 -0.369699,-0.2907302 -15.21015,-0.281783 -20.201888,0.01218 -1.61567,0.095146 -3.21065,0.3672294 -3.619489,0.617438 -0.652035,0.3990439 -0.780649,0.3802794 -1.191449,-0.1738294 -0.253281,-0.3416387 -0.460511,-0.459848 -0.460511,-0.262687 0,0.1971606 -0.828,0.5182784 -1.84,0.7135948 C 22.955875,6.0284627 20.274432,6.6344701 17.92,7.2142298 17.832,7.2359002 17.328,7.4320397 16.8,7.6500979 16.272,7.8681562 15.441003,8.1266893 14.953341,8.2246157 14.465678,8.3225421 13.98918,8.5280643 13.894455,8.6813318 13.799731,8.8345994 13.499084,8.96 13.226351,8.96 c -0.588371,0 -4.5863512,2.873125 -4.5863512,3.295954 0,0.160885 -0.2476109,0.197502 -0.5502461,0.08137 -0.3026355,-0.116133 -0.4586153,-0.119519 -0.346622,-0.0075 0.1119932,0.111994 -0.1209376,0.875604 -0.5176244,1.696913 -0.3966867,0.821309 -0.8887068,2.105289 -1.0933782,2.853289 -0.204671,0.748 -0.5431852,1.948142 -0.7522534,2.666982 -0.2837046,0.975463 -0.2884819,1.453725 -0.018832,1.885501 0.1987098,0.318185 0.2683206,0.671487 0.1546909,0.785117 -0.1136298,0.11363 -0.2527366,0.597155 -0.3091264,1.0745 -0.1761728,1.49132 -0.7882845,4.37304 -1.0000144,4.7079 -0.2317779,0.366566 -0.2640105,0.707952 -0.3776656,4 -0.045572,1.32 -0.21079,2.652 -0.3671513,2.96 -0.1773594,0.349363 -0.1640375,0.56 0.035418,0.56 0.198232,0 0.3345299,1.975824 0.3587113,5.2 0.084497,11.266285 0.00266,14.32 -0.3838031,14.32 C 3.3224458,55.040027 3.2,55.192526 3.2,55.378913 c 0,0.186388 0.1501991,0.246058 0.333776,0.132599 0.2286995,-0.141344 0.2882838,1.43936 0.1892704,5.021117 -0.079478,2.875068 -0.00352,6.739398 0.1687888,8.587398 0.4939901,5.29791 0.7712128,7.639421 1.2123638,10.24 0.1642071,0.968 0.3670464,2.696 0.4507536,3.84 0.083707,1.144 0.2498093,2.656 0.3691155,3.36 0.2535034,1.495869 1.6286691,5.225299 2.1829017,5.92 0.4054669,0.50823 3.2413912,1.972998 4.8530302,2.506608 2.854097,0.944989 9.429027,1.919405 14.719999,2.18153 1.76,0.08719 3.30545,0.184032 3.434333,0.2152 0.128883,0.03117 2.792883,-0.02749 5.92,-0.13033 3.127117,-0.102845 9.069667,-0.152358 13.205667,-0.110029 z m 8.32,-13.230589 c -0.264,-0.082 -1.098336,-0.74384 -1.854077,-1.470745 C 55.202629,80.995715 54.334863,78.776762 54.41668,76.587862 54.441928,75.912538 54.287061,74.496 54.072543,73.44 53.799199,72.094426 53.75109,70.036064 53.911746,66.56 c 0.12608,-2.728 0.276086,-7.264 0.333344,-10.08 0.05726,-2.816 0.185625,-5.624 0.285261,-6.24 0.286281,-1.769994 0.37414,-7.921526 0.116819,-8.179187 -0.258554,-0.258896 -2.481526,1.143152 -2.484986,1.567302 -0.0013,0.147463 -2.179769,2.415463 -4.84126,5.04 -5.137549,5.066211 -5.540291,5.300941 -7.252183,4.226775 C 39.119138,52.29904 29.625635,42.825114 27.540753,40.392733 L 26.244131,38.88 l -0.03745,2.56 c -0.0206,1.408 -0.08987,4.072 -0.153934,5.92 -0.06407,1.848 -0.173549,8.688 -0.243296,15.2 -0.103166,9.632086 -0.226577,12.257712 -0.661794,14.08 -0.997848,4.178064 -1.470859,5.510003 -2.258636,6.360029 -0.70906,0.765088 -0.993731,0.84367 -2.906007,0.802205 -1.526705,-0.0331 -2.537331,-0.257748 -3.611479,-0.802762 C 15.55119,82.583235 14.75289,82.242077 14.597534,82.241341 14.122289,82.239101 13.112319,80.889872 12.935468,80.020989 12.843561,79.569446 12.627655,78.696 12.455677,78.08 c -0.575849,-2.062608 -0.777571,-4.935779 -0.550439,-7.84 0.123881,-1.584 0.299873,-5.904 0.391093,-9.6 0.274931,-11.139565 0.486966,-17.227085 0.63532,-18.24 0.07733,-0.528 0.23076,-2.472 0.340951,-4.32 0.110191,-1.848 0.329573,-4.008 0.487517,-4.8 0.157943,-0.792 0.452536,-2.693894 0.654651,-4.226431 0.48751,-3.696543 1.480405,-5.322461 3.969264,-6.49988 1.613971,-0.763531 2.052957,-0.829603 4.67681,-0.703908 1.592608,0.07629 3.06024,0.303303 3.261403,0.504467 0.201164,0.201164 0.505781,0.365752 0.676927,0.365752 0.348159,0 3.494825,2.62704 5.532144,4.61859 0.732224,0.715775 2.33776,2.59741 3.567862,4.18141 2.189395,2.81929 3.85608,4.64 4.247472,4.64 0.221145,0 2.835421,-2.271504 4.119382,-3.579267 0.463994,-0.472595 1.048298,-1.264596 1.298451,-1.76 1.186627,-2.349991 4.104999,-5.834261 5.824669,-6.954126 0.66576,-0.433548 1.377171,-0.542094 3.04,-0.463835 2.273616,0.107004 2.578845,0.21241 4.852489,1.675733 2.493597,1.604885 3.697971,3.161884 4.627015,5.981743 0.468236,1.421211 0.852227,2.754059 0.853312,2.961886 9.6e-4,0.207828 0.224822,0.805239 0.497193,1.327584 0.295402,0.566512 0.413229,1.276397 0.292016,1.759344 -0.11176,0.445293 -0.08797,0.694394 0.05287,0.553556 0.355959,-0.355959 1.010212,2.619017 1.272388,5.785699 0.208016,2.51248 0.188083,2.636902 -0.388586,2.425741 -0.594717,-0.21777 -0.594634,-0.20753 0.0039,0.474076 0.565974,0.644512 0.608723,1.229396 0.571155,7.81426 -0.02234,3.914684 -0.19088,8.989606 -0.37455,11.277606 -0.183667,2.288 -0.298448,4.376 -0.255066,4.64 0.14817,0.901658 -0.438115,6.228419 -0.72335,6.572106 -0.156503,0.188576 -0.381799,1.558995 -0.500656,3.045379 -0.118858,1.486384 -0.345642,2.954515 -0.503959,3.262515 -0.376227,0.731923 -1.123952,0.713661 -1.593948,-0.03892 -0.365008,-0.58447 -0.399095,-0.584144 -1.412138,0.01357 -1.286384,0.758986 -2.705664,1.174557 -3.339251,0.977747 z M 18.381433,80.990042 c 0.09856,-0.159479 0.450271,-0.219072 0.781575,-0.132436 0.929177,0.242986 2.160567,-1.635296 2.555247,-3.897606 0.184228,-1.056 0.411055,-2.352 0.504061,-2.88 0.400026,-2.270979 0.9925,-31.980368 0.724305,-36.32 -0.115257,-1.864947 -0.177226,-1.961802 -3.666717,-5.730915 -1.906523,-2.059298 -1.905601,-2.06169 -2.639516,6.850915 -0.173914,2.112 -0.458575,5.424 -0.632579,7.36 -0.174004,1.936 -0.396285,7.048 -0.493957,11.36 -0.09767,4.312 -0.315064,9.064 -0.483093,10.56 -0.349323,3.11009 -0.39925,7.901798 -0.101132,9.706102 0.322344,1.950932 2.794186,4.187991 3.451806,3.12394 z m 41.98078,-1.492826 c 0.818077,-0.867414 1.078838,-1.426451 1.082153,-2.32 C 61.451022,75.380397 61.76229,74.56 62.43732,74.56 c 0.331472,0 0.574912,-0.108 0.540976,-0.24 -0.03394,-0.132 0.03885,-1.32 0.161747,-2.64 0.122903,-1.32 0.308663,-3.545734 0.412803,-4.946077 0.104144,-1.400342 0.24928,-2.840342 0.322528,-3.2 0.34432,-1.690646 0.474292,-19.485398 0.163712,-22.413923 -0.329305,-3.105072 -1.138889,-6.24 -1.611462,-6.24 -0.127718,0 -1.175837,0.982842 -2.329149,2.184096 -2.317968,2.414314 -2.172409,1.86056 -1.739065,6.615904 0.06415,0.704 -0.01011,3.296 -0.165059,5.76 -0.154935,2.464 -0.346685,6.928 -0.426112,9.92 -0.07943,2.992 -0.312717,6.809936 -0.518426,8.484301 -0.388723,3.164061 -0.313606,5.259891 0.358262,9.995699 0.34808,2.45352 0.476378,2.8 1.036794,2.8 0.35176,0 1.124563,-0.514253 1.717344,-1.142784 z M 41.347381,49.415296 c 0.226941,-0.277587 1.117655,-1.177587 1.979364,-2 4.330819,-4.133315 4.936815,-4.802576 6.912271,-7.633869 0.894192,-1.281587 1.911284,-1.937158 4.000983,-2.578854 l 0.96,-0.294794 0.09564,-3.813891 c 0.0526,-2.097638 0.01008,-4.281888 -0.0945,-4.853888 -0.1968,-1.076415 -0.914077,-1.401168 -1.236864,-0.56 -0.101306,0.264 -0.36871,0.4823 -0.594237,0.485111 -0.225523,0.0028 -0.842531,0.398812 -1.371129,0.88 -1.052762,0.958341 -4.318912,5.133596 -4.318912,5.521046 0,0.132976 -1.377837,1.488573 -3.061859,3.012435 -2.47393,2.23865 -3.195914,2.730925 -3.76,2.563722 C 40.47416,40.028499 40.000122,39.733917 39.80472,39.487686 39.609315,39.241459 39.285315,39.04 39.08472,39.04 c -0.200598,0 -0.364723,-0.135846 -0.364723,-0.301885 0,-0.166035 -0.797424,-1.056051 -1.772051,-1.977814 -1.036339,-0.980125 -1.702141,-1.858112 -1.603664,-2.114736 0.09261,-0.241344 0.04449,-0.362234 -0.106934,-0.268647 -0.151428,0.09358 -0.799277,-0.618979 -1.439671,-1.583478 -0.64039,-0.964501 -1.774848,-2.315897 -2.521014,-3.003102 -2.895865,-2.667042 -3.92543,-3.547338 -4.150569,-3.548809 -0.341882,-0.0022 -0.687549,2.052821 -1.069417,6.357885 -0.131951,1.487568 -0.04138,1.86512 0.671687,2.8 0.453312,0.594324 1.032875,1.080586 1.287918,1.080586 0.255044,0 0.463715,0.133715 0.463715,0.297142 0,0.163431 0.18522,0.487431 0.4116,0.72 0.226379,0.232573 0.83756,0.998858 1.358179,1.702858 0.520619,0.704 1.091399,1.382019 1.268401,1.50671 0.844953,0.595242 4.32182,4.276231 4.32182,4.575549 0,0.186864 0.432,0.594941 0.96,0.906839 0.528,0.311897 0.96,0.667008 0.96,0.789136 0,0.378566 2.466179,2.941766 2.830416,2.941766 0.189392,0 0.530029,-0.227117 0.756966,-0.504704 z M 58.882184,35.218838 c 0.0013,-0.09836 0.521251,-0.532396 1.155661,-0.964521 2.55247,-1.738605 2.505414,-2.396354 -0.38752,-5.416689 L 57.928523,27.04 l -0.02894,1.44 c -0.0159,0.792 -0.0965,2.448 -0.179082,3.68 -0.08258,1.232 -0.05854,2.742182 0.05343,3.355958 0.191799,1.051437 0.229658,1.080279 0.654816,0.498839 0.248189,-0.339415 0.452234,-0.697597 0.453437,-0.795959 z M 23.547354,32.373334 C 23.562399,32.256 23.697476,31.224 23.847525,30.08 c 0.501097,-3.820461 0.382239,-4.48 -0.807359,-4.48 -1.114992,0 -4.148776,1.573772 -4.155556,2.155691 -0.0044,0.380547 3.291332,4.48989 3.967509,4.946911 0.329046,0.222396 0.6436,0.07342 0.695235,-0.329268 z M 2.0799999,53.76 c 0.108774,-0.176 0.053771,-0.32 -0.1222291,-0.32 -0.176,0 -0.4089969,0.144 -0.5177708,0.32 -0.108774,0.176 -0.053771,0.32 0.1222291,0.32 0.176,0 0.4089969,-0.144 0.5177708,-0.32 z"
       style="fill:current;stroke-width:0.32" />
  </g>
</svg>
