<?xml version="1.0" encoding="UTF-8" standalone="no"?>
<svg
   fill="current"
   stroke="current"
   xmlnsdc="http://purl.org/dc/elements/1.1/"
   xmlnscc="http://creativecommons.org/ns#"
   xmlnsrdf="http://www.w3.org/1999/02/22-rdf-syntax-ns#"
   xmlnssvg="http://www.w3.org/2000/svg"
   xmlns="http://www.w3.org/2000/svg"
   xmlnssodipodi="http://sodipodi.sourceforge.net/DTD/sodipodi-0.dtd"
   xmlnsinkscape="http://www.inkscape.org/namespaces/inkscape"
   inkscapeversion="1.0beta2 (2b71d25, 2019-12-03)"
   sodipodidocname="J.svg"
   viewBox="0 0 19.216256 41.558368"
   height="41.558369"
   width="19.216255"
   id="svg923"
   version="1.1">
  <metadata
     id="metadata929">
    <rdfRDF>
      <ccWork
         rdfabout="">
        <dcformat>image/svg+xml</dcformat>
        <dctype
           rdfresource="http://purl.org/dc/dcmitype/StillImage" />
        <dctitle></dctitle>
      </ccWork>
    </rdfRDF>
  </metadata>
  <defs
     id="defs927" />
  <sodipodinamedview
     inkscapecurrent-layer="g931"
     inkscapewindow-maximized="0"
     inkscapewindow-y="23"
     inkscapewindow-x="0"
     inkscapecy="21.41918"
     inkscapecx="-22.957741"
     inkscapezoom="6.7307695"
     showgrid="false"
     id="namedview925"
     inkscapewindow-height="480"
     inkscapewindow-width="1187"
     inkscapepageshadow="2"
     inkscapepageopacity="0"
     guidetolerance="10"
     gridtolerance="10"
     objecttolerance="10"
     borderopacity="1"
     inkscapedocument-rotation="0"
     bordercolor="#666666"
     pagecolor="#ffffff" />
  <g
     transform="translate(-0.99202839,-2.3522474)"
     id="g931"
     inkscapelabel="Image"
     inkscapegroupmode="layer">
    <path
       inkscapeconnector-curvature="0"
       id="path1496"
       d="m 9.5771426,43.757082 c -0.571999,-0.07098 -1.039999,-0.254233 -1.039999,-0.407222 0,-0.152989 -0.252,-0.358999 -0.56,-0.457799 -0.742565,-0.238198 -2.320001,-1.6127 -2.320001,-2.021539 0,-0.177974 -0.213012,-0.500371 -0.47336,-0.716441 -0.260348,-0.216071 -0.671769,-0.773703 -0.914269,-1.239181 -1.759083,-3.376579 -2.158338,-4.34816 -2.763742,-6.725517 -0.8198919,-3.219629 -0.6684049,-4.520812 0.526323,-4.520812 0.442256,0 1.170234,0.288 1.617729,0.64 0.447496,0.352 1.005143,0.64 1.239215,0.64 0.576992,0 0.893745,0.661866 2.16683,4.527664 1.858704,5.64407 2.370846,6.498274 3.7753224,6.296898 0.530131,-0.07601 1.023547,-0.67255 1.806919,-2.184563 1.052269,-2.03102 1.072525,-2.144051 0.860191,-4.799999 -0.119599,-1.496 -0.42426,-3.8 -0.677025,-5.12 -0.252764,-1.32 -0.536955,-3.241924 -0.631536,-4.270942 -0.09458,-1.029018 -0.307107,-2.226392 -0.472281,-2.660832 -0.165173,-0.434439 -0.305374,-1.320515 -0.311557,-1.969058 -0.0062,-0.648542 -0.228181,-2.115168 -0.493329,-3.259168 -0.265148,-1.144 -0.564945,-3.304 -0.666214,-4.799999 C 10.145089,9.2125717 10.018512,7.939996 9.9650765,7.880627 9.9116365,7.821257 8.5244956,7.734169 6.8825316,7.687097 4.4700166,7.617937 3.6695946,7.465324 2.7113316,6.891805 1.4599216,6.142837 1.2200297,5.684998 1.2925007,4.1839377 1.3324206,3.3570478 1.5062796,3.2132798 2.9371426,2.8239206 4.6688446,2.352699 11.885163,2.1926214 15.848467,2.5375124 c 2.656703,0.2311892 4.003491,1.1028868 3.670622,2.3757806 -0.124792,0.477206 -0.02787,0.675278 0.330421,0.675278 0.385407,0 0.445569,0.166093 0.250838,0.692499 -0.302297,0.817186 -2.387746,1.535366 -4.479524,1.542643 l -1.39632,0.0049 0.199926,1.0400007 c 0.109959,0.572 0.329969,2.0480003 0.488911,3.2799993 0.419969,3.255302 1.609183,10.709277 2.471107,15.488869 0.266693,1.478878 0.533937,3.278878 0.593875,4 0.05994,0.721121 0.212432,2.208487 0.338873,3.305258 0.264645,2.295572 -0.254279,5.272407 -1.18623,6.804877 -1.110014,1.825274 -3.632045,2.496198 -7.5538234,2.009507 z"
       style="stroke-width:0.32" />
  </g>
</svg>
