<?xml version="1.0" encoding="UTF-8" standalone="no"?>
<svg
   xmlnsdc="http://purl.org/dc/elements/1.1/"
   xmlnscc="http://creativecommons.org/ns#"
   xmlnsrdf="http://www.w3.org/1999/02/22-rdf-syntax-ns#"
   xmlnssvg="http://www.w3.org/2000/svg"
   xmlns="http://www.w3.org/2000/svg"
   xmlnssodipodi="http://sodipodi.sourceforge.net/DTD/sodipodi-0.dtd"
   xmlnsinkscape="http://www.inkscape.org/namespaces/inkscape"
   inkscapeversion="1.0beta2 (2b71d25, 2019-12-03)"
   sodipodidocname="kakaotalk.svg"
   viewbox="0 0 83.839996 106.56"
   height="106.56"
   width="83.839996"
   id="svg833"
   version="1.1"
   fill="current"
   stroke="current">
  <metadata
     id="metadata839">
    <rdfRDF>
      <ccWork
         rdfabout="">
        <dcFormat>image/svg+xml</dcFormat>
        <dcType
           rdfresource="http://purl.org/dc/dcmitype/StillImage" />
        <dcTitle></dcTitle>
      </ccWork>
    </rdfRDF>
  </metadata>
  <defs
     id="defs837" />
  <sodipodiNamedview
     inkscapecurrent-layer="g841"
     inkscapewindow-maximized="0"
     inkscapewindow-y="23"
     inkscapewindow-x="0"
     inkscapecy="53.279999"
     inkscapecx="41.919998"
     inkscapezoom="5.9027779"
     showgrid="false"
     id="namedview835"
     inkscapewindow-height="480"
     inkscapewindow-width="740"
     inkscapepageshadow="2"
     inkscapepageopacity="0"
     guidetolerance="10"
     gridtolerance="10"
     objecttolerance="10"
     borderopacity="1"
     inkscapedocument-rotation="0"
     bordercolor="#666666"
     pagecolor="#ffffff" />
  <g
     id="g841"
     inkscapelabel="Image"
     inkscapegroupmode="layer">
    <path
       inkscapeconnector-curvature="0"
       id="path845"
       d="m 45.971211,105.70459 c -0.03046,-0.0305 -1.278436,-0.1432 -2.77329,-0.2505 -4.212387,-0.30236 -5.233056,-0.47221 -7.080889,-1.17834 -2.332922,-0.8915 -3.622995,-1.13085 -8.283512,-1.53683 -5.611109,-0.4888 -11.052726,-1.34323 -11.979984,-1.88108 -0.168555,-0.0978 -0.62614,-0.21185 -1.016856,-0.2535 C 13.599035,100.47238 7.2158681,96.684352 5.8551524,95.274333 3.0786883,92.39727 1.840082,88.506774 2.0110824,83.2 2.0592881,81.704 1.9840408,79.832 1.8438663,79.04 1.0746632,74.693926 0.52248593,57.286797 1.1230035,56.315139 1.3429332,55.959286 1.3376926,40.481475 1.1171002,38.88 0.93017736,37.522963 0.89188213,23.409102 1.0743219,23.113908 1.1572391,22.979746 1.3799224,21.756703 1.5691738,20.396036 1.7584251,19.03537 2.0468957,17.669625 2.2102196,17.361048 2.3735434,17.052472 3.0088196,15.72 3.6219445,14.4 4.2350692,13.08 5.2189556,11.477079 5.8083581,10.837954 6.7356246,9.8324621 11.388236,6.72 11.964012,6.72 c 0.111629,0 0.813393,-0.2738886 1.559475,-0.6086416 0.746082,-0.3347526 2.220512,-0.997528 3.276512,-1.4728339 3.042913,-1.3696157 3.831505,-1.5824504 9.44,-2.5477826 8.170675,-1.40633352 28.459938,-1.32387624 36.799998,0.1495583 0.968,0.1710161 2.487085,0.3846179 3.375747,0.4746707 2.872729,0.2911095 5.695654,1.4669398 7.694611,3.2050291 2.062601,1.7934291 5.504412,6.27982 5.764153,7.513556 0.09338,0.443544 0.31104,1.15308 0.483693,1.576746 0.172653,0.423667 0.306106,3.087667 0.296563,5.92 -0.01792,5.318729 0.260704,8.158483 1.295904,13.208101 0.604086,2.946679 0.757238,8.554576 0.252141,9.232544 -0.13561,0.182023 -0.114154,0.902023 0.04768,1.6 0.467926,2.018163 0.358342,5.088176 -0.353706,9.909053 -0.504726,3.417226 -0.683536,6.432941 -0.753744,12.71239 -0.06596,5.899399 -0.202937,8.366007 -0.483353,8.703885 -0.215216,0.259322 -0.344829,0.946746 -0.288023,1.52761 0.08382,0.857085 -0.0019,1.038397 -0.454192,0.962086 -0.866368,-0.146128 -0.727216,1.307799 0.162525,1.698147 0.967562,0.424493 1.087575,1.801613 0.290311,3.331204 -0.758624,1.455449 -0.998589,2.772284 -0.487863,2.677196 0.520051,-0.09683 0.243959,3.150868 -0.522694,6.148452 -1.002711,3.920556 -2.211277,5.808195 -5.44384,8.50264 -3.614976,3.0132 -5.440864,3.64198 -11.515913,3.96571 -1.848,0.0985 -3.968246,0.26496 -4.711657,0.36995 -1.192045,0.16835 -11.57455,0.36801 -11.717129,0.22532 z m 8.108786,-4.38394 c 1.32,-0.0742 2.4,-0.15047 2.4,-0.1695 0,-0.019 1.584,-0.0976 3.52,-0.17466 3.928019,-0.15629 6.800477,-0.58118 7.905184,-1.169328 1.168365,-0.622036 2.632201,-1.691815 2.910716,-2.127162 0.140746,-0.22 0.439284,-0.4 0.663415,-0.4 0.686953,0 3.016736,-3.151981 3.720902,-5.034038 0.588829,-1.573789 0.682883,-2.688061 0.814755,-9.652567 0.08199,-4.330368 0.22497,-11.401395 0.317725,-15.713395 0.09275,-4.312 0.224048,-16.991907 0.29176,-28.177568 0.11728,-19.373448 0.244938,-22.895086 0.817098,-22.54147 0.138262,0.08545 0.33919,-0.07347 0.446515,-0.353142 C 78.341251,14.626837 74.83488,9.6538134 72.327869,7.9218973 71.030893,7.0259056 68.638061,6.4715066 63.679997,5.9182579 c -2.552,-0.2847667 -5.36,-0.6043689 -6.24,-0.7102275 -0.88,-0.1058582 -6.927999,-0.1868115 -13.439999,-0.179896 C 33.516747,5.0392672 31.701638,5.1173498 28.159999,5.7095402 23.429124,6.5005805 19.945319,7.369953 17.81347,8.2914842 16.962878,8.659168 16.110363,8.96 15.918992,8.96 c -0.191372,0 -1.295434,0.4110416 -2.453471,0.9134256 -1.158037,0.5023844 -2.552412,1.0579074 -3.098613,1.2344974 -1.5327279,0.495539 -3.7876558,2.330141 -4.9575707,4.033464 -0.921974,1.342336 -1.0698975,1.838224 -1.1454751,3.84 C 4.216131,20.245624 4.0738392,22.36 3.9476587,23.68 3.8214782,25 3.7541214,27.592 3.7979771,29.44 c 0.1369462,5.770675 0.2061433,27.009402 0.113641,34.88 -0.064064,5.450896 0.050257,8.576563 0.4154883,11.36 0.2771286,2.112 0.5773334,6.115734 0.6671218,8.89719 0.1884564,5.837975 0.5550743,7.077946 2.7114441,9.170634 2.5112597,2.437094 10.3848737,5.459149 11.8459237,4.546707 0.419297,-0.261856 1.042867,-0.282429 2.121145,-0.06998 0.839992,0.165501 3.687258,0.368 6.327258,0.449997 4.449599,0.138202 5.021919,0.228448 7.839999,1.236263 1.672,0.597949 3.76,1.126619 4.64,1.174819 0.88,0.0482 2.464,0.18366 3.52,0.30101 1.916118,0.21293 5.539772,0.18921 10.079999,-0.066 z M 15.244279,89.12 c -0.101307,-0.264 -0.476713,-0.48 -0.834236,-0.48 -1.158828,0 -0.855567,-0.983354 2.072414,-6.72 1.83554,-3.596278 3.358364,-7.486422 3.354135,-8.56833 -0.0022,-0.562355 -0.377565,-1.235088 -1.057804,-1.895801 C 17.294114,70.013814 13.945761,63.948323 13.161369,61.28 11.731579,56.416179 11.416342,48.290874 12.490957,44 c 0.772085,-3.082886 1.677076,-5.003808 4.020424,-8.533702 2.514838,-3.788217 4.99669,-5.925581 7.515518,-6.472342 0.454795,-0.09872 1.380985,-0.619826 2.0582,-1.158009 3.73933,-2.971646 8.587779,-4.208376 13.754899,-3.508565 1.584,0.21453 3.232013,0.523717 3.66225,0.687083 0.43024,0.163367 1.856588,0.433243 3.169663,0.599724 2.948378,0.373818 7.332979,2.401347 10.103757,4.672183 2.012211,1.649141 6.397148,6.086406 7.215398,7.3015 1.722083,2.55728 2.265366,3.546374 3.522025,6.412128 1.352887,3.0852 1.403053,3.3148 1.398339,6.4 -0.0073,4.802458 -0.821744,7.423731 -4.076255,13.12 -1.833405,3.208947 -3.371997,5.218314 -5.347619,6.983866 -0.950157,0.849126 -2.099037,1.882192 -2.553069,2.295696 -1.432211,1.30438 -5.795622,4.162268 -8.454489,5.537408 -2.302096,1.190624 -4.630915,1.877206 -8.277341,2.440329 -0.680537,0.105098 -1.328537,0.243991 -1.44,0.30865 -0.245062,0.142163 -5.646582,0.542883 -9.103765,0.675379 l -2.501107,0.09585 -4.673005,2.991411 C 19.914628,86.493866 17.44406,88.236 16.994629,88.72 c -0.914948,0.985325 -1.476496,1.113651 -1.75035,0.4 z m 8.360272,-8.882541 c 0.926503,-0.705273 1.762168,-1.591561 1.857033,-1.969533 0.155061,-0.617814 0.388916,-0.686896 2.315448,-0.683984 6.27064,0.0095 14.245372,-1.194435 17.314105,-2.613843 1.247027,-0.576797 5.848797,-3.278547 6.108861,-3.586576 0.088,-0.104233 0.784672,-0.594595 1.548159,-1.089693 0.763488,-0.4951 1.86257,-1.357753 2.4424,-1.917004 0.579834,-0.559255 1.583767,-1.520826 2.23096,-2.136826 1.548298,-1.473667 2.927399,-3.580602 5.128979,-7.835859 3.04736,-5.889987 3.541514,-10.12257 1.719043,-14.724141 -1.119529,-2.826714 -3.593955,-6.16695 -6.004326,-8.105264 -0.803459,-0.646106 -2.325817,-1.897939 -3.383024,-2.781853 -1.995945,-1.668782 -5.028438,-3.198731 -5.773481,-2.912831 -0.235962,0.09055 -2.129949,-0.204232 -4.208864,-0.655065 -2.471113,-0.535885 -4.887814,-0.834463 -6.979846,-0.862342 -3.08176,-0.04107 -3.292086,0.0017 -5.692211,1.157355 -1.370714,0.66 -2.608681,1.2 -2.751035,1.2 -0.142355,0 -0.595415,0.291921 -1.006801,0.648714 -0.411385,0.356793 -1.117419,0.737392 -1.568963,0.845779 -1.5176,0.364272 -3.689788,1.65239 -5.211833,3.09064 -1.530258,1.446013 -4.409156,5.369907 -4.409156,6.009616 0,0.315869 -0.497675,1.562035 -1.34006,3.355472 -0.907161,1.931347 -0.778768,11.190909 0.215912,15.571193 0.859864,3.786599 3.739015,8.934823 6.389181,11.424525 0.962851,0.904551 1.086101,2.533527 0.303709,4.014061 -0.279024,0.528 -0.795607,1.896 -1.147964,3.04 -0.352356,1.144 -0.771177,2.2168 -0.930713,2.384 -0.159536,0.1672 -0.290065,0.496266 -0.290065,0.731258 0,0.562723 0.872308,0.116652 3.124552,-1.597799 z M 30.308993,62.750627 C 29.611932,61.570595 29.62278,60.996902 30.412441,57.28 c 0.355219,-1.672 0.772421,-3.945203 0.927116,-5.051558 0.154695,-1.106359 0.454376,-2.220148 0.665958,-2.475088 0.211581,-0.254941 0.461143,-1.688909 0.554579,-3.186599 0.224503,-3.598486 0.934816,-4.307673 2.036487,-2.033251 1.77134,3.656966 2.203417,4.641693 2.203417,5.021715 0,0.23432 0.193328,0.808253 0.429616,1.275408 0.236288,0.467155 0.900461,1.857373 1.475939,3.089373 0.575482,1.232 1.175072,2.456 1.332423,2.72 0.157353,0.264 0.372595,0.696 0.47832,0.96 0.105721,0.264 0.405353,0.960205 0.665846,1.54712 0.55624,1.253267 0.316266,2.765165 -0.395542,2.492019 -0.256631,-0.09848 -0.466602,-0.01078 -0.466602,0.194903 0,0.276384 -0.09367,0.280291 -0.358995,0.01498 -0.197446,-0.197447 -0.52255,-0.296231 -0.722454,-0.219517 -0.199904,0.07671 -0.736672,-0.704944 -1.192816,-1.737008 -0.771898,-1.746483 -0.899197,-1.872602 -1.837543,-1.82048 -3.101904,0.172294 -2.845651,0.03043 -3.221676,1.78375 -0.190583,0.888663 -0.346516,2.112663 -0.346516,2.72 0,0.994608 -0.08847,1.10425 -0.891005,1.10425 -0.644129,0 -1.043119,-0.257507 -1.44,-0.929373 z M 35.05124,54.381811 C 35.316904,53.951955 34.959077,52.48 34.58891,52.48 c -0.153388,0 -0.337731,0.504 -0.409644,1.12 -0.128375,1.09961 0.388918,1.563414 0.871974,0.781811 z m -10.683018,8.296493 c -0.569362,-0.911696 -0.619527,-1.3084 -0.832276,-6.581715 -0.214677,-5.321075 -0.284572,-5.601834 -1.32931,-5.339623 -1.075929,0.270042 -2.366637,-0.11495 -2.366637,-0.70592 0,-0.273219 -0.216,-0.712761 -0.48,-0.976761 -0.812401,-0.8124 -0.562253,-1.352343 0.72,-1.554112 2.812876,-0.442627 4.96886,-1.017936 6.72856,-1.795469 1.908202,-0.843146 3.0789,-0.786218 3.712333,0.180522 0.881899,1.345948 0.278148,2.157075 -2.139812,2.874784 l -2.088808,0.620012 -0.106137,1.779988 c -0.05838,0.978995 0.01637,3.50799 0.166091,5.61999 0.376502,5.31089 0.359651,5.65753 -0.298412,6.138717 -0.804304,0.588121 -1.193194,0.528041 -1.685592,-0.260413 z M 44.222756,60.215485 C 43.2526,60.077949 43.036651,59.405286 42.595476,55.146666 42.39188,53.181334 42.07787,51.150426 41.897681,50.633536 41.717496,50.11665 41.612801,48.62865 41.665032,47.32687 c 0.08859,-2.207881 0.145433,-2.374016 0.846281,-2.473232 1.250355,-0.177004 2.189978,1.014407 2.437219,3.090314 0.285575,2.39775 1.474007,9.13953 1.641133,9.309862 0.07221,0.0736 0.474,-0.04959 0.892861,-0.27376 0.436803,-0.233769 1.155097,-0.321142 1.68439,-0.204889 0.733222,0.16104 1.006864,0.471949 1.33184,1.513209 0.224957,0.720788 0.319242,1.400772 0.20952,1.511076 -0.234611,0.235859 -5.413184,0.568054 -6.48552,0.416035 z m 8.868445,-0.491431 C 52.237386,59.077872 51.885674,57.52335 51.669431,53.44 c -0.296118,-5.591606 -0.293104,-5.55896 -0.550349,-5.962995 -0.278019,-0.436663 -0.414787,-3.247968 -0.169926,-3.492832 0.09517,-0.09517 0.565258,-0.202538 1.044646,-0.238602 0.69745,-0.05247 0.992963,0.157229 1.478906,1.049437 0.334009,0.613254 0.609494,1.621254 0.612189,2.24 0.0026,0.618746 0.141763,1.340992 0.30904,1.604992 0.251337,0.396669 0.470441,0.285562 1.262092,-0.64 0.526877,-0.616 0.963811,-1.231565 0.970963,-1.36792 0.0071,-0.136355 0.375588,-0.385773 0.818743,-0.554262 0.643485,-0.24465 0.933462,-0.178618 1.44,0.32792 0.348845,0.348844 0.634262,0.784092 0.634262,0.967219 0,0.413021 -1.092297,1.986275 -2.527933,3.641021 l -1.087929,1.253974 1.247929,1.106954 c 3.479968,3.086832 4.000579,3.688934 3.903818,4.514864 -0.06456,0.551065 -0.372733,0.915219 -0.943302,1.114656 -0.751924,0.262825 -1.061236,0.11023 -2.744826,-1.354112 C 56.32418,56.742643 55.373517,56 55.255172,56 c -0.118346,0 -0.215175,0.70344 -0.215175,1.563197 0,1.276739 -0.134483,1.651315 -0.733881,2.044054 -0.560247,0.367088 -0.847693,0.394723 -1.214915,0.116803 z"
       style="fill:current;stroke-width:0.32" />
  </g>
</svg>
