<?xml version="1.0" encoding="UTF-8" standalone="no"?>
<svg
   xmlnsdc="http://purl.org/dc/elements/1.1/"
   xmlnscc="http://creativecommons.org/ns#"
   xmlnsrdf="http://www.w3.org/1999/02/22-rdf-syntax-ns#"
   xmlnssvg="http://www.w3.org/2000/svg"
   xmlns="http://www.w3.org/2000/svg"
   xmlnssodipodi="http://sodipodi.sourceforge.net/DTD/sodipodi-0.dtd"
   xmlnsinkscape="http://www.inkscape.org/namespaces/inkscape"
   inkscapeversion="1.0beta2 (2b71d25, 2019-12-03)"
   sodipodidocname="line.svg"
   viewBox="0 0 651.20001 15.04"
   height="15.04"
   width="651.20001"
   id="svg833"
   version="1.1">
  <metadata
     id="metadata839">
    <rdfRDF>
      <ccWork
         rdfabout="">
        <dcformat>image/svg+xml</dcformat>
        <dctype
           rdfresource="http://purl.org/dc/dcmitype/StillImage" />
        <dctitle></dctitle>
      </ccWork>
    </rdfRDF>
  </metadata>
  <defs
     id="defs837" />
  <sodipodinamedview
     inkscapecurrent-layer="g841"
     inkscapewindow-maximized="0"
     inkscapewindow-y="23"
     inkscapewindow-x="0"
     inkscapecy="-0.82871812"
     inkscapecx="580.23591"
     inkscapezoom="1.4373464"
     showgrid="false"
     id="namedview835"
     inkscapewindow-height="480"
     inkscapewindow-width="740"
     inkscapepageshadow="2"
     inkscapepageopacity="0"
     guidetolerance="10"
     gridtolerance="10"
     objecttolerance="10"
     borderopacity="1"
     inkscapedocument-rotation="0"
     bordercolor="#666666"
     pagecolor="#ffffff" />
  <g
     id="g841"
     inkscapelabel="Image"
     inkscapegroupmode="layer">
    <path
       inkscapeconnector-curvature="0"
       id="path845"
       d="m 647.16417,13.436146 c -0.17814,-0.178119 -1.39494,-0.386814 -2.704,-0.463766 -3.14755,-0.185024 -5.32518,-0.434778 -8.63469,-0.990325 -1.504,-0.252465 -3.376,-0.521177 -4.16,-0.597136 -2.80672,-0.271932 -5.284,-0.548343 -6.38547,-0.712486 -3.41901,-0.509499 -23.29888,-0.583158 -35.36,-0.131017 -4.4,0.164945 -14.984,0.309456 -23.52,0.321135 -8.536,0.01168 -19.48,0.04729 -24.32,0.07914 -4.84,0.03185 -10.96,-0.04705 -13.6,-0.175321 -2.64,-0.128276 -9.84,-0.37578 -16,-0.550009 -6.16,-0.174229 -12.064,-0.3783656 -13.12,-0.4536376 -3.52192,-0.2510422 -8.89623,-0.7233648 -11.04,-0.9702531 -0.616,-0.070941 -2.488,-0.2132135 -4.16,-0.3161603 -1.672,-0.1029469 -3.328,-0.2433239 -3.68,-0.3119492 -0.66883,-0.1303942 -6.04528,-0.4103734 -12.32,-0.6415644 -2.024,-0.074574 -8.072,-0.3629021 -13.44,-0.640729 -13.24122,-0.6853136 -14.93744,-0.7409862 -29.356,-0.9635018 -6.9058,-0.106574 -12.8818,-0.2573619 -13.28,-0.3350841 -1.37456,-0.2682915 -20.2608,-0.1514861 -26.004,0.1608269 -3.168,0.1722745 -8.568,0.4655606 -12,0.6517462 -3.432,0.1861856 -6.888,0.411599 -7.68,0.500919 -0.792,0.08932 -15.624,0.2212983 -32.96,0.2932855 C 316.104,7.2622493 299.976,7.4031075 297.6,7.5032803 c -5.63354,0.237512 -13.56972,0.4361587 -27.32395,0.6839331 -6.14017,0.1106116 -12.54817,0.252674 -14.24,0.3156938 C 252.09615,8.6496672 206.17277,8.9981149 194.4,8.970576 177.00715,8.9298909 158.75178,8.6974109 158.45307,8.5127958 158.28676,8.4100125 147.22679,8.2541258 133.87535,8.1663811 120.52391,8.0786365 105.136,7.9313795 99.680002,7.8391434 80.70682,7.5183933 66.687902,7.6361971 62.400001,8.1524144 c -2.2,0.2648566 -5.728,0.6304989 -7.84,0.8125386 -2.112,0.18204 -4.92,0.47076 -6.24,0.6416006 -1.32,0.1708406 -3.048,0.3889974 -3.84,0.4847934 -0.792,0.0958 -2.88,0.397393 -4.64,0.670216 -4.319847,0.669633 -16.53572,2.12141 -17.280001,2.053616 -0.176,-0.01603 -1.184,-0.07822 -2.24,-0.138203 -7.978308,-0.453163 -9.151995,-0.570097 -13.2799999,-1.323085 -1.32,-0.24078 -3.108321,-0.530377 -3.9740464,-0.643549 -1.1062362,-0.144612 -1.4391028,-0.291178 -1.12,-0.493154 C 2.2650623,10.015209 2.2811243,9.928344 2,9.9249002 1.78,9.9222051 1.6000378,9.596 1.6000839,9.2 1.6001613,8.5356355 1.7619651,8.473223 3.6940423,8.3922979 4.8456734,8.3440614 6.9696356,8.5147805 8.4139585,8.771673 9.8582814,9.0285654 13.2,9.3380189 15.84,9.4593475 c 2.64,0.1213283 5.308099,0.2519421 5.929108,0.2902525 0.621009,0.03831 2.061009,-0.050042 3.2,-0.1963386 C 26.108099,9.4069648 28.984,9.0701254 31.36,8.8047296 39.839101,7.8576259 41.132506,7.6854944 43.352071,7.208776 c 1.236362,-0.2655453 4.55193,-0.7003434 7.36793,-0.9662179 2.816,-0.2658746 6.848,-0.7126016 8.96,-0.9927267 C 64.361639,4.6288819 83.79586,4.5168099 123.36,4.8826054 c 25.42598,0.2350794 33.18991,0.3914791 41.14538,0.8288471 5.02465,0.2762409 67.68992,0.1937277 80.93462,-0.106569 5.72,-0.1296889 14.504,-0.3336531 19.52,-0.4532528 5.016,-0.1196 11.96404,-0.2116441 15.44008,-0.2045427 3.47605,0.0071 6.32005,-0.095088 6.32,-0.227088 -1.4e-4,-0.4213984 3.13457,-0.2697795 3.30799,0.16 0.12913,0.32 0.16646,0.32 0.18667,0 0.0333,-0.5274358 2.16051,-0.5274358 2.37333,0 0.12913,0.32 0.16646,0.32 0.18667,0 0.0168,-0.2666698 0.58525,-0.3983667 1.70526,-0.3950998 1.20271,0.00351 1.54363,0.093029 1.2,0.3150998 -0.3727,0.2408595 -0.27906,0.311295 0.41889,0.3150998 0.57652,0.00314 0.82038,-0.1221337 0.67997,-0.3493184 -0.15221,-0.24627 0.0858,-0.2872819 0.78111,-0.1345744 0.58598,0.1287021 1.00003,0.090576 1.00003,-0.092082 0,-0.1910397 0.43362,-0.2139302 1.12,-0.059125 0.65232,0.1471206 1.12,0.1294973 1.12,-0.042204 0,-0.1669946 1.87291,-0.2788893 4.32,-0.2580944 2.376,0.020192 4.32,0.1680179 4.32,0.3285043 0,0.1604867 0.54,0.2816729 1.2,0.2693027 0.98064,-0.018381 1.08301,-0.075093 0.56,-0.310241 -0.81087,-0.3645776 4.53187,-0.1807244 5.4125,0.1862535 0.43271,0.1803213 0.54458,0.1453507 0.38111,-0.1191408 -0.16135,-0.2610784 0.13751,-0.3728976 0.98751,-0.3694803 0.9048,0.00364 1.0952,0.084832 0.73888,0.3150998 -0.38814,0.2508397 -0.34222,0.3111376 0.24,0.3150998 C 319.356,4.7977878 319.68221,4.62 319.6849,4.4 c 0.003,-0.267481 0.1093,-0.240977 0.32,0.08 0.2801,0.4266666 0.35011,0.4266666 0.63021,0 0.21069,-0.320977 0.3167,-0.347481 0.32,-0.08 0.006,0.4904736 1.0992,0.5219053 1.96861,0.056603 0.4446,-0.2379485 0.92947,-0.2430602 1.57897,-0.016646 0.65616,0.2287385 0.93731,0.2240038 0.93731,-0.015786 0,-0.2281744 0.15076,-0.2174292 0.45153,0.032185 0.34073,0.282792 0.50755,0.2840231 0.68,0.00502 0.16422,-0.265728 0.28969,-0.2706499 0.44614,-0.017501 0.14336,0.2319706 2.0687,0.3618579 5.64,0.3804864 7.48646,0.039052 8.83427,-0.020282 7.82234,-0.3443587 -0.62167,-0.1990877 -0.4433,-0.2536006 0.8,-0.2445242 0.88,0.00643 1.276,0.074086 0.88,0.1503588 -0.396,0.076273 -0.72,0.2431276 -0.72,0.3707881 0,0.1276605 2.952,0.1996957 6.56,0.1600781 3.94214,-0.043286 6.56,0.048274 6.56,0.2294374 0,0.2833888 -12.53632,0.413808 -23.04,0.2396919 -8.20093,-0.1359443 -11.54202,-0.1050819 -12.09007,0.1116787 -0.32013,0.1266189 0.11865,0.2363053 1.05006,0.2624912 1.17943,0.033158 1.43178,0.1149891 0.96,0.3113011 -0.89856,0.3739095 6.64759,0.5021834 25.92001,0.4406042 8.976,-0.028678 17.76,-0.201112 19.52,-0.3831821 3.32412,-0.3438774 5.97872,-0.540919 11.68,-0.8669651 1.848,-0.1056839 4.28547,-0.3175626 5.41664,-0.4708413 1.13113,-0.1532787 2.17043,-0.2083549 2.3095,-0.1223914 0.1391,0.085964 1.01363,0.055063 1.94339,-0.068667 0.92976,-0.1237302 1.50957,-0.2856144 1.28848,-0.3597424 -0.22112,-0.074128 -0.31737,-0.2716902 -0.21395,-0.4390272 0.11622,-0.1880944 -0.64656,-0.2290736 -1.99802,-0.1073382 -1.58707,0.1429565 -2.05452,0.1036314 -1.70604,-0.14352 0.42665,-0.3026045 0.42665,-0.3398438 0,-0.3351533 -0.264,0.00291 -0.73869,0.2014659 -1.05488,0.4412525 -0.31616,0.2397866 -0.85402,0.3629747 -1.1952,0.2737514 -0.34122,-0.089223 -0.8745,-0.060923 -1.18516,0.062889 -0.31062,0.1238122 -2.58588,0.2758826 -5.05616,0.3379344 -2.47027,0.062052 -6.28627,0.2608445 -8.48,0.441762 -5.61539,0.4631024 -13.62732,0.5712784 -13.4286,0.1813107 0.088,-0.1726874 0.79852,-0.2764007 1.57894,-0.2304736 0.8751,0.051499 1.51712,-0.071148 1.6751,-0.32 0.20311,-0.3199504 0.25716,-0.3206759 0.26106,-0.0035 0.003,0.22 0.38029,0.4 0.83914,0.4 0.61008,0 0.78473,-0.1289779 0.65004,-0.48 -0.10131,-0.264 -0.0402,-0.48 0.13581,-0.48 0.176,0 0.3968,0.2001853 0.49069,0.4448563 0.17536,0.456935 1.09629,0.5522602 2.93811,0.3041194 0.5769,-0.077722 0.97565,-0.2597997 0.88615,-0.4046173 -0.0895,-0.1448176 1.15212,-0.1883363 2.75913,-0.096709 2.15178,0.1226899 2.86205,0.069841 2.69495,-0.2005267 C 369.97761,3.6743098 370.08071,3.52 370.35444,3.52 c 0.25974,0 0.52665,0.1632858 0.59318,0.3628573 0.0794,0.2381677 0.29981,0.1839901 0.64147,-0.1576608 0.60976,-0.6097621 3.98503,-0.955434 4.30314,-0.4407002 0.11366,0.1839139 0.0764,0.2606064 -0.0828,0.1704275 -0.1592,-0.090179 -1.00944,-0.059668 -1.88944,0.067801 l -1.6,0.2317629 2.04473,0.042756 c 1.43984,0.030109 2.14983,-0.093237 2.4,-0.4169513 0.816,-1.0558806 22.34167,-1.584225 42.27527,-1.0376416 4.224,0.1158229 9.408,0.21173 11.52,0.2131269 3.6648,0.00242 5.6879,0.042355 8.16,0.1610594 0.616,0.029579 2.092,0.078391 3.28,0.1084713 1.20451,0.030499 2.16,0.19763 2.16,0.377824 0,0.2833737 -20.71373,0.1627725 -28.64,-0.1667501 -4.45949,-0.1853965 -9.50858,-0.194474 -9.68564,-0.017413 C 405.73479,3.1185361 406.03281,3.2 406.49661,3.2 c 0.54903,0 0.78903,0.141425 0.68778,0.4052723 -0.1096,0.2856611 0.24752,0.4134695 1.21005,0.4330461 l 1.36557,0.027773 -0.96,-0.4186125 -0.96,-0.4186128 1.1288,-0.014432 c 0.62083,-0.00794 1.44883,0.2097322 1.84,0.483712 0.47785,0.3347079 0.7112,0.3743472 0.7112,0.1208176 0,-0.264968 0.15843,-0.2465491 0.53203,0.061855 0.41478,0.3423901 0.56173,0.3510256 0.66669,0.039182 0.074,-0.22 0.2751,-0.4 0.44684,-0.4 0.17172,0 0.2226,0.145017 0.11303,0.3222602 -0.10954,0.1772429 0.0438,0.4154899 0.34073,0.5294371 0.33559,0.1287795 0.652,0.00683 0.8362,-0.3222598 0.34521,-0.6168848 1.54416,-0.7173216 1.54512,-0.1294375 0,0.2734109 0.68403,0.4223978 2.16,0.4707732 1.49299,0.048932 1.96185,-0.018192 1.51936,-0.2175088 -0.38794,-0.1747469 -0.4609,-0.2971396 -0.18519,-0.3107732 0.25015,-0.012371 0.72691,0.2237831 1.05952,0.5247847 0.36307,0.3285741 0.69283,0.4228934 0.82519,0.2360233 0.34944,-0.4933004 2.08921,-0.4558828 2.66092,0.057229 0.45712,0.4102368 0.5434,0.4074205 0.70861,-0.023133 0.14989,-0.3906259 0.36192,-0.424151 1.04355,-0.1649961 0.4705,0.1788816 1.80765,0.2940317 2.97143,0.2558889 1.16377,-0.038143 2.61715,0.048617 3.22969,0.1927988 1.00704,0.237038 1.07226,0.2121836 0.6808,-0.2594685 -0.4726,-0.5694685 -0.15004,-0.6860829 0.59476,-0.2150224 0.30089,0.1903197 0.62534,0.1672435 0.90438,-0.064323 0.32525,-0.2699491 0.496,-0.2625914 0.67632,0.029142 0.13264,0.2146438 0.48352,0.2972742 0.77968,0.183623 0.29616,-0.1136512 0.71664,-0.072005 0.9344,0.092547 0.5807,0.438816 1.83514,0.4337236 1.84083,-0.00747 0.003,-0.2269993 0.12986,-0.1867635 0.31511,0.099888 0.24364,0.377016 0.31126,0.3857735 0.3151,0.040818 0.004,-0.3453629 0.10307,-0.3577091 0.46445,-0.057794 0.35597,0.2954304 0.62297,0.293919 1.1847,-0.0067 0.53674,-0.2872573 0.75683,-0.2930269 0.84711,-0.022205 0.16508,0.4952032 1.02608,0.4669299 1.03881,-0.034113 0.006,-0.2444058 0.17543,-0.182304 0.43501,0.1596502 0.37126,0.4890624 0.83414,0.5386938 3.66982,0.393496 2.04196,-0.1045546 3.245,-0.048596 3.245,0.1509395 0,0.191849 0.53718,0.2361895 1.36,0.1122602 0.748,-0.1126586 1.576,-0.1791011 1.84,-0.1476503 1.82739,0.2177034 5.6656,0.1996928 5.97417,-0.028032 0.23748,-0.175278 0.49693,-0.065112 0.71028,0.3015933 0.18483,0.3177594 0.34048,0.3977443 0.34582,0.1777443 0.005,-0.22 0.33373,-0.389879 0.72973,-0.3775088 0.68701,0.021462 0.69069,0.035093 0.08,0.2975088 -0.57146,0.2455677 -0.54778,0.277426 0.22112,0.2975088 0.4736,0.012371 0.95011,-0.1215088 1.05888,-0.2975088 0.32784,-0.5304358 0.88358,-0.3593843 0.66691,0.2052621 -0.16854,0.4391911 -0.1217,0.4589885 0.28576,0.1208176 0.36662,-0.3042678 0.59597,-0.3142729 0.92598,-0.040394 0.24125,0.2002278 1.24925,0.4466186 2.24,0.5475354 1.50951,0.153759 1.80135,0.1011283 1.80135,-0.3248682 0,-0.6290125 0.30614,-0.6424522 1.15123,-0.050539 0.91187,0.6387178 7.05286,0.7991642 6.91072,0.1805578 -0.0811,-0.3528228 -0.0106,-0.3540244 0.40771,-0.00694 0.27821,0.230872 0.59709,0.3284966 0.70864,0.2169436 0.11155,-0.1115532 0.36007,-0.079929 0.55226,0.070276 0.66944,0.5231913 2.10912,0.7189168 2.11433,0.2874444 0.004,-0.3208092 0.0603,-0.3188505 0.26842,0.00932 0.1791,0.282338 0.78704,0.3741373 1.89766,0.2865511 0.89876,-0.070879 1.75012,-0.012893 1.89184,0.1288576 0.14176,0.141751 0.82999,0.1286688 1.52938,-0.029072 0.84502,-0.1905815 1.34147,-0.1738189 1.47978,0.049964 0.11446,0.1852202 0.51411,0.2396506 0.88809,0.1209565 0.37395,-0.1186944 0.67994,-0.08283 0.67994,0.079699 0,0.1625286 0.54,0.2765625 1.2,0.2534083 0.66,-0.023155 1.44032,0.096908 1.73401,0.2668048 0.35898,0.2076598 0.68138,0.1866083 0.98362,-0.06423 0.33878,-0.2811731 0.54029,-0.2824506 0.81754,-0.00518 0.43801,0.4379971 5.60384,0.8376483 12.94489,1.0014749 1.364,0.030442 2.48083,0.1273459 2.48183,0.2153459 0.004,0.320303 5.09993,0.3522429 5.69145,0.035669 0.41546,-0.2223481 0.71427,-0.2200662 0.94151,0.00719 0.23056,0.2305402 0.39904,0.2259347 0.5479,-0.014976 C 516.10103,9.1165472 516.34177,8.96 516.51777,8.96 c 0.176,0 0.23773,0.1331622 0.13712,0.2959162 -0.10794,0.174654 1.42512,0.3046944 3.74112,0.3173372 2.15821,0.011782 4.61145,0.1093933 5.45165,0.2169146 0.95692,0.1224566 1.69251,0.058685 1.96889,-0.1706934 0.33405,-0.2772535 0.47354,-0.2692823 0.57421,0.032822 0.10205,0.3061328 2.56733,0.4132954 10.59114,0.4603824 5.75196,0.03375 10.45811,-0.03654 10.45811,-0.1562144 0,-0.1196727 0.972,-0.1742938 2.16,-0.1213805 2.58736,0.1152409 2.8351,0.1144726 13.2,-0.040944 4.488,-0.067296 8.46774,-0.2230525 8.84387,-0.3461258 0.39005,-0.1276189 0.77629,-0.074291 0.89891,0.1241078 C 574.66103,9.763455 575.18977,9.92 575.71777,9.92 c 0.55424,0 0.87696,-0.1343581 0.76355,-0.3178694 -0.11386,-0.1842109 0.14733,-0.289418 0.62112,-0.2502055 0.44966,0.037215 0.81757,0.1910173 0.81757,0.3417824 0,0.4641905 8.49466,0.1052832 9.08397,-0.3838064 0.34051,-0.2826029 0.51603,-0.3060998 0.51603,-0.069083 0,0.4324976 2.12416,0.4854768 2.38742,0.059545 0.10186,-0.1648006 0.46036,-0.2789084 0.79671,-0.2535724 0.33635,0.025334 0.54102,0.1601728 0.45481,0.2996377 C 591.07275,9.4858925 591.37073,9.6 591.82113,9.6 c 0.45037,0 0.78288,-0.162 0.73888,-0.36 -0.044,-0.198 0.1,-0.426 0.32,-0.5066666 0.22,-0.080667 0.4,0.081333 0.4,0.36 0,0.737113 1.19898,0.6260976 1.44,-0.1333334 0.21904,-0.6901094 0.85222,-0.9011773 0.72,-0.24 -0.0588,0.29396 0.61987,0.400767 2.56,0.4028931 2.03408,0.00224 2.64,-0.098571 2.64,-0.4391821 0,-0.3430528 0.10054,-0.3586288 0.4489,-0.069537 0.34467,0.2860723 0.48736,0.2765984 0.61472,-0.040818 0.0997,-0.2484656 0.17593,-0.1743383 0.19113,0.1858262 0.0179,0.4282278 0.13936,0.5116109 0.42525,0.2922515 0.22,-0.1688121 1.156,-0.2687133 2.08,-0.2220025 1.00131,0.050619 1.68,-0.049139 1.68,-0.2469421 0,-0.2031837 0.34122,-0.2447344 0.88,-0.1071552 1.75869,0.4490973 2.19491,0.5023091 4.20877,0.5133913 1.35293,0.00745 2.1392,-0.1313664 2.31507,-0.4087254 0.1465,-0.231 0.26858,-0.2687085 0.27126,-0.083797 0.003,0.184912 0.6529,0.3420982 1.4449,0.349303 0.792,0.00721 1.44,-0.1257184 1.44,-0.2953856 0,-0.1722937 0.19194,-0.149182 0.43478,0.05235 0.26893,0.2232003 1.48954,0.3270234 3.2,0.2721911 1.52087,-0.048755 2.76522,0.030109 2.76522,0.1752528 0,0.2348003 1.74221,0.3078252 5.5599,0.2330425 0.68192,-0.013357 1.59156,0.2061456 2.02141,0.4877866 0.61239,0.4012628 0.88077,0.4297158 1.2401,0.1314829 0.36022,-0.298962 0.45859,-0.2863956 0.45859,0.058591 0,0.3071799 0.4328,0.4391829 1.44,0.4391829 0.792,0 1.44,-0.08649 1.44,-0.19221 0,-0.105715 0.69402,-0.0825 1.54221,0.05158 2.28387,0.361028 7.23357,0.465373 7.41779,0.156375 0.088,-0.147594 -0.344,-0.293808 -0.96,-0.324919 -1.85101,-0.093485 -6.82355,-0.8288666 -7.68,-1.1357866 -0.44,-0.1576797 -2.24,-0.3703946 -4,-0.4726995 -1.76,-0.102305 -3.776,-0.277976 -4.48,-0.3903799 -0.704,-0.1124038 -1.712,-0.2358131 -2.24,-0.2742432 -2.07766,-0.1512192 -16.07514,-0.5642499 -17.28,-0.5098893 -0.704,0.031763 -4.232,0.1238983 -7.84,0.2047466 -3.608,0.080848 -6.848,0.1703347 -7.2,0.1988592 -0.352,0.028525 -1,0.035519 -1.44,0.015542 -1.4553,-0.066069 -34.36026,0.2710224 -36.4,0.3728966 -1.1,0.054939 -2,-0.00568 -2,-0.1347123 0,-0.3634077 3.77597,-0.4738899 19.52,-0.5711414 8.008,-0.049466 16.144,-0.1526419 18.08,-0.22928 6.58867,-0.2608189 28.46506,-0.3068419 32.64,-0.068667 4.64192,0.2648141 11.79267,1.0559094 14.72,1.6284886 1.056,0.2065511 2.03674,0.3411091 2.17942,0.2990173 0.67216,-0.1982906 6.21383,1.0063359 7.2321,1.5720869 0.83139,0.461932 0.92762,0.58101 0.34848,0.431303 -0.44,-0.113743 -1.232,-0.269956 -1.76,-0.347141 -0.69728,-0.101931 -0.52214,0.03961 0.64,0.517222 0.9184,0.377443 1.9408,0.582146 2.4,0.480532 0.44,-0.09736 0.63142,-0.06321 0.42538,0.0759 -0.20605,0.139109 -0.47367,0.647484 -0.59469,1.129721 -0.22675,0.903465 -0.73917,1.120319 -1.30653,0.552941 z M 220.16,7.8386576 c 2.02903,-0.1497814 4.50868,-0.1794406 7.52,-0.089947 1.26102,0.037476 1.76,-0.073792 1.76,-0.3924627 0,-0.406881 -13.02732,-0.4050845 -13.27881,0.00182 -0.20885,0.3379322 0.77662,0.9455062 1.25949,0.7765078 C 217.60731,8.0692605 218.84,7.9360925 220.16,7.8386506 Z M 238.08,7.36 c -0.2538,-0.1568608 -0.53346,-0.2132013 -0.62146,-0.1252013 -0.088,0.088 0.0477,0.2883405 0.30146,0.4452013 0.25381,0.1568608 0.53347,0.2132013 0.62147,0.1252013 0.088,-0.088 -0.0477,-0.2883405 -0.30147,-0.4452013 z m 3.14078,0.2358416 c 1.29168,0.033203 0.4629,-0.3150624 -1.04961,-0.4410621 -0.79814,-0.066489 -1.45117,0.012486 -1.45117,0.1754989 0,0.4153693 0.70796,0.6547299 1.28,0.4327683 0.264,-0.1024358 0.81335,-0.1776781 1.22078,-0.1672051 z M 193.36,7.4680701 c -0.22,-0.088772 -0.58,-0.088772 -0.8,0 -0.22,0.088772 -0.04,0.1614035 0.4,0.1614035 0.44,0 0.62,-0.072631 0.4,-0.1614035 z M 196.96,7.36 c -0.25194,-0.4076445 -2.08921,-0.4076445 -2.72,0 -0.34325,0.2218291 0.004,0.3115958 1.21889,0.3150998 1.05221,0.00304 1.6236,-0.1169072 1.50111,-0.3150998 z m 16.3164,0.033199 C 212.80918,6.9330829 197.44,6.8232234 197.44001,7.28 c 1e-5,0.132 3.63438,0.281577 8.07639,0.3323933 5.24124,0.059959 7.96532,-0.016986 7.76,-0.2191943 z M 214.72,7.3066666 C 214.72,7.16 214.5845,7.04 214.41889,7.04 c -0.16561,0 -0.37528,0.12 -0.46592,0.2666666 -0.0906,0.1466668 0.0448,0.2666668 0.30111,0.2666668 0.25626,0 0.46592,-0.12 0.46592,-0.2666668 z m 16.48864,0.067309 C 231.10462,7.2056624 230.80812,7.1490688 230.54975,7.2482122 229.88828,7.5020445 229.96623,7.68 230.73889,7.68 c 0.36239,0 0.57378,-0.137711 0.46975,-0.3060244 z M 237.12,7.36 c 0,-0.176 -0.216,-0.32 -0.48,-0.32 -0.264,0 -0.48,0.144 -0.48,0.32 0,0.176 0.216,0.32 0.48,0.32 0.264,0 0.48,-0.144 0.48,-0.32 z m 11.60609,-0.2098998 c -0.21665,-0.087655 -0.64865,-0.092991 -0.96,-0.011856 -0.31135,0.081134 -0.13409,0.1528521 0.39391,0.1593734 0.528,0.00652 0.78274,-0.059861 0.56609,-0.1475162 z m 9.59391,-0.00202 c -0.22,-0.088772 -0.58,-0.088772 -0.8,0 -0.22,0.088772 -0.04,0.1614035 0.4,0.1614035 0.44,0 0.62,-0.072631 0.4,-0.1614035 z M 295.52,6.08 c 0.11789,-0.1907421 -0.22994,-0.3071155 -0.86111,-0.2881024 -0.99555,0.02999 -1.01103,0.047223 -0.25889,0.2881024 0.44,0.1409126 0.82751,0.2705587 0.86112,0.2881024 C 295.29473,6.3856461 295.41123,6.256 295.52,6.08 Z m 9.44,-0.3405379 c 0.27319,-0.1484941 -0.48515,-0.2173693 -1.76,-0.1598499 -2.71071,0.1223036 -2.67633,0.1139612 -2.08,0.5046985 0.50267,0.329361 3.01469,0.1037703 3.84,-0.3448486 z m 4.24,0.448608 c -0.22,-0.088772 -0.58,-0.088772 -0.8,0 -0.22,0.088772 -0.04,0.1614035 0.4,0.1614035 0.44,0 0.62,-0.072631 0.4,-0.1614035 z m 9.28,0 c -0.22,-0.088772 -0.58,-0.088772 -0.8,0 -0.22,0.088772 -0.04,0.1614035 0.4,0.1614035 0.44,0 0.62,-0.072631 0.4,-0.1614035 z M 298,5.8541654 c -0.396,-0.076273 -1.044,-0.076273 -1.44,0 -0.396,0.076273 -0.072,0.1386781 0.72,0.1386781 0.792,0 1.116,-0.062405 0.72,-0.1386781 z m 9.44,-0.3147497 c -0.308,-0.080489 -0.812,-0.080489 -1.12,0 -0.308,0.080489 -0.056,0.1463433 0.56,0.1463433 0.616,0 0.868,-0.065854 0.56,-0.1463433 z m 11.104,-0.038277 c -0.1672,-0.1423731 -1.384,-0.165657 -2.704,-0.051741 l -2.4,0.2071187 2.704,0.051742 c 1.4872,0.028458 2.5672,-0.064746 2.4,-0.2071197 z M 395.68001,4.16 c -0.2257,-0.3651613 0.25561,-0.4377178 0.60249,-0.090828 0.12605,0.1260445 2.14807,0.2612803 4.49335,0.3005245 l 4.26416,0.071352 v -0.798348 c 0,-0.7736571 -0.0606,-0.7956711 -1.96,-0.7117895 -1.07799,0.047607 -2.068,0.235628 -2.2,0.4178237 -0.15792,0.2179507 -0.33642,0.181705 -0.52189,-0.1059613 -0.20979,-0.3253809 -0.43485,-0.3516322 -0.87981,-0.1026215 -0.4529,0.2534606 -0.73709,0.2086446 -1.17184,-0.1848016 -0.53424,-0.4834729 -0.58662,-0.4708387 -0.75754,0.1826214 C 397.44797,3.5240874 397.22276,3.84 397.04845,3.84 c -0.1743,0 -0.23404,-0.216 -0.13273,-0.48 0.22864,-0.5957809 -1.2809,-0.6643938 -2.49063,-0.113207 -0.89785,0.4090928 -0.784,1.0448537 0.13492,0.753207 0.32236,-0.1023184 0.67875,-0.036176 0.79196,0.1469834 0.11319,0.183159 0.2778,0.3330166 0.3658,0.3330166 0.088,0 0.071,-0.144 -0.0378,-0.32 z M 377.83335,3.3266666 c -0.10634,-0.1063332 -0.38234,-0.1177018 -0.61334,-0.025264 -0.25527,0.1021523 -0.17946,0.1779785 0.19334,0.1933334 0.33731,0.013894 0.52634,-0.061737 0.42,-0.1680704 z M 382.72001,3.2 c 0,-0.176 -0.0635,-0.32 -0.14112,-0.32 -0.0776,0 -0.23012,0.144 -0.33888,0.32 -0.10877,0.176 -0.0453,0.32 0.14112,0.32 0.18636,0 0.33888,-0.144 0.33888,-0.32 z m 20.16,9.6 c 0,-0.176 0.144,-0.32 0.32,-0.32 0.176,0 0.32,0.144 0.32,0.32 0,0.176 -0.144,0.32 -0.32,0.32 -0.176,0 -0.32,-0.144 -0.32,-0.32 z m 132.32,-4.8 c -0.10877,-0.176 0.0352,-0.32 0.32,-0.32 0.28477,0 0.42877,0.144 0.32,0.32 -0.10877,0.176 -0.25277,0.32 -0.32,0.32 -0.0672,0 -0.21123,-0.144 -0.32,-0.32 z m 2.4,-0.013805 c -0.45674,-0.138393 1.17945,-0.2560858 3.81334,-0.274297 2.53731,-0.017542 4.52695,0.054474 4.42138,0.1600384 -0.29258,0.2925805 -7.32419,0.390146 -8.23472,0.1142586 z m -12.88,-0.2347491 c -2.86266,-0.053709 -4.72,-0.2140211 -4.72,-0.4073981 0,-0.3617997 9.59475,-0.052082 10.01065,0.3231437 0.13789,0.1243779 0.0659,0.2141417 -0.16,0.1994749 -0.22585,-0.014666 -2.53465,-0.066516 -5.13065,-0.1152205 z m 6.02966,-0.023437 c -0.0924,-0.1495943 0.58304,-0.2101811 1.50112,-0.1346368 2.39475,0.1970553 2.59328,0.35216 0.4881,0.3813638 -1.0016,0.013894 -1.89677,-0.097132 -1.98922,-0.246727 z m 19.59034,0.053394 c 0.23101,-0.092439 0.50701,-0.08107 0.61334,0.025264 0.10634,0.1063334 -0.0827,0.1819651 -0.42,0.1680704 -0.3728,-0.015354 -0.44861,-0.091181 -0.19334,-0.1933344 z M 515.6563,7.3866659 c -0.40733,-0.3984896 0.0675,-0.496087 1.94304,-0.3993619 1.14438,0.059018 2.08067,0.2098662 2.08067,0.3352195 0,0.2374867 -3.78483,0.2978211 -4.02371,0.064142 z M 507.04001,7.04 c 0.10877,-0.176 0.39677,-0.32 0.64,-0.32 0.24323,0 0.53123,0.144 0.64,0.32 0.11261,0.1822083 -0.16298,0.32 -0.64,0.32 -0.47703,0 -0.75261,-0.1377917 -0.64,-0.32 z m 2.64,0.1080701 c 0.22,-0.088772 0.58,-0.088772 0.8,0 0.22,0.088772 0.04,0.1614035 -0.4,0.1614035 -0.44,0 -0.62,-0.072631 -0.4,-0.1614035 z m 4.48,0 c 0.22,-0.088772 0.58,-0.088772 0.8,0 0.22,0.088772 0.04,0.1614035 -0.4,0.1614035 -0.44,0 -0.62,-0.072631 -0.4,-0.1614035 z M 500.21665,6.87668 c 0.22912,-0.2291018 6.03622,-0.2504829 6.26365,-0.023062 0.10249,0.10251 -1.30164,0.186382 -3.12029,0.186382 -1.81866,0 -3.23319,-0.073494 -3.14336,-0.16332 z m -1.89664,-0.3772643 c 0.308,-0.080489 0.812,-0.080489 1.12,0 0.308,0.080489 0.056,0.1463433 -0.56,0.1463433 -0.616,0 -0.868,-0.065854 -0.56,-0.1463433 z m -7.92,-0.4460752 c -1.06967,-0.1692407 -0.91629,-0.2099834 0.93334,-0.2479309 1.21731,-0.024976 2.13005,0.037875 2.02826,0.1396666 -0.28554,0.2855155 -1.54931,0.3317148 -2.9616,0.1082643 z m 4.9,0.128063 c 0.23101,-0.092439 0.50701,-0.08107 0.61334,0.025264 0.10634,0.1063335 -0.0827,0.1819651 -0.42,0.1680704 -0.3728,-0.015354 -0.44861,-0.091181 -0.19334,-0.1933334 z m 1.28,0 c 0.23101,-0.092439 0.50701,-0.08107 0.61334,0.025264 0.10634,0.1063335 -0.0827,0.1819651 -0.42,0.1680704 -0.3728,-0.015354 -0.44861,-0.091181 -0.19334,-0.1933334 z m -10.98586,-0.473935 c -0.5248,-0.1404915 -2.10614,-0.3464861 -3.51414,-0.4577658 -1.408,-0.1112797 -2.62,-0.2579862 -2.69335,-0.3260147 -0.44649,-0.4142163 0.58404,-0.4758643 2.75895,-0.1650397 1.3719,0.1960691 3.21174,0.4389143 4.08848,0.5396557 0.87673,0.1007411 1.63878,0.2278906 1.69344,0.2825539 0.2584,0.2583965 -1.48733,0.3531197 -2.33338,0.1266106 z M 470.58126,4.8327094 c -0.4474,-0.175191 -0.50884,-0.3102604 -0.22183,-0.4876345 0.52579,-0.324952 2.04042,0.066878 1.79479,0.4643065 -0.22189,0.3589901 -0.6978,0.3660484 -1.57296,0.023328 z m 2.69875,-0.019225 c -0.57187,-0.1735088 -0.22727,-0.2509136 1.20861,-0.2714528 1.19113,-0.01704 1.93228,0.094724 1.82108,0.2746179 -0.21712,0.3513059 -1.86704,0.3495821 -3.02969,-0.00317 z M 477.44001,4.8 c 1.14384,-0.3663264 1.6,-0.3663264 1.6,0 0,0.176 -0.54,0.3056461 -1.2,0.2881024 -1.07095,-0.028467 -1.11395,-0.05945 -0.4,-0.2881024 z m -141.84,-0.5319299 c 0.22,-0.088772 0.58,-0.088772 0.8,0 0.22,0.088772 0.04,0.1614035 -0.4,0.1614035 -0.44,0 -0.62,-0.072631 -0.4,-0.1614035 z m 1.6,0 c 0.22,-0.088772 0.58,-0.088772 0.8,0 0.22,0.088772 0.04,0.1614035 -0.4,0.1614035 -0.44,0 -0.62,-0.072631 -0.4,-0.1614035 z m 6.08,0 c 0.22,-0.088772 0.58,-0.088772 0.8,0 0.22,0.088772 0.04,0.1614035 -0.4,0.1614035 -0.44,0 -0.62,-0.072631 -0.4,-0.1614035 z m 1.62,-0.00667 c 0.231,-0.092439 0.507,-0.08107 0.61334,0.025264 0.10634,0.1063334 -0.0827,0.1819651 -0.42,0.1680704 -0.3728,-0.015354 -0.44861,-0.091181 -0.19334,-0.1933344 z m 1.42,-0.00198 c 0.308,-0.080489 0.812,-0.080489 1.12,0 0.308,0.080489 0.056,0.1463433 -0.56,0.1463433 -0.616,0 -0.868,-0.065854 -0.56,-0.1463433 z m 115.12,-0.069388 c -0.76938,-0.2175178 -0.77379,-0.2331648 -0.11543,-0.408881 0.37652,-0.1004892 0.85047,-0.080177 1.05325,0.045139 0.20275,0.1253156 1.68371,0.252682 3.29101,0.2830362 1.6073,0.030355 2.99334,0.1261734 3.0801,0.2129315 0.24361,0.2436317 -6.40493,0.1233527 -7.30893,-0.1322257 z m -98.3,-0.2486285 c 0.231,-0.092439 0.507,-0.08107 0.61334,0.025264 0.10634,0.1063335 -0.0827,0.1819651 -0.42,0.1680704 -0.3728,-0.015354 -0.44861,-0.091181 -0.19334,-0.1933344 z M 450.70337,3.810873 c -0.065,-0.1040202 -0.78308,-0.1991776 -1.59559,-0.2114612 -1.33984,-0.020256 -2.06928,-0.2332438 -1.72112,-0.5025435 0.32448,-0.2509818 7.62359,0.5323963 7.45792,0.8004248 -0.19385,0.3137075 -3.93993,0.2355338 -4.14121,-0.08642 z M 455.36001,3.84 c 0,-0.3679318 1.37693,-0.3734403 3.68,-0.014723 1.50739,0.234784 1.44717,0.2516851 -1.04,0.2919661 -1.57517,0.025512 -2.64,-0.086313 -2.64,-0.2772431 z m -10.4,-0.64 c 0.87404,-0.3755886 1.12,-0.3755886 1.12,0 0,0.176 -0.396,0.309879 -0.88,0.2975088 -0.77978,-0.01993 -0.80714,-0.053809 -0.24,-0.2975088 z"
       style="fill:#000000;stroke-width:0.32" />
  </g>
</svg>
