<?xml version="1.0" encoding="UTF-8" standalone="no"?>
<svg
   xmlnsdc="http://purl.org/dc/elements/1.1/"
   xmlnscc="http://creativecommons.org/ns#"
   xmlnsrdf="http://www.w3.org/1999/02/22-rdf-syntax-ns#"
   xmlnssvg="http://www.w3.org/2000/svg"
   xmlns="http://www.w3.org/2000/svg"
   xmlnssodipodi="http://sodipodi.sourceforge.net/DTD/sodipodi-0.dtd"
   xmlnsinkscape="http://www.inkscape.org/namespaces/inkscape"
   inkscapeversion="1.0beta2 (2b71d25, 2019-12-03)"
   sodipodidocname="LinkedIn.svg"
   viewbox="0 0 83.839996 105.6"
   height="105.6"
   width="83.839996"
   id="svg833"
   version="1.1"
   fill="current"
   stroke="current">
  <metadata
     id="metadata839">
    <rdfRDF>
      <ccWork
         rdfabout="">
        <dcFormat>image/svg+xml</dcFormat>
        <dcType
           rdfresource="http://purl.org/dc/dcmitype/StillImage" />
        <dcTitle></dcTitle>
      </ccWork>
    </rdfRDF>
  </metadata>
  <defs
     id="defs837" />
  <sodipodiNamedview
     inkscapecurrent-layer="g841"
     inkscapewindow-maximized="0"
     inkscapewindow-y="23"
     inkscapewindow-x="0"
     inkscapecy="52.799999"
     inkscapecx="41.919998"
     inkscapezoom="5.9564395"
     showgrid="false"
     id="namedview835"
     inkscapewindow-height="480"
     inkscapewindow-width="740"
     inkscapepageshadow="2"
     inkscapepageopacity="0"
     guidetolerance="10"
     gridtolerance="10"
     objecttolerance="10"
     borderopacity="1"
     inkscapedocument-rotation="0"
     bordercolor="#666666"
     pagecolor="#ffffff" />
  <g
     id="g841"
     inkscapelabel="Image"
     inkscapegroupmode="layer">
    <path
       inkscapeconnector-curvature="0"
       id="path845"
       d="m 18.399999,104.11294 c -0.528,-0.0664 -2.688,-0.497 -4.8,-0.95698 C 8.2857986,101.99858 6.5471498,101.142 5.2455665,99.04 4.9186228,98.512 4.4086225,97.90024 4.1122328,97.680534 3.4929678,97.221491 2.3663839,94.48695 2.6710244,94.182307 2.782907,94.070426 2.7208262,93.793782 2.5330672,93.567549 2.3453081,93.341312 1.9836198,92.248064 1.7293153,91.138106 1.4750108,90.028147 1.0538812,88.577085 0.79347177,87.913523 0.2327508,86.484726 0.17600797,85.12 0.67732202,85.12 c 0.21360754,0 0.28078421,-0.289584 0.16702357,-0.72 -0.13475209,-0.50984 0.009468,-0.871827 0.49408751,-1.240154 0.6769073,-0.51447 0.6804801,-0.577414 0.3269549,-5.76 C 1.4582664,74.363498 1.3859391,68.997635 1.4933959,64.64 1.5953873,60.504 1.6970969,49.753754 1.7194173,40.75056 1.7462322,29.934464 1.8685601,24.445872 2.0799999,24.571987 c 0.176,0.104977 0.1625722,-0.01677 -0.029839,-0.27056 C 1.8577487,24.047642 1.7434205,23.192 1.7960978,22.4 c 0.210377,-3.163006 0.4527279,-4.858566 0.7825287,-5.474804 0.1903657,-0.355702 0.3994659,-0.923737 0.4646673,-1.2623 0.065201,-0.338564 0.4871336,-1.098811 0.937627,-1.689438 0.4504934,-0.590628 0.819079,-1.209933 0.819079,-1.376234 0,-0.446496 3.1853675,-2.196738 5.4818942,-3.0120982 1.100616,-0.3907636 2.873442,-1.123161 3.939613,-1.6275501 1.066171,-0.5043888 2.132138,-0.9171843 2.368816,-0.9173232 0.417614,-2.451e-4 4.522042,-1.1399178 5.489676,-1.524313 0.59353,-0.2357817 1.125252,-0.3191389 2.56,-0.4013257 0.616,-0.035286 1.84,-0.1829872 2.72,-0.328224 0.88,-0.1452372 2.896,-0.3525402 4.479999,-0.4606736 4.86561,-0.3321562 8.862598,-0.8007556 11.04,-1.2943089 6.340985,-1.4373158 9.797638,-1.8411066 15.999999,-1.8690483 5.365254,-0.02417 6.135545,0.08369 8.319526,1.1649503 1.903619,0.9424558 6.673392,5.7321864 7.73624,7.7686077 0.895568,1.715913 2.504233,8.24689 2.504233,10.166862 0,0.630146 0.134768,1.836807 0.299482,2.68147 1.369533,7.022979 2.540848,17.489809 2.7144,24.255751 0.08126,3.168 0.294505,6.242563 0.473875,6.832358 0.17937,0.589799 0.405072,5.917799 0.501562,11.84 0.09649,5.922205 0.319311,11.847642 0.495167,13.167642 0.421399,3.163098 0.540592,9.060003 0.220861,10.926954 -0.192297,1.12287 -0.642828,1.930547 -1.84,3.298624 -0.871939,0.996416 -1.585347,2.010396 -1.585347,2.253292 0,1.576967 -4.62832,4.19488 -8.479999,4.79653 -0.704,0.10997 -2.864,0.47646 -4.8,0.81443 -7.650621,1.33555 -16.399603,2.12745 -26.290236,2.37962 -3.844371,0.098 -7.82036,0.29673 -8.835536,0.4416 -1.880276,0.26832 -10.171155,0.38098 -11.914226,0.16189 z m -1.813378,-4.112985 c -0.303533,-0.303533 -2.135541,-0.38928 -2.560563,-0.119846 -0.265352,0.168211 0.167393,0.271941 1.147275,0.274991 0.865333,0.003 1.501313,-0.0671 1.413288,-0.155145 z m 12.133378,-0.380541 c -0.308,-0.08049 -0.812,-0.08049 -1.12,0 -0.308,0.08049 -0.056,0.146346 0.56,0.146346 0.616,0 0.868,-0.06586 0.56,-0.146346 z m -2.16,-1.242329 c 4.312,-0.116458 8.919999,-0.281059 10.239999,-0.365783 1.32,-0.08472 7.44,-0.195203 13.6,-0.245507 10.72661,-0.0876 11.362303,-0.127027 15.039999,-0.932848 6.640211,-1.454934 8.479999,-2.187357 8.479999,-3.375891 0,-0.31391 0.266605,-0.914166 0.592458,-1.333901 C 75.826,90.431158 77.52087,83.899904 78.089801,78.337699 78.441126,74.902966 78.316236,55.177043 77.925078,52.32 77.85279,51.792 77.638422,48.552 77.44871,45.12 77.096595,38.750138 76.40974,31.828117 75.845193,28.96 75.671977,28.08 75.240979,25.128 74.887417,22.4 74.533856,19.672 73.929257,16.116516 73.543865,14.498924 72.902931,11.808752 72.695577,11.392177 71.113277,9.6158531 70.161846,8.5477555 68.496138,6.9912397 67.411699,6.156929 L 65.439997,4.64 l -5.76,0.022038 c -3.962726,0.015162 -6.608713,0.1869981 -8.479999,0.5507133 -1.496,0.2907721 -3.296,0.5996368 -4,0.6863664 -2.508864,0.30908 -12.827654,1.7918902 -14.4,2.0692797 -0.88,0.1552476 -2.967999,0.383134 -4.639999,0.506414 -1.672,0.12328 -4.048,0.506633 -5.28,0.8518954 -1.232,0.3452608 -2.888,0.7518392 -3.68,0.9035052 -3.153611,0.603911 -8.207424,2.403883 -10.7084698,3.813942 C 6.6727664,15.06955 5.9141524,16.15152 5.4163082,18.430174 4.646034,21.955753 4.5772612,24.077832 4.8261626,36.64 c 0.1429744,7.216 0.2511066,18.111101 0.2402932,24.211334 -0.010813,6.100234 0.069538,11.235661 0.178559,11.412058 0.1090208,0.1764 0.2900509,2.40367 0.4022886,4.949491 0.1552058,3.520423 0.069307,5.691709 -0.3587357,9.067939 -0.5272642,4.158848 -0.5292262,4.553613 -0.031072,6.251338 0.6924845,2.360013 2.0782028,4.236653 3.7782152,5.116742 1.0925431,0.5656 2.0294251,0.727866 4.7035671,0.814634 1.836603,0.05959 3.387986,0.157062 3.44752,0.216595 0.05953,0.05953 0.428859,0.06334 0.820722,0.0085 0.391863,-0.05489 4.240479,-0.195065 8.552479,-0.311526 z m -8.96,-7.411642 C 16.237954,90.852701 16.121329,90.764877 15.445675,89.343123 15.052796,88.516406 14.632195,87.264 14.511004,86.56 14.389814,85.856 14.27926,77.181709 14.265329,67.283798 c -0.02052,-14.582764 0.05439,-18.026841 0.394953,-18.15774 0.231155,-0.08884 0.339982,-0.291466 0.241838,-0.450266 -0.09815,-0.158803 0.03806,-0.371811 0.302685,-0.473357 0.264622,-0.101545 0.462742,-0.296633 0.440268,-0.433529 -0.02247,-0.1369 -0.02381,-0.708084 -0.003,-1.2693 0.03589,-0.966486 0.118193,-1.031724 1.557894,-1.234899 0.836,-0.117977 3.032,-0.458345 4.88,-0.756368 4.248939,-0.685216 4.624296,-0.613792 5.271231,1.003059 0.436544,1.091031 0.47601,2.015847 0.261461,6.126797 -0.476866,9.137171 -0.244794,28.13025 0.432799,35.42089 0.146252,1.573523 0.09975,2.220915 -0.159532,2.220915 -0.201273,0 -0.621798,0.255846 -0.934498,0.568547 -1.11252,1.112519 -4.506786,1.517917 -9.351453,1.116896 z m 6.94472,-3.859785 c 0.293494,-0.186554 0.310947,-1.190791 0.0736,-4.235101 -0.366446,-4.700259 -0.435758,-23.694112 -0.11135,-30.513907 l 0.226585,-4.763348 -1.566779,0.283348 C 22.305049,48.032493 20.359285,48.16 18.842856,48.16 h -2.757142 l 0.652054,0.676909 c 0.35863,0.372297 0.731574,0.948297 0.828764,1.28 0.09719,0.331699 0.180481,8.547001 0.185089,18.256224 0.0046,9.709222 0.08083,17.72567 0.169372,17.814326 0.709485,0.710368 5.833269,1.420643 6.623726,0.918199 z m 9.573334,3.278118 c -0.124643,-0.32481 -0.06228,-0.417632 0.17999,-0.267901 0.266509,0.164711 0.287965,0.05694 0.07634,-0.383382 C 34.212469,89.395622 34.06787,84.512 34.053048,78.88 34.038232,73.248 33.929906,67.632 33.812334,66.4 c -0.117568,-1.232 -0.358758,-4.256 -0.535977,-6.72 -0.177219,-2.464 -0.535479,-5.635642 -0.796131,-7.048096 -0.727435,-3.941888 -0.730023,-5.70807 -0.0094,-6.42712 0.33335,-0.33263 0.759788,-0.61833 0.947641,-0.634886 0.187853,-0.01654 0.746925,-0.196554 1.242384,-0.4 C 35.156299,44.966454 36.011099,44.8 36.560398,44.8 c 0.549299,0 1.933767,-0.234499 3.076595,-0.52111 1.583501,-0.397127 2.215447,-0.435194 2.656103,-0.16 0.75863,0.473772 1.226915,0.457772 1.226915,-0.04191 0,-1.080752 2.854336,-2.088925 6.646665,-2.347654 2.62272,-0.178932 3.160672,-0.120116 4.64,0.507315 1.626441,0.689827 3.433334,2.079363 3.433334,2.640304 0,0.31063 3.545043,4.823078 3.92,4.989725 0.132,0.05867 0.24,0.382668 0.24,0.72 0,0.337334 0.110493,0.613334 0.245539,0.613334 0.752038,0 3.846166,11.13032 4.695699,16.891555 0.26695,1.810359 0.499917,5.272125 0.517709,7.692816 0.03218,4.379434 0.554201,8.116778 1.227801,8.790378 0.597962,0.597961 0.393248,1.384297 -0.461804,1.773885 C 67.53968,86.84312 67.038678,86.816762 66.56001,86.24 66.09728,85.682445 62.725965,85.562045 62.203594,86.084416 61.746419,86.54159 58.458141,86.574397 58.30777,86.123283 58.241156,85.923478 57.992368,85.76 57.754893,85.76 c -0.569942,0 -0.705459,-0.570266 -0.950557,-4 -0.113196,-1.584 -0.402566,-4.464 -0.643043,-6.4 -0.240476,-1.936 -0.526387,-5.032 -0.63536,-6.88 -0.258816,-4.389178 -0.761033,-7.670419 -1.305798,-8.531443 -0.240608,-0.380295 -0.925754,-0.852592 -1.522547,-1.049549 -0.966026,-0.318819 -1.292106,-0.25215 -2.971978,0.607626 -1.037792,0.531155 -2.062787,1.247379 -2.277763,1.591612 -0.214976,0.344231 -0.480592,1.677949 -0.590252,2.963815 -0.109661,1.285865 -0.309968,3.273939 -0.445124,4.417939 -0.486076,4.114272 -0.263788,12.692304 0.468519,18.08 0.185814,1.367059 -0.994403,2.29815 -3.27409,2.582979 -0.97863,0.122272 -2.802531,0.501354 -4.053113,0.842407 -3.234902,0.882201 -5.194953,1.025856 -5.435734,0.39839 z m 4.868611,-3.985747 c 0.293334,-9.6e-4 0.945795,-0.217085 1.449913,-0.48 0.504119,-0.262915 1.224119,-0.480234 1.6,-0.482928 1.595658,-0.01146 1.635962,-0.193405 1.252007,-5.652506 -0.448874,-6.382134 -0.302436,-10.095235 0.690547,-17.509622 0.43176,-3.223843 0.54678,-3.568746 1.523936,-4.569719 1.011376,-1.036025 4.096931,-2.895872 4.096931,-2.469462 0,0.112515 0.19815,0.04012 0.440336,-0.160874 0.620723,-0.515155 3.80527,0.352343 5.200751,1.416727 2.062288,1.572982 2.85096,4.394489 3.172672,11.350355 0.109891,2.376 0.318899,4.896 0.464464,5.6 0.145565,0.704 0.437495,2.864 0.648733,4.8 0.50065,4.588406 0.442054,4.438198 1.637971,4.199014 0.54729,-0.109459 1.661072,-0.198809 2.475072,-0.198563 l 1.48,3.2e-4 -0.08597,-4.240454 C 64.917147,72.234861 63.922638,65.442138 62.351762,59.679866 60.884421,54.297376 60.486616,53.390019 58.165749,50.131949 56.285221,47.492032 55.88533,47.132493 54.530908,46.863891 53.986914,46.75601 53.12605,46.310477 52.61788,45.873821 c -0.811084,-0.696944 -1.120243,-0.769232 -2.530918,-0.591795 -3.743712,0.470886 -4.457878,1.091212 -5.573017,4.840732 -0.373421,1.255591 -0.893827,2.461223 -1.156451,2.679181 -0.262624,0.217962 -0.477501,0.296375 -0.477501,0.174253 0,-0.122122 -0.235542,0.0135 -0.523427,0.301389 -0.820231,0.820227 -1.184768,0.123763 -1.380659,-2.637802 L 40.799998,48.16 l -1.12,0.09517 c -2.435353,0.206925 -3.931232,0.403449 -4.163478,0.546985 -0.133962,0.08279 -0.05947,1.124176 0.165523,2.314189 0.652422,3.450663 1.092742,7.607229 1.27544,12.039994 0.09331,2.263984 0.252307,4.250067 0.353328,4.41352 0.226886,0.367113 0.189014,18.154457 -0.03944,18.524105 -0.09066,0.146688 0.0902,0.410605 0.401898,0.586477 0.345264,0.194813 0.608412,0.202499 0.673395,0.01968 0.05867,-0.165056 0.346669,-0.300989 0.64,-0.302073 z M 18.161611,38.37527 C 17.854498,38.196374 17.160597,37.993984 16.619608,37.92552 15.315963,37.760534 12.947546,35.783718 12.127372,34.176045 11.020276,32.005958 10.844314,29.884072 11.601943,27.84 c 1.761902,-4.753585 5.485739,-7.671996 8.960911,-7.022764 2.312985,0.432113 3.18413,0.952309 2.976977,1.777675 -0.147482,0.587615 -0.017,0.750003 0.735464,0.91527 1.934062,0.424791 3.686039,3.232467 3.702976,5.934295 0.0087,1.381221 -0.189828,2.107268 -0.913812,3.342654 -1.039728,1.774163 -4.434012,5.221094 -5.564648,5.650963 -0.981983,0.373347 -2.64309,0.342086 -3.3382,-0.06282 z m 3.501454,-4.474806 c 2.014598,-1.521037 3.616934,-3.596255 3.616934,-4.684367 0,-1.511358 -0.83227,-2.553875 -2.215395,-2.775045 -1.37273,-0.219509 -2.642746,-1.277194 -2.374128,-1.977204 0.248737,-0.648196 -2.390246,-0.312896 -3.39316,0.431124 -1.039573,0.771217 -2.420485,2.7839 -2.833617,4.130005 -0.662883,2.159873 0.479202,4.592639 2.598434,5.53494 1.983326,0.881875 2.694461,0.779949 4.600932,-0.659453 z M 79.968099,63.6 c -0.01754,-0.22 -0.147191,-0.76 -0.288103,-1.2 -0.228653,-0.713968 -0.259635,-0.67095 -0.288102,0.4 -0.01754,0.66 0.112102,1.2 0.288102,1.2 0.176,0 0.305645,-0.18 0.288103,-0.4 z"
       style="fill:current;stroke-width:0.32" />
  </g>
</svg>
