<?xml version="1.0" encoding="UTF-8" standalone="no"?>
<svg
   xmlnsdc="http://purl.org/dc/elements/1.1/"
   xmlnscc="http://creativecommons.org/ns#"
   xmlnsrdf="http://www.w3.org/1999/02/22-rdf-syntax-ns#"
   xmlnssvg="http://www.w3.org/2000/svg"
   xmlns="http://www.w3.org/2000/svg"
   xmlnssodipodi="http://sodipodi.sourceforge.net/DTD/sodipodi-0.dtd"
   xmlnsinkscape="http://www.inkscape.org/namespaces/inkscape"
   inkscapeversion="1.0beta2 (2b71d25, 2019-12-03)"
   sodipodidocname="next.svg"
   viewBox="0 0 31.360001 49.599998"
   height="49.599998"
   width="31.360001"
   id="svg833"
   version="1.1">
  <metadata
     id="metadata839">
    <rdfRDF>
      <ccWork
         rdfabout="">
        <dcformat>image/svg+xml</dcformat>
        <dctype
           rdfresource="http://purl.org/dc/dcmitype/StillImage" />
        <dctitle></dctitle>
      </ccWork>
    </rdfRDF>
  </metadata>
  <defs
     id="defs837" />
  <sodipodinamedview
     inkscapecurrent-layer="g841"
     inkscapewindow-maximized="0"
     inkscapewindow-y="23"
     inkscapewindow-x="0"
     inkscapecy="24.799999"
     inkscapecx="15.68"
     inkscapezoom="12.681452"
     showgrid="false"
     id="namedview835"
     inkscapewindow-height="480"
     inkscapewindow-width="740"
     inkscapepageshadow="2"
     inkscapepageopacity="0"
     guidetolerance="10"
     gridtolerance="10"
     objecttolerance="10"
     borderopacity="1"
     inkscapedocument-rotation="0"
     bordercolor="#666666"
     pagecolor="#ffffff" />
  <g
     id="g841"
     inkscapelabel="Image"
     inkscapegroupmode="layer">
    <path
       inkscapeconnector-curvature="0"
       id="path845"
       d="m 3.2000001,48.479998 c -0.2191005,-0.264 -0.5967326,-0.48 -0.8391823,-0.48 -0.2424498,0 -0.4499455,-0.108 -0.4611015,-0.24 -0.2449607,-2.898403 -0.2460344,-2.893712 0.8739311,-3.818723 0.6001735,-0.495702 1.7696283,-1.512656 2.5987886,-2.259894 0.8291604,-0.747242 1.6217332,-1.359242 1.7612733,-1.36 0.1395402,-6.4e-4 0.9315402,-0.623245 1.7600001,-1.383303 C 9.7221693,38.178024 12.704,35.847195 15.52,33.758463 c 2.816001,-2.088732 5.624001,-4.176666 6.240001,-4.639852 0.616,-0.463186 1.732,-1.182875 2.48,-1.599309 0.748,-0.416435 1.359521,-0.910637 1.358935,-1.098228 C 25.597865,26.077968 17.264099,17.558812 10.58321,11.071314 5.5888197,6.2214954 2.3572581,2.3140201 2.7811816,1.6374118 3.5876001,0.35031743 5.7264027,1.1921635 7.4483228,3.4744277 7.9319926,4.1154923 9.6579849,5.9467972 11.283861,7.5439943 23.283458,19.331925 30.080001,26.247129 30.080001,26.668298 c 0,0.271662 -0.151601,0.587625 -0.336892,0.702141 -0.18529,0.114515 -0.278725,0.375014 -0.207633,0.578885 0.122702,0.35187 -0.720182,1.602815 -1.934319,2.870775 -0.305512,0.319055 -1.276755,1.081979 -2.158317,1.695388 -5.188962,3.610579 -11.68284,8.50574 -11.68284,8.806659 0,0.152819 -0.16792,0.277852 -0.373155,0.277852 -0.205236,0 -0.601236,0.208829 -0.88,0.464068 -2.211478,2.024822 -2.9622441,2.659049 -4.5068447,3.807257 -0.9680001,0.719581 -2.2330107,1.708905 -2.8111349,2.198502 -1.2077734,1.022826 -1.4405645,1.070835 -1.9888653,0.410173 z"
       style="fill:#000000;stroke-width:0.32" />
  </g>
</svg>
