<?xml version="1.0" encoding="UTF-8" standalone="no"?>
<svg
   xmlns:dc="http://purl.org/dc/elements/1.1/"
   xmlns:cc="http://creativecommons.org/ns#"
   xmlns:rdf="http://www.w3.org/1999/02/22-rdf-syntax-ns#"
   xmlns:svg="http://www.w3.org/2000/svg"
   xmlns="http://www.w3.org/2000/svg"
   xmlns:sodipodi="http://sodipodi.sourceforge.net/DTD/sodipodi-0.dtd"
   xmlns:inkscape="http://www.inkscape.org/namespaces/inkscape"
   inkscape:version="1.0beta2 (2b71d25, 2019-12-03)"
   sodipodi:docname="notebook_vert.png.svg"
   viewBox="0 0 282.79901 485.34472"
   height="485.34473"
   width="282.79901"
   id="svg833"
   version="1.1">
  <metadata
     id="metadata839">
    <rdf:RDF>
      <cc:Work
         rdf:about="">
        <dc:format>image/svg+xml</dc:format>
        <dc:type
           rdf:resource="http://purl.org/dc/dcmitype/StillImage" />
        <dc:title></dc:title>
      </cc:Work>
    </rdf:RDF>
  </metadata>
  <defs
     id="defs837" />
  <sodipodi:namedview
     inkscape:current-layer="g841"
     inkscape:window-maximized="0"
     inkscape:window-y="23"
     inkscape:window-x="0"
     inkscape:cy="200.26076"
     inkscape:cx="121.33801"
     inkscape:zoom="1.2543874"
     showgrid="false"
     id="namedview835"
     inkscape:window-height="782"
     inkscape:window-width="1057"
     inkscape:pageshadow="2"
     inkscape:pageopacity="0"
     guidetolerance="10"
     gridtolerance="10"
     objecttolerance="10"
     borderopacity="1"
     inkscape:document-rotation="0"
     bordercolor="#666666"
     pagecolor="#ffffff" />
  <g
     transform="translate(-15.203551,-9.0047456)"
     id="g841"
     inkscape:label="Image"
     inkscape:groupmode="layer">
    <path
       inkscape:connector-curvature="0"
       id="path845"
       d="m 151.97115,9.365118 c -0.50353,0.38572 -0.54449,0.74332 -1.12615,9.82982 -0.0732,1.144 -0.1869,2.512 -0.25259,3.04 -0.0657,0.528 -0.13586,1.48438 -0.15592,2.12531 -0.0381,1.21747 -0.3649,1.4377 -2.59649,1.74983 -0.44,0.0615 -1.808,0.27158 -3.04,0.46672 -1.232,0.19516 -2.83328,0.28988 -3.5584,0.21049 -1.52205,-0.16665 -2.3616,0.19379 -2.3616,1.01395 0,1.21773 0.97605,1.61968 3.50489,1.44333 1.29954,-0.0906 2.62954,-0.30752 2.95557,-0.48198 0.32602,-0.1745 0.73081,-0.23194 0.89954,-0.12765 0.16873,0.10429 0.56175,0.0557 0.87339,-0.10803 0.31163,-0.16371 1.17861,-0.39904 1.92661,-0.52295 l 1.36,-0.22528 v 1.12333 c 0,0.98464 -0.12897,1.16586 -1.04482,1.46813 -0.57465,0.18963 -2.74797,0.33414 -4.82962,0.32109 -3.60971,-0.0227 -4.40734,0.0886 -3.94574,0.55021 0.40419,0.40419 8.02131,0.0999 8.93723,-0.35696 0.64045,-0.31952 0.88633,-0.33738 0.89525,-0.065 0.007,0.20653 0.0679,1.16749 0.13589,2.13549 0.068,0.968 0.22191,4.64 0.34209,8.16 0.12018,3.52 0.32365,7.48 0.45215,8.8 0.1285,1.32 0.10999,2.44902 -0.0411,2.5089 -0.15112,0.0599 -0.50465,0.55347 -0.78563,1.09683 -0.46878,0.90653 -0.46823,1.01904 0.007,1.36637 0.28468,0.20816 0.5176,0.77731 0.5176,1.2648 0,0.86118 0.0409,0.88172 1.44,0.72403 1.08815,-0.12266 1.44,-0.0546 1.44,0.27837 0,0.2424 0.108,0.44896 0.24,0.45907 0.132,0.0102 0.83232,0.0801 1.55628,0.15545 1.0085,0.10503 1.49486,-0.0186 2.08,-0.52889 0.42004,-0.36631 1.15763,-0.87088 1.63908,-1.12128 1.04764,-0.5449 1.41012,-1.70349 0.85533,-2.73386 -0.30595,-0.56822 -0.4232,-4.54681 -0.4842,-16.42979 -0.0443,-8.624 -0.15426,-16.04 -0.24444,-16.48 -0.27886,-1.36051 -0.8605,-6.02186 -0.7859,-6.29824 0.0389,-0.14397 -0.0396,-0.58576 -0.17432,-0.98176 -0.27144,-0.79782 -1.07116,-0.93232 -1.90272,-0.32 -0.45879,0.33782 -0.48892,0.57405 -0.19392,1.52 0.32038,1.02726 0.60272,3.1529 1.14175,8.59562 0.18758,1.89398 0.15956,2.02268 -0.40267,1.84979 -0.35669,-0.1097 -0.93205,0.074 -1.40427,0.44838 -0.78271,0.62051 -0.78658,0.64451 -0.17884,1.11021 0.34164,0.26179 0.87314,0.476 1.18111,0.476 0.30798,0 0.67114,0.1799 0.80703,0.39978 0.13588,0.21987 0.29553,2.95587 0.35475,6.08 0.10214,5.38729 0.0766,5.68022 -0.49484,5.68022 -0.3314,0 -0.69345,-0.0909 -0.80456,-0.20202 -0.11111,-0.1111 -0.70708,-0.23267 -1.32438,-0.27014 -0.81824,-0.0497 -1.3112,0.13286 -1.81925,0.67366 -0.76496,0.81424 -0.78923,0.79277 1.48855,1.31757 0.82488,0.19005 1.54669,0.1824 2.00307,-0.0211 0.39242,-0.1751 0.76974,-0.25974 0.8385,-0.18809 0.0687,0.0716 0.19141,2.88998 0.27257,6.26294 l 0.14756,6.1327 -1.15564,-0.15971 c -0.6356,-0.0878 -1.57854,-0.29341 -2.09543,-0.45686 -0.60765,-0.19216 -1.05439,-0.18263 -1.264,0.0269 -0.57796,0.57795 -0.74809,0.34777 -0.65974,-0.89251 0.0477,-0.66919 -0.0367,-2.36119 -0.18742,-3.76 -0.39879,-3.70042 -0.57291,-22.9112 -0.2551,-28.1433 0.14968,-2.464 0.48715,-5.416 0.74993,-6.56 0.60437,-2.63098 0.5983,-2.8767 -0.0839,-3.39456 -0.68597,-0.5207 -0.75296,-0.5224 -1.38886,-0.0353 z m 115.82961,2.51056 c -1.03895,1.0784 -1.97266,2.3384 -2.07491,2.8 -0.10224,0.4616 -0.37138,1.27126 -0.59808,1.79926 -0.22671,0.528 -0.58665,1.50691 -0.79988,2.17539 -0.21322,0.66845 -0.67189,1.48016 -1.01926,1.80378 -0.81905,0.76307 -0.72679,2.99901 0.13044,3.16144 0.3487,0.0661 0.66705,-0.17373 0.84605,-0.63731 0.15784,-0.40884 0.66226,-1.09239 1.12093,-1.51908 0.45867,-0.42668 0.83884,-0.93068 0.84481,-1.12 0.006,-0.18931 0.28908,-0.92022 0.62914,-1.62422 0.34006,-0.704 0.62317,-1.53485 0.62914,-1.84637 0.0131,-0.6864 1.58388,-3.24729 1.83667,-2.99449 0.22097,0.22099 -0.47815,12.84057 -0.90639,16.36086 -0.35499,2.91818 -0.77979,6.9665 -1.0745,10.24 -0.53361,5.92717 -0.77155,8.04211 -0.95839,8.51875 -0.22948,0.58541 0.66772,1.65651 1.23047,1.46893 0.45122,-0.15043 0.87332,-2.87674 1.32338,-8.54768 0.48433,-6.10272 0.71621,-7.96237 1.2768,-10.24 0.23825,-0.968 0.51096,-3.97648 0.60601,-6.6855 0.1647,-4.69402 0.21348,-4.98416 1.03791,-6.1738 0.4758,-0.68659 1.03108,-1.35011 1.23398,-1.47452 0.20289,-0.12439 0.85349,-0.94618 1.44578,-1.82618 1.03211,-1.53344 1.53206,-2.06448 1.95365,-2.0751 0.10698,-0.003 0.15361,1.3271 0.10363,2.9551 -0.39091,12.73104 -0.52746,15.30874 -0.88473,16.70128 l -0.40568,1.58128 -1.90387,-0.0881 c -1.04712,-0.0485 -2.03931,-0.11204 -2.20486,-0.14128 -0.16554,-0.0291 -0.3561,0.19878 -0.42346,0.50678 -0.10763,0.49213 0.1521,0.56 2.14323,0.56 h 2.2657 l -0.18306,2.32 c -0.10068,1.276 -0.31769,3.28358 -0.48224,4.46131 -0.16454,1.1777 -0.30129,2.8337 -0.30388,3.68 -0.004,1.31479 -1.20971,6.09197 -1.25808,4.9848 -0.029,-0.66281 -1.39716,-0.78541 -2.69828,-0.24176 -0.6785,0.28349 -1.42141,0.44339 -1.6509,0.35533 -0.70646,-0.27107 -2.15687,1.32278 -1.95082,2.14378 0.10882,0.43356 -0.0674,1.09097 -0.44663,1.6663 -0.3445,0.52262 -0.62731,1.18544 -0.62847,1.47293 -0.003,0.64992 1.25417,1.01536 1.8348,0.53347 0.31743,-0.26342 0.52733,-0.25994 0.80065,0.0134 0.46209,0.46208 1.73439,0.48416 2.01204,0.0349 0.14376,-0.23258 0.33556,-0.22915 0.62521,0.0112 0.2298,0.19072 0.61298,0.30573 0.85151,0.25555 0.23991,-0.0505 0.38784,0.11776 0.33109,0.37655 -0.11802,0.53811 0.78866,1.29878 1.52375,1.27836 0.27436,-0.008 1.05653,-0.87164 1.73816,-1.92 0.68162,-1.04838 1.43256,-1.90614 1.66874,-1.90614 0.23618,0 0.58571,-0.29203 0.77674,-0.64896 0.19102,-0.35693 0.48409,-0.56445 0.65125,-0.46112 0.44866,0.27728 0.36961,-1.2424 -0.096,-1.84662 -0.47528,-0.61671 -1.14373,-0.75831 -1.94151,-0.41127 -1.05314,0.45811 -1.34735,-0.27117 -0.93272,-2.31206 0.47723,-2.34899 0.92915,-6.36592 1.53905,-13.67997 0.1174,-1.408 0.33203,-2.78794 0.47695,-3.0665 0.14492,-0.27859 0.3577,-1.93459 0.47283,-3.68 0.11514,-1.74544 0.29739,-3.31699 0.405,-3.49238 0.15002,-0.24448 0.38522,-8.00326 0.41514,-13.69453 0.003,-0.54582 -1.18684,-1.79337 -1.73172,-1.81593 -0.60623,-0.0253 -2.47137,1.55312 -3.58182,3.03088 -0.66063,0.87916 -1.31542,1.72352 -1.45509,1.87638 -0.13966,0.15283 -0.23574,-0.49517 -0.21351,-1.44 0.0472,-2.00637 -0.0788,-2.53408 -0.7326,-3.06659 -0.83738,-0.68208 -1.30476,-0.45853 -3.23924,1.54941 z m -138.47128,0.15264 c -0.48574,0.34019 -0.68948,0.81849 -0.68948,1.61859 0,0.62461 -0.2298,2.02045 -0.51066,3.10185 -0.28086,1.08138 -0.55267,2.75818 -0.60402,3.72618 -0.0513,0.968 -0.18897,2.768 -0.30584,4 -0.11686,1.232 -0.27694,2.93757 -0.35571,3.79011 -0.0788,0.85258 -0.21314,1.66327 -0.29858,1.80151 -0.0854,0.13824 -0.21887,2.28112 -0.2965,4.76195 -0.0776,2.48086 -0.20983,4.62217 -0.29377,4.75853 -0.0839,0.13635 -0.25456,3.1279 -0.37916,6.6479 -0.2249,6.35341 -0.38047,7.22714 -1.45489,8.17056 -0.96305,0.84563 -0.44673,2.14701 1.13832,2.86909 0.77115,0.35129 1.4345,0.90166 1.53086,1.27014 0.20502,0.784 1.22165,0.85386 2.28517,0.15703 0.67801,-0.44426 0.80163,-0.44426 1.24588,0 0.67571,0.67571 1.41531,0.61836 1.89316,-0.14682 0.21983,-0.352 0.56874,-0.64 0.77536,-0.64 0.20661,0 0.75616,-0.68077 1.2212,-1.51283 0.68225,-1.22067 0.78155,-1.65328 0.51422,-2.24 -0.36271,-0.79607 -1.27014,-0.95408 -1.89436,-0.32986 -0.31331,0.31331 -0.44865,0.31431 -0.64001,0.005 -0.15459,-0.25011 -0.74407,-0.34278 -1.62389,-0.25526 -1.06377,0.10582 -1.60264,-0.024 -2.34466,-0.56464 l -0.96344,-0.70208 0.21188,-5.6 c 0.28181,-7.44848 0.49849,-10.87101 0.87114,-13.76 0.17026,-1.32 0.3728,-3.264 0.45007,-4.32 0.41884,-5.72368 1.24365,-12.06096 1.77917,-13.66992 0.75769,-2.27645 0.76026,-2.70666 0.0185,-3.10362 -0.42505,-0.22745 -0.78374,-0.1807 -1.28,0.16691 z m -87.560322,0.32316 c -0.277382,0.27741 -0.494483,1.06807 -0.501459,1.82631 -0.0068,0.73542 -0.09087,2.20115 -0.186896,3.25715 -0.09603,1.056 -0.175897,2.136 -0.177485,2.4 -0.0016,0.264 -0.151088,1.776 -0.332217,3.36 -0.18113,1.584 -0.370954,6.84 -0.421831,11.68 -0.0977,9.29424 -0.335542,16.05517 -0.602259,17.12 -0.08817,0.352 -0.486592,0.784 -0.885389,0.96 -0.987785,0.43594 -1.480604,2.18672 -0.805548,2.86179 0.274016,0.27402 0.637091,0.49821 0.806832,0.49821 0.363776,0 0.697094,0.76854 0.697094,1.6073 0,0.8192 0.496874,1.0518 1.313386,0.61484 0.517414,-0.27692 0.856819,-0.27638 1.377305,0.003 0.545463,0.29191 0.890301,0.26557 1.64,-0.12537 0.522119,-0.27226 1.131264,-0.49591 1.353651,-0.49696 0.222388,0 0.654388,-0.12919 0.96,-0.28464 0.305613,-0.15549 0.951658,-0.46781 1.435658,-0.69408 0.484,-0.22627 0.88,-0.59491 0.88,-0.8192 0,-0.22426 0.263325,-0.59594 0.585168,-0.82592 0.834093,-0.59603 1.437827,-2.46848 0.975517,-3.02551 C 49.464259,51.766638 48.32,51.684048 48.32,52.155758 c 0,0.176 -0.2124,0.32 -0.472,0.32 -0.337242,0 -0.429997,-0.25123 -0.324883,-0.88 0.08091,-0.484 0.215859,-4.264 0.299875,-8.4 0.08402,-4.136 0.307904,-8.456 0.497523,-9.6 0.189623,-1.144 0.406679,-4.6 0.482352,-7.68 0.164263,-6.68563 0.370675,-8.48784 1.049949,-9.1671 0.467299,-0.4673 0.557862,-0.45194 1.070746,0.18144 0.944844,1.16682 1.943168,4.23322 2.116838,6.50195 0.171181,2.23616 0.582554,2.95901 1.486576,2.6121 0.389386,-0.14941 0.485488,-0.46605 0.365888,-1.20551 -0.08922,-0.55158 -0.238672,-1.79488 -0.332125,-2.76288 -0.182579,-1.89116 -0.439366,-2.94425 -0.780297,-3.2 -0.117316,-0.088 -0.4721,-0.84998 -0.788413,-1.69328 -0.596791,-1.5911 -1.463111,-2.39142 -2.863431,-2.64534 -0.905622,-0.16422 -1.961385,0.71987 -2.50614,2.09862 -0.740151,1.87332 -1.251962,5.652 -1.048877,7.74384 0.232057,2.39031 -0.0614,4.84327 -0.543754,4.54516 -0.172403,-0.10656 -0.240733,-0.38324 -0.151849,-0.61488 0.21111,-0.55015 -0.722234,-0.90215 -1.243956,-0.46916 -0.759075,0.62999 -0.780806,1.57959 -0.04516,1.97332 0.380125,0.20342 0.727136,0.34553 0.771136,0.3158 0.384586,-0.25996 0.72,0.0876 0.72,0.74592 0,0.5753 -0.172413,0.8 -0.613827,0.8 -0.836051,0 -1.626173,0.32759 -1.626173,0.67424 0,0.15716 0.43601,0.28576 0.968912,0.28576 h 0.968912 l -0.212666,2.16 c -0.116966,1.188 -0.255273,2.21031 -0.30735,2.27178 -0.05207,0.0615 -0.702627,0.009 -1.445667,-0.11648 l -1.350986,-0.22826 0.258163,-7.24352 c 0.141994,-3.98393 0.300058,-8.03552 0.351258,-9.00352 0.0512,-0.968 0.111411,-2.264 0.133805,-2.88 l 0.04071,-1.12 0.423415,1.15008 c 0.740384,2.01101 1.453209,3.16992 1.94975,3.16992 0.712666,0 0.923818,-0.88243 0.445171,-1.86041 -0.231385,-0.47277 -0.863974,-2.13971 -1.40575,-3.70429 -1.060336,-3.06214 -1.884131,-3.88314 -2.888522,-2.87875 z m 3.447136,25.70064 c 0.306333,0.29572 0.29929,-0.11625 0.135536,7.92967 -0.09392,4.61446 -0.248851,6.60809 -0.540905,6.96 -0.458842,0.55286 -1.290925,0.66448 -1.290925,0.17315 0,-0.176 -0.376842,-0.32 -0.837427,-0.32 h -0.837424 l 0.197574,-3.6 c 0.108669,-1.98 0.233511,-4.38435 0.277427,-5.34298 l 0.07985,-1.74297 1.12,-0.017 c 1.027328,-0.0157 1.12,-0.0965 1.12,-0.97703 0,-0.7358 -0.149472,-0.96761 -0.64,-0.9926 -1.381085,-0.0704 -1.44,-0.12944 -1.44,-1.44301 v -1.31562 l 1.2,0.22051 c 0.66,0.12128 1.315331,0.33184 1.456294,0.46791 z M 177.25473,12.522168 c -0.21134,0.39488 -0.42869,1.80579 -0.483,3.13536 -0.0543,1.32957 -0.24953,3.02339 -0.43384,3.764 -0.1843,0.74064 -0.30553,1.60464 -0.26939,1.92 0.0361,0.31539 -0.0562,2.21107 -0.20511,4.21267 l -0.27082,3.6393 -2.27629,-0.19955 c -1.25195,-0.10976 -3.17628,-0.28874 -4.27628,-0.39773 -1.22152,-0.12106 -2,-0.0767 -2,0.11386 0,0.29417 2.42525,0.6336 6.4,0.89574 0.968,0.0638 1.83584,0.12349 1.92854,0.13261 0.0927,0.009 0.0535,1.13251 -0.0872,2.49651 -0.14063,1.364 -0.31698,3.35043 -0.3919,4.41427 -0.0749,1.06384 -0.29506,2.92867 -0.48923,4.14407 -0.19416,1.21542 -0.32525,4.30499 -0.29131,6.86576 0.0577,4.3511 0.0134,4.73683 -0.67664,5.89219 l -0.73835,1.23629 1.33733,1.23484 c 1.09843,1.01428 1.50112,1.20208 2.25421,1.05149 0.50428,-0.10086 1.00523,-0.0404 1.11322,0.13431 0.2257,0.36518 3.25007,0.17024 4.0568,-0.26154 0.29612,-0.15846 0.93165,-1.11869 1.41228,-2.13379 0.74064,-1.56423 0.81279,-1.94346 0.47325,-2.48717 -0.37073,-0.59363 -0.42215,-2.49798 -0.14286,-5.29072 0.0616,-0.616 0.20481,-2.56 0.31823,-4.32 0.11343,-1.76 0.3528,-5 0.53195,-7.2 0.17915,-2.2 0.3823,-4.864 0.45144,-5.92 0.0692,-1.056 0.19699,-2.64 0.28411,-3.52 0.0871,-0.88 0.24425,-3.27699 0.3492,-5.32669 l 0.19082,-3.72669 -0.86011,-0.7975 c -0.78337,-0.7264 -0.91119,-0.75379 -1.43278,-0.3072 -0.51529,0.44118 -0.53075,0.62963 -0.1543,1.88048 0.32149,1.06826 0.34729,2.18762 0.11137,4.83389 -0.16885,1.89405 -0.37219,4.52371 -0.45187,5.84371 -0.0797,1.32 -0.25355,3.336 -0.38639,4.48 l -0.24153,2.08 -1.35416,-0.0858 c -1.79542,-0.11379 -1.74281,0.46829 0.0668,0.73968 l 1.42102,0.21309 -0.12291,1.80649 c -0.0676,0.9936 -0.2042,3.53453 -0.30354,5.64653 -0.33049,7.02598 -0.48912,8.16 -1.1414,8.16 -0.31947,0 -0.63174,0.15264 -0.69392,0.3392 -0.0735,0.22035 -0.43818,0.17056 -1.04098,-0.14218 -0.65859,-0.34169 -1.09877,-0.38998 -1.51662,-0.16633 -0.4782,0.2559 -0.64447,0.16841 -0.88569,-0.46605 -0.50914,-1.33914 -0.50445,-9.2743 0.007,-11.17219 0.18185,-0.67536 0.29904,-1.47194 0.26041,-1.77018 -0.0386,-0.29824 0.0305,-1.19027 0.15366,-1.98227 0.12313,-0.792 0.25873,-1.944 0.30134,-2.56 0.0426,-0.616 0.21776,-1.13587 0.38923,-1.1553 0.17148,-0.0195 0.77978,-0.1454 1.35178,-0.28 1.5157,-0.35664 1.30315,-0.9054 -0.24911,-0.64316 l -1.28911,0.21779 0.0522,-1.86967 c 0.0287,-1.02832 0.15972,-2.08566 0.29119,-2.34966 0.13148,-0.264 0.32312,-1.704 0.42587,-3.2 0.23049,-3.35574 1.05137,-10.22944 1.29933,-10.88 0.23912,-0.62739 -0.12122,-1.14099 -0.99084,-1.41226 -0.53063,-0.1655 -0.79369,-0.0444 -1.08476,0.49949 z M 74.08,12.399838 c -0.68416,0.50265 -1.086083,1.69248 -1.41631,4.19283 -0.625956,4.73945 -0.94649,7.53449 -1.142474,9.96227 -0.404598,5.012 -0.530845,6.3001 -0.815459,8.32 -0.161194,1.144 -0.295933,2.74 -0.299418,3.54666 -0.0068,1.58492 -0.227417,2.04361 -0.776896,1.61558 -0.780467,-0.60794 -2.28007,-0.63766 -3.045385,-0.0604 -0.855607,0.64537 -0.732573,1.6151 0.2059,1.62284 0.313524,0.003 0.930042,0.18794 1.370042,0.41184 0.692179,0.35226 0.864694,0.32791 1.28,-0.18073 0.430595,-0.52739 0.48,0.0147 0.48,5.26816 v 5.85605 l -1.548906,-0.0805 c -1.144144,-0.0595 -1.758144,0.0841 -2.349616,0.54934 l -0.800716,0.62986 -0.798826,-0.94938 c -0.439357,-0.52212 -1.083494,-0.94932 -1.431421,-0.94932 -0.91272,0 -1.870515,0.58502 -1.870515,1.14253 0,0.264 -0.233034,0.83565 -0.517853,1.27033 -0.417091,0.63655 -0.440598,0.88343 -0.120819,1.26874 0.218371,0.26314 0.595405,0.4784 0.837853,0.4784 0.247142,0 0.440819,0.32461 0.440819,0.73885 0,0.87046 0.801872,2.08595 1.147869,1.73993 0.132105,-0.13209 0.50528,-2.8e-4 0.82927,0.29293 0.507987,0.45971 0.698778,0.4744 1.385971,0.10663 0.658848,-0.35261 0.932688,-0.3538 1.580826,-0.007 0.639642,0.34233 0.965616,0.34432 1.770982,0.0109 1.058048,-0.43828 3.090676,-2.573 4.134567,-4.34228 0.573296,-0.97164 0.589174,-1.13545 0.15239,-1.57225 -0.268176,-0.26816 -0.587331,-0.48759 -0.709238,-0.48759 -0.33,0 -0.178775,-9.60515 0.208288,-13.2295 0.184992,-1.73222 0.264144,-3.33766 0.175897,-3.56762 -0.08825,-0.22998 -0.0066,-0.51321 0.181364,-0.6294 0.193286,-0.11946 0.345212,-1.28068 0.349638,-2.67236 0.0043,-1.35363 0.134432,-3.03712 0.289181,-3.74112 0.154745,-0.704 0.367936,-2.72 0.473757,-4.48 0.225296,-3.74707 0.827468,-7.55888 1.161504,-7.35241 0.256086,0.15827 0.662716,2.45718 0.790534,4.46934 0.04461,0.70231 -0.09809,1.96778 -0.317117,2.81213 -0.372121,1.43459 -0.355238,1.55824 0.257504,1.88618 0.553843,0.29641 0.777859,0.20896 1.441655,-0.56276 0.76696,-0.89164 0.78086,-1.00268 0.576288,-4.60307 -0.311946,-5.49001 -1.002311,-8.00851 -2.365556,-8.62966 -0.874592,-0.39847 -0.791289,-0.39187 -1.195574,-0.0949 z m 147.06712,1.29539 c -1.22042,1.3352 -2.71832,4.05424 -3.84971,6.98809 -0.21388,0.55463 -0.70129,1.28896 -1.08314,1.63188 -0.95348,0.85625 -4.46799,1.76806 -6.70418,1.73939 -1.27344,-0.0163 -1.82589,0.0953 -1.77286,0.3583 0.0424,0.21011 -0.0951,0.69267 -0.30546,1.07235 -0.34453,0.62176 -0.28751,0.72343 0.57427,1.02384 0.74637,0.2602 1.49864,0.19162 3.42077,-0.31184 1.3552,-0.35494 2.59187,-0.72441 2.74817,-0.82099 0.1563,-0.0966 1.15997,-0.22704 2.23038,-0.28985 2.01055,-0.11796 2.59457,-0.49911 2.2857,-1.49168 -0.0959,-0.30813 0.12341,-0.97834 0.4873,-1.48941 0.36391,-0.51104 0.66164,-1.08445 0.66164,-1.27424 0,-0.18983 0.51031,-1.24759 1.13403,-2.35063 l 1.13402,-2.0055 -0.20326,1.6 c -0.11179,0.88 -0.32833,2.104 -0.48119,2.72 -0.35457,1.42886 -0.99484,6.66886 -1.09481,8.96 -0.12803,2.93427 -1.08659,14.2329 -1.24989,14.73261 -0.34387,1.05229 -0.49198,7.69654 -0.18931,8.49261 0.25309,0.66569 0.191,1.05446 -0.29529,1.84886 -0.33868,0.55325 -0.66494,1.35802 -0.72504,1.78835 -0.0953,0.68227 0.0546,0.81808 1.17074,1.06083 0.704,0.15312 2.072,0.31056 3.04,0.34989 0.968,0.0393 2.00094,0.18509 2.29543,0.32397 0.56554,0.26669 1.03082,-0.15869 3.27821,-2.99712 1.28381,-1.62144 1.45074,-2.54032 0.50636,-2.7873 -0.67188,-0.17568 -0.8356,-0.57404 -0.3574,-0.8696 0.15543,-0.0961 0.38255,-1.00454 0.5047,-2.01888 0.12216,-1.01433 0.49139,-3.14022 0.82052,-4.72422 0.32912,-1.584 0.63657,-3.312 0.6832,-3.84 0.0466,-0.528 0.19801,-1.1185 0.3364,-1.31219 0.13838,-0.19373 0.31485,-5.3889 0.39215,-11.54483 0.0773,-6.15597 0.23783,-11.58029 0.35674,-12.05402 0.23012,-0.9169 -0.36234,-2.76896 -0.88576,-2.76896 -0.17149,0 -0.75109,0.252 -1.288,0.56 -1.37068,0.7863 -3.76255,5.89827 -3.76255,8.04141 0,2.04115 0.52091,2.68585 2.17012,2.68585 0.90573,0 1.37555,0.15805 1.50981,0.50794 0.29636,0.77232 -0.0976,12.42112 -0.49389,14.6048 -0.19166,1.056 -0.47587,2.856 -0.63159,4 -0.15571,1.144 -0.43073,2.656 -0.61115,3.36 -0.18042,0.704 -0.33147,1.73773 -0.33566,2.29715 -0.004,0.55943 -0.22364,1.23312 -0.48764,1.49712 -0.65085,0.65085 -0.60632,1.48343 0.08,1.49591 0.51235,0.009 0.50834,0.0493 -0.0471,0.46976 -0.70143,0.53094 -1.20725,0.35414 -0.94465,-0.33018 0.0992,-0.25837 0.0209,-0.46976 -0.17397,-0.46976 -0.19484,0 -0.35424,0.14627 -0.35424,0.32509 0,0.3975 -1.84261,0.32205 -2.7134,-0.11111 -0.75576,-0.37593 -1.46584,-1.04806 -1.29147,-1.22246 0.0686,-0.0685 0.28896,-2.6417 0.48976,-5.71808 0.3858,-5.9104 0.53734,-8.01382 0.78336,-10.87344 0.0833,-0.968 0.30063,-3.632 0.483,-5.92 0.35629,-4.46986 0.52241,-5.63046 0.98481,-6.88 0.16282,-0.44 0.5064,-2.2255 0.7635,-3.96778 0.4097,-2.77628 0.40978,-3.27932 6.4e-4,-4.07049 -0.87157,-1.68544 -1.46821,-1.68973 -2.99308,-0.0214 z m 7.80417,5.53936 c -0.36477,1.6608 -0.42129,2.00995 -0.44681,2.76035 -0.0281,0.82739 -0.30004,0.89702 -1.13073,0.28963 -0.54356,-0.39747 -0.55099,-0.50147 -0.0972,-1.36 0.27024,-0.51129 0.64849,-1.32563 0.84055,-1.80963 0.49017,-1.23523 1.11221,-1.14602 0.83422,0.11965 z m 14.46379,-5.23965 c -2.71703,2.71469 -4.5374,5.88186 -4.18581,7.28269 0.23616,0.94093 0.24936,0.944 1.24586,0.29107 0.90348,-0.59197 2.24036,-2.66102 2.12314,-3.28589 -0.0446,-0.23763 0.0603,-0.34473 0.233,-0.23798 0.17274,0.10675 0.65037,-0.34679 1.0614,-1.00791 l 0.74733,-1.20198 0.11427,0.96 c 0.12869,1.08122 -0.53077,6.00774 -0.95572,7.13971 -0.15273,0.40682 -0.49706,4.29482 -0.76518,8.64 -0.26813,4.34515 -0.70032,9.23075 -0.96043,10.85683 -0.26012,1.62612 -0.47294,3.66013 -0.47294,4.52 0,2.4081 -0.30605,3.44784 -1.14738,3.89812 -2.55112,1.36531 -0.052,4.25945 3.15811,3.65721 0.79269,-0.1487 1.22855,-0.0329 1.82594,0.48525 0.44987,0.39018 1.04336,0.61293 1.39089,0.52205 0.3334,-0.0872 0.86129,0 1.17308,0.19549 0.45358,0.28326 0.75174,0.20096 1.49163,-0.41181 2.29026,-1.89674 2.96459,-3.39424 1.79674,-3.99011 -0.42689,-0.21783 -0.59568,-0.48064 -0.42241,-0.65776 0.15872,-0.16224 0.33466,-3.85888 0.39099,-8.21479 0.0563,-4.35587 0.18298,-7.91987 0.28145,-7.92 0.21865,-2.2e-4 0.87714,-5.52749 1.11785,-9.38291 0.0969,-1.55251 0.32008,-3.20109 0.4959,-3.66352 0.17582,-0.46246 0.28076,-2.59734 0.23319,-4.74419 -0.0732,-3.30378 -0.17206,-3.9568 -0.64358,-4.25127 -0.86718,-0.54156 -1.38644,-0.15558 -3.00314,2.23232 -1.36596,2.01757 -1.48693,2.34746 -1.33973,3.65344 0.089,0.78957 0.33404,1.64311 0.54454,1.89674 0.48222,0.58106 1.39861,0.26835 1.14562,-0.39094 -0.2614,-0.68119 0.4514,-2.68989 0.90059,-2.53789 0.41482,0.14038 0.47361,2.68067 0.12008,5.18803 -0.12408,0.88 -0.36772,3.63254 -0.54143,6.11674 -0.1737,2.48422 -0.39997,4.73606 -0.50283,5.00409 -0.20809,0.54227 -1.79311,0.96384 -2.5426,0.67623 -0.30301,-0.11626 -0.4835,0 -0.4835,0.30982 0,0.78026 0.48194,0.8865 1.70437,0.37574 1.09371,-0.45699 1.13616,-0.44873 1.24376,0.24212 0.0613,0.3934 0.0131,1.21926 -0.10708,1.83526 -0.12016,0.616 -0.29254,3.76806 -0.38306,7.00461 -0.16922,6.05037 -0.28374,6.52563 -1.49603,6.20861 -0.31196,-0.0816 -1.0069,0.0791 -1.54431,0.35696 -1.04335,0.53955 -1.75513,0.41235 -2.6391,-0.47162 -0.48838,-0.48838 -0.52005,-0.94147 -0.28134,-4.02445 0.46331,-5.98393 0.81647,-7.49875 1.39609,-5.98832 0.11097,0.28919 0.28518,0.4424 0.38714,0.34045 0.10195,-0.10195 0.54808,-0.0475 0.99139,0.12106 0.55242,0.21004 0.94479,0.19129 1.24709,-0.0596 0.74753,-0.62041 0.49213,-1.25293 -0.59892,-1.48333 -1.12333,-0.23718 -1.08419,-0.2391 -1.94163,0.0944 -0.54794,0.21315 -0.57048,0.0154 -0.38921,-3.41629 0.36395,-6.88957 0.64038,-9.32343 1.6494,-14.52253 0.63374,-3.26538 1.03135,-8.79117 0.68502,-9.52 -0.49543,-1.04262 -1.63544,-0.63139 -3.5485,1.28 z M 65.856662,13.357468 c -0.808646,1.36893 -1.777395,6.2024 -2.19616,10.95747 -0.209244,2.376 -0.537913,4.51664 -0.730374,4.75702 -0.270522,0.33783 -0.96943,0.39162 -3.080029,0.237 -3.992137,-0.29245 -5.790864,-0.53693 -7.050099,-0.95828 -1.680214,-0.56217 -2.24,-0.33651 -2.24,0.90295 0,1.04118 0.01856,1.05401 1.84,1.27529 2.986339,0.36282 8.370733,0.49226 8.547949,0.20551 0.266048,-0.43047 2.441581,0.71088 2.341824,1.22861 -0.04938,0.25622 -0.521773,0.58675 -1.049773,0.73446 -0.989942,0.27696 -5.941075,0.33021 -9.221549,0.0992 -1.306915,-0.092 -1.825081,-0.0218 -1.739149,0.23613 0.06732,0.20195 0.488007,0.46496 0.934858,0.58448 1.024083,0.27389 7.64313,0.1432 9.503133,-0.18762 l 1.397293,-0.24851 -0.167674,2.90951 c -0.184861,3.20777 -0.357235,3.72592 -1.13928,3.42448 -0.507728,-0.19572 -7.42215,-0.61805 -10.18888,-0.62234 -1.618566,-0.003 -1.864966,0.19357 -1.380547,1.09872 0.320413,0.59872 0.543469,0.66218 1.662774,0.47306 0.711594,-0.12023 1.599818,-0.0731 1.975869,0.10476 0.577747,0.27332 2.905683,0.61821 7.723152,1.14423 l 0.96,0.10483 -0.109408,2.2863 c -0.160323,3.35031 0.488029,6.60778 1.413805,7.10324 1.195481,0.6398 1.735603,0.1966 1.735603,-1.42413 0,-0.78714 -0.140746,-1.51815 -0.312771,-1.62445 -0.406826,-0.25146 -0.413101,-8.1561 -0.01043,-13.12448 0.171174,-2.112 0.457952,-6.288 0.63728,-9.28 0.179331,-2.992 0.381046,-5.728 0.448256,-6.08 0.06721,-0.352 0.223833,-1.252 0.348054,-2 0.258157,-1.5545 0.676333,-1.76893 0.936103,-0.48 0.605187,3.00285 1.164179,6.95254 1.109686,7.84074 -0.03507,0.57161 0.04237,1.36396 0.172093,1.76083 0.16879,0.51641 0.0931,0.77635 -0.266218,0.91424 -0.736502,0.28262 -0.611814,1.00681 0.217936,1.26576 0.396,0.12358 0.806263,0.35862 0.911696,0.5223 0.105434,0.16368 0.429811,-0.68374 0.720839,-1.88313 0.544281,-2.24314 0.692771,-4.62877 0.311817,-5.00973 -0.118605,-0.11859 -0.244451,-0.53859 -0.279657,-0.93331 -0.184932,-2.07348 -1.119268,-6.09204 -1.631924,-7.01885 -1.337548,-2.41811 -2.181884,-2.77626 -3.056108,-1.29632 z m 22.194698,0.37734 c -0.806701,1.11363 -0.945059,1.66157 -1.191789,4.72 -0.153523,1.90307 -0.273331,4.93251 -0.266237,6.7321 0.0095,2.40912 -0.08305,3.19235 -0.350956,2.97001 -0.284672,-0.23625 -5.589632,-0.4222 -10.485591,-0.36755 -0.634125,0.007 -1.291469,0.5784 -1.598361,1.38919 -0.321911,0.85046 0.739328,1.01993 5.841574,0.93292 3.244886,-0.0553 4.919373,-0.21702 5.569165,-0.53782 1.206781,-0.59578 1.150835,-0.6257 1.150835,0.61526 v 1.07399 l -2.64,0.26957 c -1.452,0.14825 -3.36,0.27696 -4.24,0.28601 -0.88,0.009 -1.633261,0.16045 -1.673914,0.33645 -0.08377,0.36269 1.37296,0.8303 1.940989,0.6231 0.205111,-0.0748 1.020925,-0.20726 1.812925,-0.2943 0.792,-0.087 2.17928,-0.24931 3.082848,-0.36064 l 1.642845,-0.20243 0.12623,1.32365 c 0.06943,0.728 0.0296,1.5007 -0.08852,1.71712 -0.118109,0.21644 -0.31337,2.1935 -0.433911,4.3935 -0.120537,2.2 -0.364569,5.584 -0.542288,7.52 -0.490211,5.3401 -0.489072,5.41165 0.08784,5.52682 0.319955,0.0638 0.648467,-0.23613 0.867277,-0.792 0.469392,-1.19245 1.256355,-4.57322 1.251126,-5.37482 -0.0022,-0.352 0.12424,-2.944 0.281191,-5.76 0.261049,-4.68374 0.334576,-12.6809 0.152989,-16.64 -0.103188,-2.24982 0.333536,-7.21232 0.619184,-7.03578 0.312262,0.19296 0.717376,3.99408 0.669443,6.28125 -0.02765,1.31943 0.08883,1.85405 0.432707,1.98602 0.2588,0.0993 0.557107,0.0405 0.662902,-0.13069 0.105799,-0.17117 0.322189,-0.23101 0.480868,-0.13293 0.592736,0.36634 0.708083,-1.66576 0.325488,-5.73414 -0.216912,-2.30656 -0.525748,-4.33053 -0.686301,-4.49773 -0.160554,-0.1672 -0.291917,-0.7072 -0.291917,-1.2 0,-0.74179 -0.137334,-0.896 -0.797994,-0.896 -0.560995,0 -1.06904,0.37418 -1.710646,1.25987 z m 20.39566,-0.74013 c -0.47219,0.56896 -0.50386,1.0497 -0.72471,11.00026 -0.0996,4.488 -0.26797,9.04733 -0.37416,10.13181 l -0.19306,1.97184 -3.04321,0.22816 c -2.85765,0.21424 -4.800405,0.10931 -6.671659,-0.36035 -0.440122,-0.11047 -0.800221,-0.0641 -0.800221,0.10294 0,0.59552 3.3695,1.04525 6.79421,0.90682 1.88881,-0.0764 3.50422,-0.0256 3.5898,0.11289 0.0856,0.13847 0.002,1.17293 -0.18581,2.29882 -0.44837,2.68857 -1.1487,10.88157 -1.10926,12.97702 0.0171,0.90746 -0.0769,1.58298 -0.20894,1.50112 -0.132,-0.0819 -0.24,0.21117 -0.24,0.65117 0,0.44 -0.1394,0.88614 -0.30978,0.99146 -0.41784,0.25824 -0.31378,2.43958 0.12277,2.57347 0.19086,0.0586 1.18713,0.20073 2.21395,0.31603 1.02682,0.11526 1.78789,0.28864 1.69126,0.38528 -0.0966,0.0966 -0.0345,0.43936 0.13794,0.76166 0.41964,0.78413 0.95574,0.54749 3.64518,-1.60899 1.22173,-0.97965 2.35722,-1.87369 2.52331,-1.98681 0.1661,-0.11309 0.20386,-0.59661 0.0839,-1.07447 -0.18382,-0.73238 -0.35099,-0.84342 -1.06446,-0.70704 -0.4671,0.0893 -1.16302,-0.0457 -1.55296,-0.30115 -0.629,-0.41216 -0.69304,-0.68083 -0.5834,-2.44733 0.16682,-2.68752 0.37638,-4.75673 0.75194,-7.42435 0.99659,-7.07885 1.2997,-9.18058 1.61529,-11.2 0.19253,-1.232 0.40619,-3.032 0.47481,-4 0.1712,-2.41533 0.48243,-4.60608 0.97743,-6.88 l 0.41795,-1.92 -0.012,2.67677 c -0.009,1.93139 0.11038,2.75427 0.42742,2.9551 0.61886,0.392 0.802,0.35981 1.40964,-0.24784 0.46027,-0.46025 0.51475,-1.0816 0.38578,-4.4 -0.23555,-6.06057 -1.64517,-9.53753 -3.3074,-8.15798 -0.26437,0.21939 -0.44824,0.69929 -0.4086,1.06643 0.0934,0.86454 -0.24549,3.83664 -1.00639,8.82752 -0.33541,2.2 -0.67594,4.648 -0.75674,5.44 -0.38515,3.77526 -1.16731,10.15958 -1.32733,10.83418 -0.14999,0.63225 -0.33642,0.73104 -1.15346,0.61113 -0.70599,-0.10361 -1.07589,0.0192 -1.3423,0.44583 -0.45345,0.72608 -0.99557,0.77987 -0.72386,0.0718 0.10913,-0.28438 0.27668,-1.40038 0.37234,-2.48 0.23507,-2.6528 0.29193,-2.76294 1.42656,-2.76294 0.5778,0 0.90671,-0.13302 0.79116,-0.32 -0.10878,-0.176 -0.61768,-0.32 -1.13089,-0.32 -0.84091,0 -0.91832,-0.0869 -0.78338,-0.88 0.0824,-0.484 0.21311,-2.608 0.29057,-4.72 0.0774,-2.112 0.15047,-3.88106 0.16226,-3.93126 0.0118,-0.0502 0.3007,0.0582 0.64202,0.24086 0.9273,0.49629 1.10356,-0.0453 1.22684,-3.76989 0.0962,-2.90713 0.008,-3.59952 -0.74425,-5.81187 -0.87687,-2.58038 -1.62855,-3.31712 -2.41615,-2.3681 z m 2.69358,31.32026 c -0.0801,1.408 -0.35155,3.52442 -0.60315,4.70317 -0.2516,1.17875 -0.45745,2.71133 -0.45745,3.40576 0,1.44281 -0.71475,1.97222 -1.59148,1.17878 -0.2964,-0.26825 -0.71039,-0.48771 -0.91998,-0.48771 -0.24106,0 -0.32242,-0.3233 -0.22144,-0.88 0.0878,-0.484 0.24527,-2.32 0.34994,-4.08 0.10467,-1.76 0.32366,-3.90365 0.48664,-4.76368 0.16298,-0.86003 0.29632,-1.59277 0.29632,-1.62832 0,-0.0356 0.63141,-0.0519 1.40315,-0.0363 l 1.40314,0.0285 -0.14569,2.56 z m 21.90691,-31.0705 c -0.0809,0.4232 0.008,1.0352 0.19731,1.36 0.39567,0.6784 0.54227,14.96432 0.17189,16.7505 -0.12773,0.616 -0.32488,2.38419 -0.4381,3.92934 -0.11322,1.54512 -0.26535,2.98512 -0.33805,3.2 -0.23046,0.68109 -0.44482,3.42586 -0.67295,8.617 -0.1988,4.52368 -0.16721,5.05856 0.30957,5.2415 1.04997,0.40291 1.52447,-0.47645 1.46923,-2.72285 -0.0706,-2.87277 0.28825,-8.10822 0.84624,-12.34499 0.25498,-1.936 0.52923,-4.384 0.60944,-5.44 0.0802,-1.056 0.22764,-2.4936 0.3276,-3.19466 0.3149,-2.20844 0.17284,-10.64089 -0.20613,-12.23657 -0.1997,-0.84083 -0.39003,-1.74477 -0.42297,-2.00877 -0.10385,-0.83248 -0.82578,-1.92 -1.27455,-1.92 -0.23728,0 -0.49762,0.34627 -0.57853,0.7695 z m -36.71135,1.12925 c -0.757206,0.48637 -1.210771,3.70122 -1.267117,8.98125 -0.02912,2.728 -0.191325,5.752 -0.36047,6.72 -0.309847,1.77322 -1.624832,11.63334 -1.749735,13.12 -0.795337,9.4665 -0.913344,10.24141 -1.631216,10.71178 -0.73942,0.48451 -2.255372,0.44192 -3.20591,-0.09 -0.651818,-0.36477 -3.726666,0.58634 -4.677526,1.44685 -0.611626,0.5535 -0.559498,1.72589 0.112752,2.5359 0.491785,0.59255 2.598096,0.70883 3.403062,0.18787 0.684995,-0.44332 0.72,-0.42326 0.72,0.41268 0,0.81964 0.0727,0.86688 1.082246,0.70307 0.595236,-0.0966 1.209719,-0.0482 1.365517,0.10765 0.319635,0.31961 1.712237,0.0437 1.712237,-0.33927 0,-0.13686 0.397821,-0.67469 0.884048,-1.1952 0.486224,-0.52051 1.153696,-1.4471 1.483267,-2.05907 0.572147,-1.0624 0.574032,-1.15114 0.04172,-1.96355 -0.507514,-0.77456 -0.522058,-1.14528 -0.162189,-4.13475 0.217421,-1.80618 0.441158,-4.36394 0.497197,-5.68394 0.05603,-1.32 0.256358,-3.12 0.445161,-4 0.45721,-2.13104 1.930794,-13.19171 1.930794,-14.49248 0,-1.4129 0.525568,-1.29504 0.769187,0.17248 0.364567,2.19613 0.358717,2.48157 -0.04919,2.4 -0.22,-0.044 -0.4,0.10848 -0.4,0.33885 0,0.23033 0.18,0.66019 0.4,0.9552 0.347376,0.46582 0.832224,0.50957 3.685395,0.33251 3.59402,-0.22304 4.63544,-0.63766 4.0385,-1.60781 -0.28478,-0.46281 -0.68267,-0.55702 -1.98641,-0.47033 -0.89666,0.0596 -2.06841,0.0122 -2.60389,-0.10544 -0.857726,-0.18839 -0.973595,-0.3466 -0.973595,-1.32944 0,-0.6136 -0.148067,-1.39229 -0.32904,-1.73044 -0.180973,-0.33814 -0.392646,-1.37267 -0.470387,-2.29894 -0.194195,-2.31379 -0.679504,-5.02634 -1.090528,-6.09526 -0.188455,-0.49012 -0.308311,-1.05754 -0.266346,-1.261 0.09923,-0.48105 -0.752742,-0.65123 -1.347539,-0.26915 z m 107.15357,1.07143 c -0.63004,0.48131 -2.20973,3.4024 -2.20973,4.08611 0,0.27577 0.20723,0.78089 0.46051,1.12256 0.38787,0.52317 0.56165,0.55942 1.1017,0.22985 0.59457,-0.36281 0.65484,-0.29302 0.82893,0.96 0.36458,2.62426 0.72301,9.06144 0.6365,11.4313 -0.13202,3.61606 -0.63152,9.08851 -0.8639,9.46451 -0.11297,0.18279 -0.29034,1.24157 -0.39415,2.35287 -0.10382,1.11126 -0.3077,2.25497 -0.45307,2.54156 -0.61709,1.21652 -1.02152,3.62538 -0.67813,4.03911 0.49599,0.59763 -0.48991,1.53929 -1.22061,1.16582 -0.29578,-0.15117 -1.06615,-0.35593 -1.71193,-0.45504 -0.64579,-0.0991 -1.56621,-0.43709 -2.0454,-0.75107 l -0.87124,-0.57085 0.21241,-4.49347 c 0.11682,-2.47139 0.27911,-5.78944 0.36065,-7.37344 0.0815,-1.584 0.22734,-6.264 0.32402,-10.4 0.0967,-4.136 0.21034,-8.672 0.25257,-10.08 0.0806,-2.68829 -0.13143,-3.36 -1.06081,-3.36 -0.65271,0 -2.87805,2.33898 -2.87805,3.02502 0,0.25476 -0.19283,0.57834 -0.4285,0.71908 -0.23568,0.14073 -0.58407,0.71209 -0.7742,1.26966 -0.29397,0.86205 -0.25469,1.0961 0.2625,1.56416 0.64189,0.5809 1.15266,0.39395 2.1402,-0.78336 0.32993,-0.39334 0.4,-0.18765 0.4,1.17424 0,1.28314 -0.0998,1.61283 -0.44763,1.47933 -0.2462,-0.0945 -0.535,-0.0304 -0.64178,0.1424 -0.10679,0.17277 -0.73335,0.26499 -1.39237,0.20489 -5.58951,-0.50953 -6.03355,-0.50358 -6.5691,0.0882 -0.32414,0.35817 -0.45272,0.8559 -0.33621,1.30144 0.16153,0.61769 0.34456,0.69667 1.2726,0.54918 0.59617,-0.0947 2.12581,-0.16032 3.39921,-0.1457 4.2706,0.049 4.40877,0.0738 4.5976,0.82615 0.37757,1.50435 0.057,1.84944 -1.96654,2.11673 -1.05368,0.13917 -2.52778,0.2105 -3.27578,0.1585 -0.96285,-0.0669 -1.36,0.0291 -1.36,0.32918 0,0.33898 0.67174,0.37869 3.36,0.19863 l 3.36,-0.22506 v 3.21565 3.21565 l -3.56422,-0.10327 c -3.17867,-0.0921 -3.63685,-0.0356 -4.23571,0.52234 -0.57355,0.53437 -0.60211,0.66947 -0.19578,0.92637 0.26164,0.16544 1.34819,0.30301 2.41455,0.30569 1.14522,0.003 2.18848,0.18743 2.54872,0.45085 0.42474,0.31059 0.83818,0.35914 1.36199,0.16 1.3536,-0.51462 1.58802,-0.37043 1.48596,0.91405 -0.28164,3.54442 -0.5095,8.20262 -0.50448,10.31328 0.003,1.31632 -0.13477,2.56253 -0.30645,2.76941 -0.35836,0.43177 -0.0298,2.11539 0.36516,1.87129 0.14381,-0.0889 0.23645,0.74013 0.20586,1.84221 l -0.0556,2.00381 1.97434,0.28112 c 2.58002,0.36739 3.09113,0.20506 5.43981,-1.72781 2.33914,-1.92499 2.91825,-3.12173 1.9918,-4.11613 -0.44491,-0.47756 -0.53814,-0.82403 -0.33122,-1.23091 0.64251,-1.26336 1.36941,-3.952 1.63197,-6.03625 0.15312,-1.21549 0.42944,-3.21802 0.61404,-4.45002 0.51684,-3.44941 0.61999,-6.52221 0.22447,-6.68723 -0.23626,-0.0986 -0.22453,-0.22999 0.0371,-0.41639 0.55905,-0.3982 0.46236,-6.1008 -0.20491,-12.08502 -0.18344,-1.64502 -0.24817,-3.4177 -0.14386,-3.93923 0.14612,-0.73066 0.0217,-1.1048 -0.5423,-1.63021 -0.8424,-0.7848 -0.91404,-0.79696 -1.60155,-0.27174 z m -3.59352,8.03872 c -0.29861,0.77817 0.52761,1.47113 1.85145,1.55286 1.43407,0.0885 1.86895,-0.57942 0.96547,-1.48291 -0.64125,-0.64125 -2.57922,-0.68938 -2.81692,-0.07 z m -20.36495,0.81008 c -0.45773,0.85526 -0.44897,0.87542 0.60952,1.40348 1.05491,0.52624 1.29922,0.41872 1.29922,-0.5718 0,-1.35664 -1.31999,-1.93178 -1.90874,-0.83168 z m 53.98106,0.22998 c -0.19309,1.01011 0.25081,1.47507 1.14304,1.19731 0.31644,-0.0985 0.78444,-0.006 1.04,0.20647 0.29222,0.24252 0.46464,0.26112 0.46464,0.0501 0,-0.20701 0.72839,-0.29923 1.90172,-0.24077 1.48216,0.0738 1.94366,-0.0144 2.09176,-0.40048 0.39113,-1.01926 -0.68723,-1.49658 -3.64147,-1.61184 l -2.82584,-0.11021 z m 21.65746,-0.29302 c -0.2631,0.2631 -0.42808,0.64163 -0.36664,0.84121 0.226,0.73405 2.41323,1.50624 4.2862,1.51322 1.02886,0.004 2.30266,0.12969 2.83066,0.27968 0.528,0.15001 1.9775,0.34704 3.22112,0.43779 l 2.26112,0.16506 -0.13593,-0.92615 c -0.19242,-1.3111 -0.61389,-1.54941 -3.631,-2.05328 -4.29053,-0.71651 -7.89684,-0.82624 -8.46553,-0.25753 z m -90.97882,0.9439 c -0.24978,0.54819 -0.24579,0.91725 0.0144,1.33392 0.31267,0.50064 0.5895,0.53997 2.11578,0.30064 0.96582,-0.15146 2.97941,-0.23466 4.47465,-0.1849 2.29048,0.0763 2.77489,0.003 3.07598,-0.46348 0.27598,-0.42784 0.24454,-0.66682 -0.13806,-1.04944 -0.38751,-0.38752 -1.44311,-0.51712 -4.84643,-0.59501 -4.30967,-0.0987 -4.35429,-0.0924 -4.69633,0.65827 z m 117.72904,0.016 c -0.93941,0.17459 -1.26836,0.59917 -1.2751,1.64579 -0.005,0.72669 0.0648,0.75146 1.5151,0.54055 2.68428,-0.3904 4.41746,-0.0864 4.9261,0.86396 0.30464,0.56922 0.27341,0.61901 -0.24887,0.3968 -0.6909,-0.29392 -3.73939,-0.77379 -3.91676,-0.61651 -0.0657,0.0583 -0.0343,0.32819 0.07,0.59978 0.13494,0.35165 0.63868,0.49379 1.74993,0.49379 2.26468,0 2.73203,0.61363 2.25946,2.96672 -0.41209,2.05197 -0.52122,2.12502 -3.55982,2.38285 -1.82451,0.15478 -2.16,0.27545 -2.16,0.77683 0,0.70528 0.7829,0.76208 3.24036,0.23504 1.44282,-0.30941 1.72379,-0.28749 2.05102,0.16 0.47669,0.65197 1.42858,0.67766 1.42858,0.03856 0,-0.47344 1.01309,-0.65949 2.88,-0.52896 0.44,0.0307 1.628,0.05 2.64,0.0427 l 1.84,-0.0131 v 2.43075 c 0,1.3369 -0.15154,2.71389 -0.33676,3.05997 -0.74268,1.38774 -1.31995,10.48509 -1.10466,17.4087 0.11493,3.696 0.27284,13.344 0.35092,21.44 0.0781,8.096 0.14834,14.972 0.15612,15.28 0.008,0.308 0.11321,0.5609 0.23427,0.56202 0.12106,0 0.25579,2.34112 0.29941,5.200002 0.0436,2.85888 0.14367,6.70998 0.22234,8.55798 0.33364,7.83658 0.42717,22.84679 0.16449,26.4 -0.15613,2.112 -0.26023,6.36 -0.23133,9.44 0.0289,3.08 0.0133,15.32 -0.0347,27.2 -0.048,11.88 -0.0821,21.816 -0.0758,22.08 0.13674,5.76891 -0.15149,19.68622 -0.41658,20.11516 -0.18968,0.3069 -0.22035,4.0063 -0.2073,25.00484 0.004,5.72 -0.0622,11.84 -0.14607,13.6 -0.0839,1.76 -0.22058,7.52 -0.30375,12.8 -0.0832,5.28 -0.2959,12.69652 -0.47272,16.48115 -0.17683,3.78464 -0.32762,9.18464 -0.33509,12 -0.007,2.81537 -0.0443,6.34285 -0.0817,7.83885 -0.0681,2.71979 -0.0603,5.46769 0.0376,13.28 0.0888,7.08016 -0.32986,30.50934 -0.7833,43.84 -0.10177,2.992 -0.24686,7.744 -0.32242,10.56 -0.0756,2.816 -0.25936,6.488 -0.40842,8.16 -0.14907,1.672 -0.25607,5.09205 -0.23777,7.6001 0.0183,2.50805 -0.0448,4.56005 -0.1402,4.56 -0.0954,-5e-5 -0.17841,0.3959 -0.18446,0.8799 -0.006,0.484 -0.11841,2.752 -0.24968,5.04 -0.23235,4.04995 -0.33251,5.0955 -1.25685,13.12 -0.49407,4.28925 -0.45683,3.83405 -0.70691,8.64 -0.10074,1.936 -0.39889,6.04 -0.66255,9.12 -0.26366,3.08 -0.53861,6.824 -0.611,8.32 -0.0724,1.496 -0.27391,4.16 -0.44782,5.92 -0.17392,1.76 -0.3975,4.93301 -0.49685,7.05113 -0.0994,2.11813 -0.24359,4.17801 -0.32053,4.57751 -0.0769,0.39951 -0.21897,2.17328 -0.31562,3.94171 -0.0967,1.76844 -0.39831,5.97256 -0.67034,9.34249 -0.69099,8.56013 -0.60397,22.1913 0.14689,23.00693 0.12139,0.13188 0.16057,0.75504 0.087,1.38482 l -0.13367,1.14504 -1.4821,-0.19017 c -0.81515,-0.10459 -2.04439,-0.25602 -2.73165,-0.33652 -0.68726,-0.0805 -1.98326,-0.35171 -2.88,-0.60271 -3.03753,-0.85023 -7.66881,-1.3729 -14.38677,-1.62364 -2.08797,-0.0779 -4.21197,-0.23299 -4.72,-0.34457 -0.61842,-0.13589 -0.92367,-0.0758 -0.92367,0.18167 0,0.29595 -0.10474,0.29769 -0.45437,0.007 -0.41706,-0.34612 -3.08349,-0.40233 -13.94563,-0.29397 -0.968,0.01 -3.056,-0.0806 -4.64,-0.20048 -1.584,-0.11992 -3.168,-0.19415 -3.52,-0.16496 -1.08259,0.0898 -1.42532,0.0825 -7.36,-0.1575 -3.168,-0.12809 -6.84,-0.19233 -8.16,-0.14276 -1.32,0.0496 -3.3,0.0668 -4.4,0.0384 -1.1,-0.0285 -1.99996,0.0544 -1.99992,0.18414 4e-5,0.12972 -1.94396,0.21923 -4.32,0.1989 -2.37604,-0.0203 -4.32008,0.0605 -4.32008,0.17964 0,0.11913 -1.188,0.21206 -2.64,0.2065 -1.452,-0.006 -5.016,0.0446 -7.92,0.11152 -2.904,0.0669 -5.892,0.0139 -6.64,-0.11767 -0.748,-0.13161 -1.36,-0.11863 -1.35999,0.0288 0,0.14747 -2.484,0.26277 -5.52,0.25622 -3.03601,-0.007 -6.45601,0.11003 -7.60001,0.25908 -2.45773,0.3202 -38.59354,0.38188 -60,0.10241 -8.272,-0.10799 -18.352,-0.17056 -22.4,-0.13905 -4.048,0.0315 -9.16,0.047 -11.36,0.0345 -2.2,-0.0125 -6.016,-0.0335 -8.48,-0.0466 -2.464,-0.0131 -6.064,0.0449 -8,0.12894 -12.224243,0.53038 -45.048701,0.81105 -45.470673,0.3888 -0.134024,-0.13412 -0.220112,-1.09895 -0.191308,-2.14409 0.0299,-1.08476 -0.09755,-1.9929 -0.296988,-2.11615 -0.239876,-0.14826 -0.2133,-0.30367 0.0848,-0.49592 0.359994,-0.23217 0.352163,-0.33383 -0.04584,-0.5951 -0.399392,-0.26218 -0.372523,-0.31675 0.16,-0.3249 0.48049,-0.007 0.532072,-0.0782 0.206962,-0.2842 -0.344178,-0.2181 -0.355274,-0.41971 -0.05407,-0.98251 0.208431,-0.38946 0.295298,-0.79177 0.193038,-0.89403 C 17.683667,481.5714 17.6,481.67965 17.6,481.9144 c 0,0.23466 -0.09252,0.33414 -0.2056,0.22106 -0.11308,-0.11308 -0.05939,-0.38908 0.119304,-0.61333 0.475115,-0.59624 0.739141,-5.09152 0.283007,-4.81844 -0.203776,0.122 -0.185021,0.001 0.04375,-0.2812 0.220251,-0.27213 0.376962,-1.19977 0.348247,-2.06143 -0.02871,-0.86166 0.04486,-2.07066 0.16349,-2.68666 0.118635,-0.616 0.275282,-2.44854 0.348106,-4.0723 0.07282,-1.62376 0.221138,-3.09587 0.329589,-3.27134 0.305464,-0.49425 0.502893,-2.41479 0.643145,-6.25636 0.07068,-1.936 0.147283,-3.52 0.170224,-3.52 0.138883,0 0.423964,-8.2357 0.310153,-8.96 -0.06243,-0.39733 0.02497,-2.76858 0.2182,-5.92 0.08094,-1.32 0.210745,-6.49955 0.288461,-11.51011 0.07772,-5.01056 0.202062,-9.33056 0.276323,-9.6 0.07426,-0.26944 0.23054,-2.28801 0.347288,-4.48572 0.116747,-2.1977 0.272577,-4.0934 0.346286,-4.21267 0.07371,-0.11926 -0.04688,-0.27772 -0.267975,-0.35213 -0.303119,-0.10202 -0.312796,-0.24648 -0.03934,-0.58733 0.201875,-0.25164 0.380709,-1.72886 0.40338,-3.33204 0.0224,-1.584 0.106396,-3.96 0.186658,-5.28 0.334464,-5.50064 0.467873,-13.12 0.229721,-13.12 -0.140875,0 -0.161549,-0.828 -0.04594,-1.84 0.115607,-1.012 0.169846,-2.704 0.120532,-3.76 -0.04931,-1.056 -0.116611,-4.476 -0.149546,-7.6 -0.03384,-3.20976 -0.188199,-5.68 -0.354929,-5.68 -0.162275,0 -0.132099,-0.30447 0.06706,-0.6766 0.208504,-0.38959 0.279762,-1.23797 0.167987,-2 -0.216808,-1.47809 -0.606731,-12.80657 -0.568731,-16.5234 0.01349,-1.32 0.123547,-10.752 0.24456,-20.96 0.280443,-23.65666 0.246732,-29.14467 -0.218184,-35.52 -0.01284,-0.176 -0.02052,-7.376 -0.01707,-16 0.0034,-8.624 -0.04955,-16.472 -0.117774,-17.44 -0.541953,-7.68973 -0.729446,-20.41546 -0.36303,-24.64 0.129756,-1.496 0.29826,-3.728 0.374453,-4.96 0.164972,-2.6675 0.488009,-6.02737 0.707632,-7.36 0.08702,-0.528 0.211022,-2.112 0.275567,-3.52 0.06455,-1.408 0.2712,-4.03416 0.459234,-5.83592 0.630024,-6.03694 0.812539,-16.19221 0.622639,-34.64408 -0.02989,-2.904 -0.02885,-6.504 0.0023,-8 0.056,-2.68941 -0.157114,-7.29859 -0.480862,-10.4 -0.09186,-0.88 -0.234779,-6.064 -0.317594,-11.52 -0.08282,-5.456 -0.225911,-12.224 -0.317992,-15.04 -0.222668,-6.80963 -0.229627,-12.65894 -0.0297,-24.96 0.208353,-12.819302 0.260856,-49.048742 0.07239,-49.952132 -0.07712,-0.36966 -0.0031,-1.88166 0.16446,-3.36 0.607057,-5.35542 0.756223,-7.32793 0.554153,-7.3279 -0.200207,3e-5 0.06649,-1.45751 0.719832,-3.93411 0.365202,-1.38432 0.133969,-2.46586 -0.527204,-2.46586 -0.980628,0 -1.994878,3.33203 -2.094223,6.88 -0.0345,1.232 -0.314966,3.248 -0.623263,4.48 -0.423006,1.6904 -0.510073,2.87402 -0.354854,4.824 0.113128,1.42118 0.187924,3.65318 0.166214,4.96 -0.04147,2.49603 -0.06075,16.82438 -0.03291,24.456 0.009,2.464 -0.07599,9.304 -0.188843,15.200002 -0.433779,22.6631 -0.195403,36.44352 1.032354,59.68 0.139491,2.64 0.187262,8.21901 0.106158,12.39776 -0.0811,4.17878 -0.04895,7.85078 0.07145,8.16 0.32674,0.83917 0.214469,19.2486 -0.141013,23.12224 -0.512588,5.5856 -0.633865,7.34555 -0.793835,11.52 -0.08431,2.2 -0.28876,4.45716 -0.45434,5.01591 -0.16558,0.55876 -0.240932,1.07604 -0.16745,1.14952 0.07348,0.0735 -0.01448,1.56032 -0.195464,3.30409 -0.718921,6.92654 -0.881116,17.40743 -0.492283,31.81048 0.303764,11.25193 0.499709,20.85592 0.669203,32.8 0.08991,6.336 0.194371,13.248 0.232132,15.36 0.09473,5.29839 -0.368545,30.88115 -0.606252,33.47811 -0.130478,1.42548 -0.07536,2.19136 0.168563,2.34211 0.199342,0.1232 0.277174,0.36197 0.17296,0.53059 -0.236816,0.38317 -0.222098,13.97902 0.01555,14.36354 0.363227,0.58772 0.675135,37.70349 0.367118,43.68565 -0.0725,1.408 -0.226089,4.432 -0.341316,6.72 -0.115232,2.288 -0.276246,5.168 -0.357813,6.4 -0.208867,3.15475 -0.437181,9.72645 -0.617019,17.76 -0.385135,17.20444 -0.506344,21.38035 -0.661612,22.79387 -0.147684,1.34449 -0.102489,1.49395 0.403919,1.33584 0.503035,-0.15706 0.509198,-0.13839 0.05231,0.15846 -0.519472,0.33753 -0.830799,2.33847 -1.091514,7.01533 -0.09661,1.73308 -0.04662,1.96858 0.348305,1.64082 0.369252,-0.30645 0.461107,-0.27926 0.461107,0.1365 0,0.28555 -0.252,0.51942 -0.56,0.51971 -0.457565,3.2e-4 -0.566568,0.30774 -0.595905,1.68 -0.01975,0.92371 -0.144257,3.11947 -0.276688,4.87947 -0.132431,1.76 -0.301116,4.064 -0.374855,5.12 -0.07374,1.056 -0.183128,2.424 -0.243085,3.04 -0.05996,0.616 -0.211238,3.42011 -0.336179,6.23137 -0.12494,2.81125 -0.359431,5.35852 -0.521091,5.66058 -0.165769,0.30974 -0.172105,0.6245 -0.01453,0.72188 0.25625,0.15837 2.277821,0.41052 5.206733,0.64941 0.640419,0.0522 1.304334,0.18147 1.475366,0.28717 0.36044,0.22276 0.722421,-0.0625 0.715335,-0.56375 -0.0027,-0.19066 -0.14449,-0.13066 -0.3151,0.13334 -0.265096,0.4102 -0.310912,0.39857 -0.3151,-0.08 -0.0027,-0.308 0.2111,-0.56 0.4751,-0.56 0.264,0 0.482205,0.252 0.4849,0.56 0.0038,0.43825 0.06498,0.46516 0.281264,0.12379 0.211933,-0.33451 0.307359,-0.34322 0.409311,-0.0374 0.08392,0.25175 0.894783,0.42812 2.198737,0.47822 1.136183,0.0437 3.721788,0.17521 5.745788,0.29233 2.064237,0.11945 5.366013,0.0581 7.52,-0.13974 2.112,-0.19397 4.850022,-0.39831 6.084496,-0.45407 1.234474,-0.0558 2.818474,-0.19671 3.52,-0.3132 1.555722,-0.25834 8.332906,-0.51751 17.115504,-0.65454 3.608,-0.0563 7.352,-0.24786 8.32,-0.4257 0.968,-0.17784 1.849846,-0.269 1.959658,-0.20258 0.109814,0.0664 3.205814,0.20118 6.88,0.29947 8.15815,0.21825 8.905276,0.28507 9.80903,0.87723 0.393664,0.25794 1.578752,0.49781 2.633533,0.53305 1.054777,0.0352 2.853779,0.16285 3.997779,0.28359 2.04498,0.21582 12.56219,-0.0371 16.64,-0.40014 1.144,-0.10185 3.808,-0.25242 5.92,-0.33459 2.112,-0.0822 4.56,-0.23085 5.44,-0.3304 1.3172,-0.14899 7.42427,0.25726 15.52,1.03243 2.63434,0.25224 9.01309,0.0497 12.8,-0.40651 6.7742,-0.81601 18.24257,-1.27151 29.92,-1.18835 13.46491,0.0959 14.24165,0.0911 15.31441,-0.0953 0.50292,-0.0874 1.07892,-0.0257 1.28,0.13707 0.47143,0.38159 24.17066,0.36072 24.40688,-0.0215 0.10183,-0.16476 0.33188,-0.16211 0.5472,0.006 0.21696,0.16968 1.96896,0.1853 4.21151,0.0376 2.112,-0.13915 4.272,-0.19618 4.8,-0.12674 0.528,0.0694 2.184,0.21882 3.68,0.33195 1.496,0.11313 3.224,0.28391 3.84,0.37953 0.94708,0.147 6.19848,0.1486 22.56,0.007 1.408,-0.0122 3.856,0.0811 5.44,0.20733 8.67733,0.69149 10.22984,0.8471 11.36,1.13862 0.616,0.1589 1.804,0.28512 2.64,0.28049 1.4547,-0.008 1.52172,-0.0485 1.56,-0.94176 0.022,-0.51333 0.0726,-1.40133 0.11251,-1.97333 0.0399,-0.572 -0.0419,-2.048 -0.18172,-3.28 -0.13983,-1.232 -0.33325,-3.176 -0.42983,-4.32 -0.0966,-1.144 -0.20797,-2.296 -0.24753,-2.56 -0.0963,-0.64258 0.32131,-8.4704 0.71698,-13.44 0.17516,-2.2 0.38104,-5.08 0.4575,-6.4 0.74069,-12.78606 1.17196,-18.62319 1.42515,-19.28914 0.16541,-0.43508 0.38453,-3.14901 0.48692,-6.03096 0.31763,-8.94019 0.5454,-14.46677 0.65116,-15.7999 0.2186,-2.75538 0.83673,-7.94621 0.97238,-8.1657 0.0787,-0.12738 0.2303,-1.5102 0.33683,-3.07295 0.10653,-1.56274 0.31402,-3.39822 0.46108,-4.07884 0.14706,-0.68061 0.21502,-1.50937 0.15103,-1.84167 -0.064,-0.3323 0.038,-1.50344 0.2267,-2.60252 0.32664,-1.90272 0.43022,-4.01295 0.7185,-14.63832 0.0692,-2.552 0.20645,-5.936 0.30492,-7.52 0.0985,-1.584 0.27632,-4.464 0.39523,-6.4 0.11892,-1.936 0.25631,-4.168 0.3053,-4.96 0.049,-0.792 0.16301,-5.976 0.25337,-11.52 0.0904,-5.544 0.27248,-12.384 0.40473,-15.2 0.25066,-5.33706 0.31887,-11.0067 0.17519,-14.56 -0.0463,-1.144 -0.0906,-5.536 -0.0986,-9.76 -0.008,-4.224 -0.0183,-9.264 -0.0229,-11.2 -0.0135,-5.59582 0.36245,-17.7845 0.55825,-18.10132 0.0981,-0.1588 0.15638,-1.69497 0.1294,-3.4137 -0.027,-1.71874 -0.0604,-3.91698 -0.0744,-4.88498 -0.0139,-0.968 0.0747,-4.568 0.19687,-8 0.29281,-8.22323 0.60556,-26.16151 0.53002,-30.4 -0.17474,-9.80394 0.11623,-19.7979 0.58679,-20.15464 0.33428,-0.25343 0.4128,-0.96536 0.10647,-0.96536 -0.14939,0 -0.22761,-2.46909 -0.17382,-5.48686 0.0566,-3.17555 -0.0343,-5.73369 -0.21577,-6.0728 -0.24053,-0.44943 -0.2112,-0.54665 0.12592,-0.41728 0.36623,0.14053 0.44652,-1.47 0.48163,-9.66137 0.029,-6.76074 -0.0682,-9.96298 -0.31128,-10.25585 -0.19437,-0.23421 -0.2206,-0.42584 -0.0583,-0.42584 0.28445,0 0.30649,-0.82862 0.13193,-4.96 -0.0446,-1.056 -0.0486,-1.992 -0.009,-2.08 0.26973,-0.59792 0.47226,-21.50262 0.31002,-32 -0.0558,-3.608 0.006,-8.36 0.13775,-10.56 0.49579,-8.29299 0.26833,-23.68147 -0.42233,-28.57312 -0.14391,-1.0192 -0.17492,-1.90672 -0.0689,-1.97222 0.106,-0.0655 0.0958,-1.53562 -0.0226,-3.26688 -0.11844,-1.73127 -0.23042,-5.163782 -0.24885,-7.627782 -0.0184,-2.464 -0.10361,-6.208 -0.18929,-8.32 -0.0857,-2.112 -0.14311,-7.08 -0.12762,-11.04 0.0155,-3.96 -10e-4,-7.488 -0.0376,-7.84 -0.10246,-0.99818 -0.10529,-2.11478 -0.009,-3.68 0.0485,-0.792 -0.003,-3.63101 -0.11344,-6.30893 -0.2613,-6.30694 0.43279,-17.05629 1.15772,-17.92979 0.19866,-0.23936 0.42778,-1.93219 0.50915,-3.76182 l 0.14795,-3.32656 -0.81141,-0.20368 c -0.44627,-0.112 -1.14014,-0.0278 -1.54193,0.18732 -0.40179,0.21504 -1.9632,0.40816 -3.46981,0.42919 -1.5066,0.0211 -2.92029,0.15446 -3.14154,0.29654 -0.62921,0.40403 -0.82141,-0.56096 -0.44983,-2.25856 0.73897,-3.37603 0.7371,-3.76345 -0.0235,-4.86771 -1.09858,-1.59498 -3.67004,-2.25296 -6.6444,-1.70016 z M 18.88,460.15494 c 0,0.176 -0.0635,0.32 -0.141115,0.32 -0.07761,0 -0.230111,-0.144 -0.338885,-0.32 -0.108774,-0.176 -0.04527,-0.32 0.141115,-0.32 0.186386,0 0.338885,0.144 0.338885,0.32 z m 268.16,6.72 c 0,0.176 -0.0635,0.32 -0.14111,0.32 -0.0776,0 -0.23012,-0.144 -0.33889,-0.32 -0.10877,-0.176 -0.0453,-0.32 0.14111,-0.32 0.18639,0 0.33889,0.144 0.33889,0.32 z m -20.72,23.57193 c -0.22,0.0888 -0.58,0.0888 -0.8,0 -0.22,-0.0888 -0.04,-0.16141 0.4,-0.16141 0.44,0 0.62,0.0726 0.4,0.16141 z m -150.96,0.74807 c 0.10877,0.176 -0.0267,0.32 -0.30111,0.32 -0.27439,0 -0.49889,-0.144 -0.49889,-0.32 0,-0.176 0.1355,-0.32 0.30111,-0.32 0.16562,0 0.39012,0.144 0.49889,0.32 z m -83.2,0.96 c 0.108774,0.176 -0.03523,0.32 -0.32,0.32 -0.284774,0 -0.428774,-0.144 -0.32,-0.32 0.108774,-0.176 0.252774,-0.32 0.32,-0.32 0.06723,0 0.211226,0.144 0.32,0.32 z m 4.32,0 c 0,0.176 -0.152499,0.32 -0.338886,0.32 -0.186388,0 -0.249888,-0.144 -0.141114,-0.32 0.108774,-0.176 0.261274,-0.32 0.338886,-0.32 0.07761,0 0.141114,0.144 0.141114,0.32 z m -5.526667,0.19333 C 30.847,492.4546 30.571,492.46597 30.34,492.37353 c -0.255275,-0.10215 -0.179448,-0.17797 0.193333,-0.19333 0.337334,-0.0139 0.526334,0.0617 0.42,0.16807 z M 27.2,492.93605 c 0,0.0776 -0.144,0.23011 -0.32,0.33889 -0.176,0.10877 -0.32,0.0453 -0.32,-0.14112 0,-0.18638 0.144,-0.33888 0.32,-0.33888 0.176,0 0.32,0.0635 0.32,0.14111 z m 1.6,0 c 0,0.0776 -0.144,0.23011 -0.32,0.33889 -0.176,0.10877 -0.32,0.0453 -0.32,-0.14112 0,-0.18638 0.144,-0.33888 0.32,-0.33888 0.176,0 0.32,0.0635 0.32,0.14111 z M 89.653706,26.767868 c -0.799466,0.85584 -0.431325,1.66688 0.922028,2.03129 1.730746,0.46605 2.440948,0.20413 2.472679,-0.9119 0.02323,-0.81715 -0.10761,-0.92266 -1.49777,-1.20742 -1.142489,-0.23402 -1.61664,-0.21204 -1.896937,0.088 z m 20.609664,0.2879 c -0.28631,1.14074 0.33098,1.8401 1.38968,1.57437 0.4513,-0.11328 0.91569,-0.3599 1.03197,-0.54806 0.26279,-0.42519 -0.61483,-1.37712 -1.52788,-1.65722 -0.5511,-0.16906 -0.72355,-0.0473 -0.89377,0.63091 z m 11.95531,0.003 c -0.60206,0.64087 -0.64737,0.83719 -0.29204,1.26531 0.33044,0.39815 0.80092,0.46621 2.19534,0.31764 1.685,-0.17959 2.26208,-0.51588 2.27312,-1.32474 0.003,-0.1975 -0.6071,-0.46966 -1.3551,-0.60483 -0.748,-0.13514 -1.52846,-0.28311 -1.73436,-0.32883 -0.20589,-0.0457 -0.69503,0.25827 -1.08696,0.67545 z m 125.53933,-0.29008 c -0.2211,0.0891 -0.33254,0.27443 -0.24764,0.41181 0.20231,0.32733 1.76963,0.0246 1.76963,-0.34173 0,-0.30051 -0.85301,-0.33981 -1.52199,-0.0701 z m -217.173728,0.80596 c -0.436315,0.50957 -0.579111,1.34317 -0.640436,3.73872 -0.04341,1.69559 -0.185904,3.32442 -0.316661,3.61955 -0.130757,0.29517 -0.262365,1.55543 -0.292462,2.80058 -0.06376,2.63779 -0.202383,2.75034 -2.963144,2.40538 l -1.781811,-0.22263 0.105116,0.90864 c 0.09569,0.82717 0.267219,0.94096 1.913018,1.26909 2.18053,0.43472 9.031362,0.0949 11.12029,-0.55162 1.68752,-0.52224 2.275462,-1.25052 1.633773,-2.02371 -0.332589,-0.40073 -0.721139,-0.47891 -1.581443,-0.31817 -0.627287,0.11718 -1.310116,0.35318 -1.517399,0.52444 -0.20728,0.17124 -1.50328,0.33834 -2.88,0.37136 l -2.503123,0.05866 0.100006,-1.92 c 0.172571,-3.31318 -0.140813,-3.10915 4.488826,-2.92234 3.506269,0.14151 3.749878,0.12167 1.811168,-0.14736 -1.232,-0.17097 -3.01328,-0.39075 -3.958403,-0.48838 l -1.718401,-0.17757 0.212793,-1.33219 c 0.117036,-0.73267 0.297045,-1.94416 0.400017,-2.69216 0.175703,-1.27629 0.249997,-1.36 1.206839,-1.36 0.560787,0 1.842851,0.15219 2.849027,0.33818 2.180176,0.40304 3.088128,0.18748 3.088128,-0.73309 0,-0.36947 -0.09475,-0.57699 -0.210557,-0.46119 -0.115808,0.11581 -0.367808,0.0866 -0.56,-0.065 -0.714944,-0.56368 -2.715683,-1.01792 -5.044288,-1.14521 -2.115991,-0.11565 -2.465676,-0.0537 -2.960873,0.52467 z M 225.04,27.206268 c -0.98016,0.39395 -0.90583,0.51641 0.32,0.52713 0.572,0.005 1.4,0.1248 1.84,0.26621 0.79757,0.25635 0.79815,0.25504 0.1904,-0.43309 -0.65151,-0.73769 -1.20162,-0.82201 -2.3504,-0.36025 z m -95.09286,0.43731 c -0.29426,0.35456 -0.19016,0.58973 0.50206,1.13424 1.02961,0.80989 2.13588,0.75203 2.30233,-0.12038 0.22664,-1.18794 -1.99371,-1.99066 -2.80439,-1.01386 z M 256.96,27.430198 c 0,0.35901 1.63162,0.61143 5.92,0.91581 2.9933,0.21245 3.76449,0.49642 3.46535,1.27597 -0.12351,0.32186 -0.0216,0.40074 0.33902,0.26237 0.6301,-0.24179 0.63192,-0.42835 0.0122,-1.24941 -0.40283,-0.53373 -0.99894,-0.67309 -3.58983,-0.8393 -1.70873,-0.10963 -3.79078,-0.30918 -4.62678,-0.44348 -0.96879,-0.15565 -1.52,-0.12733 -1.52,0.078 z m -54.86101,0.46471 c -1.7572,0.38374 -1.89035,0.65862 -0.22642,0.46745 1.3059,-0.15001 1.9223,-0.39155 1.62076,-0.6351 -0.0733,-0.0593 -0.70078,0.0163 -1.39434,0.16765 z M 216.48,27.727478 c -3.12024,0.25588 -4.6386,0.49085 -4.51056,0.69802 0.21304,0.3447 6.61738,-0.16938 7.01076,-0.56275 0.36097,-0.36096 0.29551,-0.36451 -2.5002,-0.13527 z m 22.56,0.47338 c -1.144,0.13181 -2.476,0.16394 -2.96,0.0714 -0.55542,-0.10614 -0.88,-0.0298 -0.88,0.20714 0,0.27101 0.9781,0.34477 3.51928,0.26541 1.9356,-0.0604 3.5196,-0.14083 3.52,-0.17863 0.004,-0.38611 -1.51399,-0.55948 -3.19928,-0.36534 z m 33.80189,0.12029 c -0.13538,0.35283 0.0608,0.47379 0.76815,0.47379 0.55924,0 0.94996,-0.1687 0.94996,-0.41021 0,-0.58211 -1.49785,-0.63753 -1.71811,-0.0636 z m -92.31605,0.11869 c -0.32989,0.20902 -0.34173,0.33222 -0.0493,0.51296 0.21204,0.13104 0.61743,0.005 0.90274,-0.28 0.43179,-0.43178 0.43998,-0.51706 0.0493,-0.51296 -0.25771,0.003 -0.66394,0.1287 -0.90273,0.28 z m 30.29416,0.25369 c 0.231,0.0924 0.507,0.0811 0.61333,-0.0253 0.10634,-0.10633 -0.0827,-0.18198 -0.42,-0.16809 -0.37278,0.0154 -0.4486,0.0912 -0.19333,0.19334 z m -54.98,1.06141 c -0.264,0.17062 -0.9048,0.31242 -1.424,0.3151 -0.67204,0.004 -0.8451,0.10381 -0.6007,0.3482 0.40604,0.40604 2.9847,-0.17767 2.9847,-0.67562 0,-0.38931 -0.34539,-0.38486 -0.96,0.0125 z m -32.32,0.70019 c -0.616,0.17735 -1.948,0.26317 -2.96,0.19072 -1.37318,-0.0983 -1.84,-0.025 -1.84,0.28867 0,0.77546 5.95877,0.27738 6.864,-0.57376 0.39452,-0.37094 -0.60692,-0.32515 -2.064,0.0944 z m 130.31175,0.23677 c 0.0701,0.36304 0.91045,0.46906 4.08825,0.51581 2.21301,0.0325 4.45619,0.23257 5.02114,0.44777 0.56162,0.21389 1.35362,0.33056 1.76,0.25924 0.6531,-0.11463 0.59085,-0.19594 -0.53628,-0.70042 -1.75405,-0.78509 -10.46893,-1.22566 -10.33311,-0.5224 z m -151.11175,0 c -1.144,0.10045 -1.936,0.27066 -1.76,0.37827 0.52873,0.32323 5.40313,0.29095 5.92,-0.0392 0.37432,-0.2391 0.29202,-0.30768 -0.37383,-0.31152 -0.4696,-0.003 -1.0456,-0.0511 -1.28,-0.10752 -0.23439,-0.0564 -1.36217,-0.0205 -2.50617,0.08 z m 106.77391,-0.0214 c -0.44788,0.17642 -0.18045,0.35869 1.13417,0.77309 1.74588,0.55033 6.65192,0.72832 6.65192,0.24131 0,-0.34195 -1.6789,-0.65024 -3.54111,-0.65024 -0.84762,0 -1.63012,-0.144 -1.73889,-0.32 -0.22494,-0.36397 -1.63124,-0.38877 -2.50609,-0.0442 z m 63.28725,0.23027 c -0.56841,0.46314 -0.57138,0.49034 -0.035,0.32 0.3224,-0.10237 0.7989,-0.18611 1.05889,-0.18611 0.25999,0 0.38371,-0.144 0.27494,-0.32 -0.27487,-0.44474 -0.57786,-0.40134 -1.29884,0.18611 z m 8.81253,-0.18221 c -0.64771,0.40029 -0.0284,0.56653 2.64631,0.71031 1.61588,0.0869 2.16,0.0115 2.16,-0.29882 0,-0.29952 -0.51306,-0.39673 -1.84424,-0.34947 -1.01433,0.036 -1.99321,-0.0266 -2.17528,-0.1391 -0.18207,-0.11252 -0.53612,-0.0778 -0.78679,0.0771 z m -152.14002,0.29399 c -0.33567,0.54313 0.43413,0.69545 1.73895,0.34409 0.70806,-0.19065 1.28738,-0.41308 1.28738,-0.4943 0,-0.28541 -2.84438,-0.14419 -3.02633,0.15021 z m 94.76185,-0.0867 c -0.43829,0.4383 -0.19335,0.65587 0.57336,0.50931 0.43389,-0.0829 1.21229,-0.003 1.72979,0.17718 0.78318,0.27303 0.96391,0.23869 1.07817,-0.2048 0.11305,-0.43888 -0.15397,-0.54733 -1.51427,-0.61501 -0.90835,-0.0452 -1.74852,0.0147 -1.86705,0.13332 z m 10.19065,0.0871 c -0.7006,0.14573 -1.43802,0.20199 -1.6387,0.12496 -0.3538,-0.13574 -0.91956,0.81136 -0.6473,1.08362 0.0744,0.0744 0.68976,-0.0128 1.36753,-0.19392 0.67777,-0.18103 2.48028,-0.29847 4.00559,-0.26103 2.54861,0.0626 3.53667,-0.1286 3.07105,-0.59424 -0.31828,-0.31827 -4.83275,-0.43513 -6.15817,-0.15939 z m 12.84716,-0.0849 c -0.76198,0.76199 0.29383,0.99664 1.24551,0.27684 0.59807,-0.45236 0.59043,-0.47021 -0.20551,-0.48 -0.45466,-0.005 -0.92266,0.0858 -1.04,0.20316 z m -211.057522,0.4529 c -0.772304,0.15168 -1.492304,0.37037 -1.6,0.48595 -0.250813,0.26915 2.711139,-0.15587 3.606451,-0.51753 0.643946,-0.26013 0.645827,-0.27303 0.03774,-0.25898 -0.352,0.008 -1.271885,0.13888 -2.044192,0.29056 z M 89.92,31.345948 c -0.531462,0.35348 -0.652282,0.31968 1.550522,0.43376 0.588784,0.0304 1.137283,-0.0526 1.218883,-0.18464 0.0816,-0.13203 -0.112131,-0.24201 -0.430519,-0.24444 -0.318387,-0.003 -0.866886,-0.0763 -1.218886,-0.16416 -0.352,-0.0879 -0.856,-0.016 -1.12,0.15948 z m 97.52,0.25882 c -0.308,0.0645 -0.56,0.26662 -0.56,0.44931 0,0.21287 0.43095,0.24653 1.2,0.0938 1.03406,-0.20544 2.21932,-0.2295 4.24,-0.0861 1.00845,0.0716 1.6,-0.0794 1.6,-0.40835 0,-0.31824 -5.0117,-0.35584 -6.48,-0.0486 z m -119.6,0.39017 c 0,0.176 0.432,0.32 0.96,0.32 0.528,0 0.96,-0.144 0.96,-0.32 0,-0.176 -0.432,-0.32 -0.96,-0.32 -0.528,0 -0.96,0.144 -0.96,0.32 z m 42.56,0 c 0,0.176 0.288,0.32 0.64,0.32 0.352,0 0.64,-0.144 0.64,-0.32 0,-0.176 -0.288,-0.32 -0.64,-0.32 -0.352,0 -0.64,0.144 -0.64,0.32 z m 58.08,0.18083 c -2.288,0.22627 -4.268,0.42215 -4.4,0.4353 -0.132,0.0131 -0.24,0.18723 -0.24,0.38688 0,0.25878 0.66605,0.29587 2.32,0.12918 1.276,-0.12861 3.04,-0.27779 3.92,-0.33158 1.86471,-0.11395 3.04,-0.43792 3.04,-0.83792 0,-0.15549 -0.108,-0.26256 -0.24,-0.23799 -0.132,0.0246 -2.112,0.22986 -4.4,0.45613 z m 31.41216,-0.16067 c 0.46383,0.46384 2.29257,0.4831 2.74672,0.0288 0.27883,-0.27882 -0.0536,-0.36912 -1.35888,-0.36912 -1.22026,0 -1.62805,0.0999 -1.38784,0.34016 z m -81.79846,0.97434 c -0.43246,0.17267 -1.1399,0.27152 -1.57208,0.21971 -0.45864,-0.055 -0.84877,0.0932 -0.93707,0.3559 -0.12584,0.3744 0.19252,0.4032 1.89208,0.1713 1.12385,-0.15335 3.12337,-0.30467 4.44337,-0.33629 3.44256,-0.0825 3.52,-0.0923 3.52,-0.44512 0,-0.41645 -6.29078,-0.38691 -7.3463,0.0345 z m 36.91173,0.0214 c -0.0986,0.15955 -0.44305,0.20636 -0.76543,0.10406 -0.32238,-0.1023 -0.669,-0.052 -0.77027,0.1119 -0.10127,0.16384 0.3249,0.39341 0.94706,0.51015 1.18574,0.22243 2.38321,-0.003 2.38321,-0.44631 0,-0.37753 -1.58175,-0.62416 -1.79457,-0.2798 z m -16.61252,0.27552 c -0.30476,0.49312 -0.26764,0.50646 2.40709,0.8648 2.93939,0.39379 8.05213,0.097 8.24205,-0.47844 0.10287,-0.31168 -0.79141,-0.38368 -3.97466,-0.32 -2.25906,0.0452 -4.63616,-0.0301 -5.28244,-0.16764 -0.76475,-0.1626 -1.25081,-0.12724 -1.39204,0.10128 z m -36.13041,0.23228 c -0.0458,0.046 -0.92035,0.14797 -1.94339,0.22647 -2.33214,0.17901 -3.170688,0.80983 -1.076444,0.80983 0.797864,0 1.544034,-0.0934 1.658164,-0.20749 0.11412,-0.11411 1.3773,-0.17657 2.80707,-0.13878 1.88022,0.0497 2.56475,-0.0358 2.4737,-0.30893 -0.10585,-0.31754 -3.64039,-0.66122 -3.9191,-0.38106 z m -26.413233,0.38618 c -0.963824,0.60461 0.130845,0.77344 4.683203,0.72234 4.64698,-0.0522 6.883927,-0.36836 2.960864,-0.4185 -3.228297,-0.0413 -5.927235,-0.21091 -6.577068,-0.41338 -0.327946,-0.10217 -0.808096,-0.0529 -1.066999,0.10954 z m 54.321173,0.0853 c 0.54008,0.26019 0.82779,0.25453 1.104,-0.0218 0.28475,-0.28477 0.11108,-0.36841 -0.73044,-0.3519 -1.0368,0.0202 -1.05954,0.0431 -0.37356,0.37357 z m -87.086162,0.40482 c -0.227113,0.59184 0.04039,0.59184 1.075722,0 l 0.8,-0.45731 -0.845763,-0.0112 c -0.465171,-0.006 -0.92865,0.20467 -1.029959,0.46867 z m 48.274324,-0.15773 c -0.241508,0.39075 0.636406,0.77747 1.106073,0.4872 0.184429,-0.11398 0.335325,-0.34275 0.335325,-0.50835 0,-0.40358 -1.189696,-0.38611 -1.441398,0.0211 z m 94.375618,0.0395 c -0.0946,0.15305 0.23251,0.2927 0.72689,0.31033 6.27906,0.22397 7.4652,0.21661 7.62833,-0.0473 0.10358,-0.16762 -0.14417,-0.316 -0.55055,-0.32976 -5.40918,-0.18333 -7.66204,-0.16404 -7.80467,0.0668 z m 75.41999,0.0202 c -3.06118,0.13373 -5.64118,0.31853 -5.73333,0.41065 -0.50894,0.50893 0.86456,0.63696 5.80791,0.54132 5.13947,-0.0995 6.54266,-0.32813 5.79521,-0.94442 -0.1672,-0.13786 -2.8086,-0.14125 -5.86979,-0.008 z M 65.76,34.554938 c -0.119398,0.19318 0.380365,0.33901 1.261114,0.368 0.802387,0.0262 1.626886,0.0624 1.83222,0.08 0.205332,0.0176 0.433332,-0.148 0.506666,-0.368 0.164886,-0.49466 -3.296192,-0.57158 -3.6,-0.08 z M 200,34.617498 c 1.57388,0.3432 2.45146,0.89744 1.42098,0.89744 -0.70584,0 -1.47362,1.00371 -1.15161,1.5055 0.29786,0.46416 1.42581,0.76381 1.83397,0.4872 0.5272,-0.35731 0.78789,-1.308 0.42087,-1.53481 -0.18031,-0.11146 -0.24115,-0.42855 -0.13519,-0.70467 0.27772,-0.72372 -0.40359,-1.02756 -2.22902,-0.99405 l -1.6,0.0294 1.44,0.31401 z m -149.734371,0.70656 c -0.313658,0.37792 0.113827,0.4856 2.697091,0.67926 3.97128,0.29776 8.374026,0.0678 8.884282,-0.46396 0.318102,-0.33152 0.08807,-0.37021 -1.207002,-0.20301 -1.743226,0.22505 -7.34481,0.29529 -8.230739,0.1032 -0.302906,-0.0657 -0.650906,-0.21959 -0.773331,-0.34202 -0.358301,-0.3583 -0.968682,-0.25741 -1.370301,0.22653 z m 114.284541,-0.0578 c -1.60607,0.41616 -1.21109,0.6753 0.64983,0.4263 0.924,-0.12361 3.30921,-0.21302 5.30045,-0.19865 2.52123,0.0182 3.55548,-0.0791 3.40644,-0.32023 -0.2495,-0.40371 -7.72704,-0.32972 -9.35672,0.0926 z m -47.22632,0.1777 c -0.23467,0.37968 6.57718,1.09366 6.94534,0.72796 0.14806,-0.14707 -0.64394,-0.36 -1.76,-0.47312 -1.11605,-0.11315 -2.69766,-0.28419 -3.51468,-0.38009 -0.81702,-0.0959 -1.56881,-0.0396 -1.67066,0.12525 z m 36.21876,0.1064 c -0.44559,0.27539 0.54787,0.60454 1.82468,0.60454 1.06651,0 1.92848,-0.60326 0.9716,-0.68 -1.54415,-0.12381 -2.51629,-0.0976 -2.79628,0.0755 z m 79.41739,0.27239 c 0,0.92 1.26564,1.13373 4.13117,0.6976 1.33586,-0.2033 2.96883,-0.36867 3.62883,-0.36752 0.87133,0 1.2,-0.1337 1.2,-0.49379 0,-0.41284 -0.30818,-0.46343 -1.84,-0.30202 -2.9419,0.30992 -5.29187,0.33696 -6.24,0.0718 -0.7487,-0.20938 -0.88,-0.15059 -0.88,0.39392 z m -7.2,0.0122 c -0.11506,0.18618 0.20372,0.32 0.76223,0.32 0.528,0 1.049,-0.144 1.15777,-0.32 0.11506,-0.18618 -0.20372,-0.32 -0.76223,-0.32 -0.528,0 -1.049,0.144 -1.15777,0.32 z m -151.723443,0.39029 c -0.09935,0.16074 -0.09707,0.37584 0.0051,0.47802 0.102153,0.10214 2.657753,0.25709 5.679117,0.34432 4.07215,0.11754 5.434928,0.064 5.267427,-0.20704 -0.147427,-0.23853 -1.526199,-0.37222 -3.967075,-0.38467 -2.057613,-0.0106 -4.430244,-0.13245 -5.272512,-0.27101 -0.880871,-0.1449 -1.608138,-0.12774 -1.712045,0.0404 z m 135.381193,-0.097 c -0.55451,0.53671 0.41758,0.67341 4.23602,0.59568 3.09928,-0.0631 4.41171,-0.2032 4.50395,-0.48086 0.0992,-0.29862 -0.90855,-0.37475 -4.23602,-0.32 -2.40141,0.0395 -4.42819,0.13184 -4.50395,0.20518 z m -99.80408,0.32455 c -0.23666,0.38291 0.36532,0.7623 0.79155,0.49888 0.35787,-0.22119 0.12293,-0.79677 -0.32522,-0.79677 -0.15523,0 -0.36508,0.13405 -0.46633,0.29789 z m 27.82155,0.0298 c -0.11314,0.18307 0.37752,0.32464 1.18589,0.34217 0.75839,0.0163 2.45889,0.11408 3.77889,0.21696 4.45064,0.34688 6.24,0.28029 6.24,-0.23228 0,-0.3858 -0.94165,-0.48026 -5.50589,-0.55226 -3.33291,-0.0526 -5.58207,0.0364 -5.69889,0.22541 z m -7.51522,0.31235 c 0,0.176 0.504,0.32 1.12,0.32 0.616,0 1.12,-0.144 1.12,-0.32 0,-0.176 -0.504,-0.32 -1.12,-0.32 -0.616,0 -1.12,0.144 -1.12,0.32 z m -77.44,0.32 c 0.44,0.14093 1.736,0.27914 2.88,0.30717 1.144,0.0282 2.753366,0.16195 3.576368,0.2976 0.958944,0.15801 1.820906,0.11344 2.4,-0.12416 0.84295,-0.34583 0.753206,-0.38503 -1.336368,-0.58339 -3.135594,-0.2977 -8.539843,-0.22384 -7.52,0.10278 z m -17.12,0.23898 c -1.232,0.0625 -2.346416,0.2199 -2.476477,0.34979 -0.282371,0.28201 5.831296,0.41219 6.281811,0.13376 0.321616,-0.19875 -0.675228,-0.70896 -1.245334,-0.63738 -0.176,0.0221 -1.328,0.0913 -2.56,0.15383 z M 68,37.434938 c -0.108774,0.176 0.01824,0.32 0.28223,0.32 0.264,0 0.568996,-0.144 0.67777,-0.32 0.108774,-0.176 -0.01824,-0.32 -0.28223,-0.32 -0.264,0 -0.568996,0.144 -0.67777,0.32 z m 21.76,0 c -0.1208,0.19546 0.37001,0.32 1.261114,0.32 0.802387,0 1.458886,-0.144 1.458886,-0.32 0,-0.176 -0.567501,-0.32 -1.261114,-0.32 -0.693612,0 -1.350112,0.144 -1.458886,0.32 z m 117.45992,0.18579 c -0.65498,0.65498 -0.39798,1.02599 1.21956,1.76051 1.02277,0.46442 2.09148,0.60122 4.73969,0.60666 3.59062,0.007 5.06083,-0.30701 5.06083,-1.08218 0,-1.01785 -0.85126,-1.40848 -2.42763,-1.11398 -2.03921,0.38099 -6.75177,0.19181 -7.23396,-0.2904 -0.50902,-0.50902 -0.75138,-0.48771 -1.35849,0.11939 z M 170.72,37.950008 c -1.5491,0.42749 -7.08698,0.66461 -7.43331,0.31831 -0.22681,-0.22682 -1.36669,0.3934 -1.36669,0.74364 0,0.84541 4.50493,1.53652 7.80082,1.19671 3.61736,-0.37293 4.26833,-0.79363 3.1697,-2.04851 -0.53687,-0.61322 -0.66488,-0.62564 -2.17052,-0.21015 z m -54.8,0.16768 c -0.68821,0.69725 -0.44509,1.14973 0.90889,1.69146 1.49777,0.59929 5.81295,0.90051 6.91239,0.48249 0.54741,-0.20812 0.73872,-0.53209 0.73872,-1.25094 v -0.97008 l -3.12,0.0805 c -1.716,0.0443 -3.552,-0.0363 -4.08,-0.1791 -0.65438,-0.17693 -1.08734,-0.13056 -1.36,0.14569 z m 174.96,0.10503 c -1.32,0.19408 -2.55489,0.44921 -2.7442,0.56694 -0.18931,0.11776 -1.41331,0.30022 -2.72,0.40554 -2.81266,0.22665 -3.06872,0.27177 -4.2158,0.74265 -0.80807,0.33171 -1.2086,0.98355 -0.64,1.04157 0.132,0.0134 0.528,0.0861 0.88,0.16144 0.67874,0.14528 5.00531,-0.32048 7.68,-0.82669 0.88,-0.16656 2.284,-0.38736 3.12,-0.49065 1.3349,-0.16493 1.52,-0.28052 1.52,-0.94932 0,-0.41881 -0.108,-0.81612 -0.24,-0.88291 -0.132,-0.0668 -1.32,0.0374 -2.64,0.23143 z m -161.12941,0.61952 c -0.46071,0.33689 -0.48816,0.52195 -0.16656,1.12284 0.23781,0.44436 0.56923,0.64884 0.86668,0.53469 0.2649,-0.10166 0.54186,-0.18483 0.61546,-0.18483 0.0736,0 0.13383,-0.34461 0.13383,-0.76576 0,-0.92253 -0.6926,-1.26032 -1.44941,-0.70694 z m 6.80499,-0.2562 c -0.90008,0.90007 0.6378,1.40951 6.16442,2.04205 4.40024,0.50362 4.84987,0.48922 5.33266,-0.17104 0.62723,-0.85779 0.55983,-0.96022 -0.93266,-1.41731 -1.49416,-0.4576 -10.1872,-0.83094 -10.56442,-0.4537 z m 87.12442,0.28906 c -0.71428,0.25754 -1.12,0.612 -1.12,0.97846 0,0.45943 0.30332,0.59226 1.51276,0.66253 1.81769,0.1056 2.45719,-0.5512 1.4841,-1.52429 -0.32827,-0.32828 -0.63286,-0.57968 -0.67686,-0.55868 -0.044,0.0211 -0.584,0.2199 -1.2,0.44198 z m -46.24676,0.28522 c -0.5175,0.3784 -0.54486,0.52275 -0.18198,0.96 0.73829,0.88956 3.37713,0.56544 3.64198,-0.44736 0.25209,-0.964 -2.32129,-1.34528 -3.46,-0.51264 z m 62.13467,-0.22663 c -0.12031,0.12032 -2.03721,0.30032 -4.25977,0.4 -3.32879,0.14931 -4.10134,0.27725 -4.38326,0.72589 -0.18823,0.29958 -0.22745,0.65958 -0.0871,0.8 0.14031,0.14045 2.50463,0.25536 5.25404,0.25536 h 4.99893 l 0.20097,-0.8 c 0.11054,-0.44 0.13772,-0.98 0.0604,-1.2 -0.14868,-0.4231 -1.4138,-0.55162 -1.78418,-0.18125 z m -157.673763,0.23376 c -0.09162,0.0916 -1.567398,0.18755 -3.27951,0.21315 -2.47369,0.037 -3.258906,0.16493 -3.823786,0.62292 -0.390966,0.31699 -0.615088,0.67248 -0.498045,0.79001 0.275037,0.27616 8.476976,0.82362 9.049287,0.604 0.509392,-0.19549 0.828902,-1.18704 0.535481,-1.66179 -0.237046,-0.38355 -1.738086,-0.81363 -1.983427,-0.56829 z m 6.959187,0.0808 c -0.391616,0.39162 -0.219395,1.38666 0.24,1.38666 0.249332,0 0.504327,0.15299 0.566653,0.33997 0.166669,0.5 1.860013,-0.21079 1.860013,-0.78074 0,-0.25113 -0.453488,-0.61472 -1.00775,-0.80793 -1.17472,-0.40951 -1.37105,-0.42583 -1.658916,-0.13796 z M 102.72,39.398558 c -0.44,0.17766 -1.808,0.37081 -3.04,0.42924 -1.232,0.0584 -2.42,0.11994 -2.64,0.13668 -0.22,0.0166 -0.4,0.30995 -0.4,0.65158 0,0.71149 0.524058,1.16672 0.707965,0.61498 0.09216,-0.27645 0.292502,-0.27696 0.806294,-0.003 0.376016,0.20124 1.984071,0.36588 3.573441,0.36588 2.64302,0 2.9217,-0.0596 3.26364,-0.69856 0.3183,-0.59475 0.26716,-0.78496 -0.34419,-1.28 -0.81215,-0.65763 -0.83234,-0.6599 -1.92715,-0.21782 z m 167.40576,0.24614 c -0.61019,0.37987 -0.15236,1.63024 0.59692,1.63024 0.32975,0 0.68855,0.144 0.79732,0.32 0.24135,0.39053 1.44063,0.41117 2.03424,0.035 0.66896,-0.42387 0.14254,-1.5407 -0.84571,-1.79424 -1.65024,-0.42336 -2.1502,-0.46032 -2.58277,-0.19104 z M 253.12,40.280508 c -0.47875,0.13206 -0.83966,0.49385 -0.89877,0.90096 -0.0858,0.59081 0.14062,0.73001 1.72091,1.05808 1.73074,0.35929 5.11027,0.48675 9.78317,0.36896 2.02591,-0.0511 2.13549,-0.0942 2.34303,-0.92103 0.29128,-1.16054 -0.55115,-1.80172 -2.0121,-1.53142 -1.16643,0.21578 -9.00686,0.24342 -9.70265,0.0342 -0.23848,-0.0717 -0.79359,-0.031 -1.23359,0.0903 z m 11.26144,10.86518 c -0.27176,0.17527 -0.34376,0.56794 -0.20531,1.11962 0.15739,0.62707 0.41636,0.84963 0.9886,0.84963 0.88995,0 1.329,-0.80579 0.8519,-1.56349 -0.38628,-0.61347 -1.05561,-0.77955 -1.63519,-0.40576 z m 15.36594,353.201522 c -0.22694,0.24625 -0.27143,0.44773 -0.0989,0.44773 0.3323,0 0.81335,-0.60871 0.62354,-0.78902 -0.0616,-0.0585 -0.29772,0.095 -0.52466,0.34129 z"
       style="fill:#000000;stroke-width:0.32" />
  </g>
</svg>
