<?xml version="1.0" encoding="UTF-8" standalone="no"?>
<svg
   xmlnsdc="http://purl.org/dc/elements/1.1/"
   xmlnscc="http://creativecommons.org/ns#"
   xmlnsrdf="http://www.w3.org/1999/02/22-rdf-syntax-ns#"
   xmlnssvg="http://www.w3.org/2000/svg"
   xmlns="http://www.w3.org/2000/svg"
   xmlnssodipodi="http://sodipodi.sourceforge.net/DTD/sodipodi-0.dtd"
   xmlnsinkscape="http://www.inkscape.org/namespaces/inkscape"
   inkscapeversion="1.0beta2 (2b71d25, 2019-12-03)"
   sodipodidocname="notebook.svg"
   viewBox="0 0 485.34472 282.79904"
   height="282.79904"
   width="current"
   id="svg833"
   version="1.1">
  <metadata
     id="metadata839">
    <rdfRDF>
      <ccWork
         rdfabout="">
        <dcformat>image/svg+xml</dcformat>
        <dctype
           rdfresource="http://purl.org/dc/dcmitype/StillImage" />
        <dctitle></dctitle>
      </ccWork>
    </rdfRDF>
  </metadata>
  <defs
     id="defs837" />
  <sodipodinamedview
     inkscapecurrent-layer="g841"
     inkscapewindow-maximized="0"
     inkscapewindow-y="23"
     inkscapewindow-x="0"
     inkscapecy="89.983132"
     inkscapecx="207.40767"
     inkscapezoom="1.2543874"
     showgrid="false"
     id="namedview835"
     inkscapewindow-height="782"
     inkscapewindow-width="1057"
     inkscapepageshadow="2"
     inkscapepageopacity="0"
     guidetolerance="10"
     gridtolerance="10"
     objecttolerance="10"
     borderopacity="1"
     inkscapedocument-rotation="0"
     bordercolor="#666666"
     pagecolor="#ffffff" />
  <g
     transform="translate(86.069663,-110.27762)"
     id="g841"
     inkscapelabel="Image"
     inkscapegroupmode="layer">
    <path
       inkscapeconnector-curvature="0"
       id="path845"
       d="m -85.709291,247.04556 c 0.38572,-0.50353 0.74332,-0.54449 9.82982,-1.12615 1.144,-0.0732 2.512,-0.1869 3.04,-0.25259 0.528,-0.0657 1.48438,-0.13586 2.12531,-0.15592 1.21747,-0.0381 1.4377,-0.3649 1.74983,-2.59649 0.0615,-0.44 0.27158,-1.808 0.46672,-3.04 0.19516,-1.232 0.28988,-2.83328 0.21049,-3.5584 -0.16665,-1.52205 0.19379,-2.3616 1.01395,-2.3616 1.21773,0 1.61968,0.97605 1.44333,3.50489 -0.0906,1.29954 -0.30752,2.62954 -0.48198,2.95557 -0.1745,0.32602 -0.23194,0.73081 -0.12765,0.89954 0.10429,0.16873 0.0557,0.56175 -0.10803,0.87339 -0.16371,0.31163 -0.39904,1.17861 -0.52295,1.92661 l -0.22528,1.36 h 1.12333 c 0.98464,0 1.16586,-0.12897 1.46813,-1.04482 0.18963,-0.57465 0.33414,-2.74797 0.32109,-4.82962 -0.0227,-3.60971 0.0886,-4.40734 0.55021,-3.94574 0.40419,0.40419 0.0999,8.02131 -0.35696,8.93723 -0.31952,0.64045 -0.33738,0.88633 -0.065,0.89525 0.20653,0.007 1.16749,0.0679 2.13549,0.13589 0.968,0.068 4.64,0.22191 8.16,0.34209 3.52,0.12018 7.48,0.32365 8.8,0.45215 1.32,0.1285 2.44902,0.10999 2.5089,-0.0411 0.0599,-0.15112 0.55347,-0.50465 1.09683,-0.78563 0.90653,-0.46878 1.01904,-0.46823 1.36637,0.007 0.20816,0.28468 0.77731,0.5176 1.2648,0.5176 0.86118,0 0.88172,0.0409 0.72403,1.44 -0.12266,1.08815 -0.0546,1.44 0.27837,1.44 0.2424,0 0.44896,0.108 0.45907,0.24 0.0102,0.132 0.0801,0.83232 0.15545,1.55628 0.10503,1.0085 -0.0186,1.49486 -0.52889,2.08 -0.36631,0.42004 -0.87088,1.15763 -1.12128,1.63908 -0.5449,1.04764 -1.70349,1.41012 -2.73386,0.85533 -0.56822,-0.30595 -4.54681,-0.4232 -16.42979,-0.4842 -8.624,-0.0443 -16.04,-0.15426 -16.48,-0.24444 -1.36051,-0.27886 -6.02186,-0.8605 -6.29824,-0.7859 -0.14397,0.0389 -0.58576,-0.0396 -0.98176,-0.17432 -0.79782,-0.27144 -0.93232,-1.07116 -0.32,-1.90272 0.33782,-0.45879 0.57405,-0.48892 1.52,-0.19392 1.02726,0.32038 3.1529,0.60272 8.59562,1.14175 1.89398,0.18758 2.02268,0.15956 1.84979,-0.40267 -0.1097,-0.35669 0.074,-0.93205 0.44838,-1.40427 0.62051,-0.78271 0.64451,-0.78658 1.11021,-0.17884 0.26179,0.34164 0.476,0.87314 0.476,1.18111 0,0.30798 0.1799,0.67114 0.39978,0.80703 0.21987,0.13588 2.95587,0.29553 6.08,0.35475 5.38729,0.10214 5.68022,0.0766 5.68022,-0.49484 0,-0.3314 -0.0909,-0.69345 -0.20202,-0.80456 -0.1111,-0.11111 -0.23267,-0.70708 -0.27014,-1.32438 -0.0497,-0.81824 0.13286,-1.3112 0.67366,-1.81925 0.81424,-0.76496 0.79277,-0.78923 1.31757,1.48855 0.19005,0.82488 0.1824,1.54669 -0.0211,2.00307 -0.1751,0.39242 -0.25974,0.76974 -0.18809,0.8385 0.0716,0.0687 2.88998,0.19141 6.26294,0.27257 l 6.1327,0.14756 -0.15971,-1.15564 c -0.0878,-0.6356 -0.29341,-1.57854 -0.45686,-2.09543 -0.19216,-0.60765 -0.18263,-1.05439 0.0269,-1.264 0.57795,-0.57796 0.34777,-0.74809 -0.89251,-0.65974 -0.66919,0.0477 -2.36119,-0.0367 -3.76,-0.18742 -3.70042,-0.39879 -22.9112,-0.57291 -28.1433,-0.2551 -2.464,0.14968 -5.416,0.48715 -6.56,0.74993 -2.63098,0.60437 -2.8767,0.5983 -3.39456,-0.0839 -0.5207,-0.68597 -0.5224,-0.75296 -0.0353,-1.38886 z m 2.51056,115.82961 c 1.0784,-1.03895 2.3384,-1.97266 2.8,-2.07491 0.4616,-0.10224 1.27126,-0.37138 1.79926,-0.59808 0.528,-0.22671 1.50691,-0.58665 2.17539,-0.79988 0.66845,-0.21322 1.48016,-0.67189 1.80378,-1.01926 0.76307,-0.81905 2.99901,-0.72679 3.16144,0.13044 0.0661,0.3487 -0.17373,0.66705 -0.63731,0.84605 -0.40884,0.15784 -1.09239,0.66226 -1.51908,1.12093 -0.42668,0.45867 -0.93068,0.83884 -1.12,0.84481 -0.18931,0.006 -0.92022,0.28908 -1.62422,0.62914 -0.704,0.34006 -1.53485,0.62317 -1.84637,0.62914 -0.6864,0.0131 -3.24729,1.58388 -2.99449,1.83667 0.22099,0.22097 12.84057,-0.47815 16.36086,-0.90639 2.91818,-0.35499 6.9665,-0.77979 10.24,-1.0745 5.92717,-0.53361 8.04211,-0.77155 8.51875,-0.95839 0.58541,-0.22948 1.65651,0.66772 1.46893,1.23047 -0.15043,0.45122 -2.87674,0.87332 -8.54768,1.32338 -6.10272,0.48433 -7.96237,0.71621 -10.24,1.2768 -0.968,0.23825 -3.97648,0.51096 -6.6855,0.60601 -4.69402,0.1647 -4.98416,0.21348 -6.1738,1.03791 -0.68659,0.4758 -1.35011,1.03108 -1.47452,1.23398 -0.12439,0.20289 -0.94618,0.85349 -1.82618,1.44578 -1.53344,1.03211 -2.06448,1.53206 -2.0751,1.95365 -0.003,0.10698 1.3271,0.15361 2.9551,0.10363 12.73104,-0.39091 15.30874,-0.52746 16.70128,-0.88473 l 1.58128,-0.40568 -0.0881,-1.90387 c -0.0485,-1.04712 -0.11204,-2.03931 -0.14128,-2.20486 -0.0291,-0.16554 0.19878,-0.3561 0.50678,-0.42346 0.49213,-0.10763 0.56,0.1521 0.56,2.14323 v 2.2657 l 2.32,-0.18306 c 1.276,-0.10068 3.28358,-0.31769 4.46131,-0.48224 1.1777,-0.16454 2.8337,-0.30129 3.68,-0.30388 1.31479,-0.004 6.09197,-1.20971 4.9848,-1.25808 -0.66281,-0.029 -0.78541,-1.39716 -0.24176,-2.69828 0.28349,-0.6785 0.44339,-1.42141 0.35533,-1.6509 -0.27107,-0.70646 1.32278,-2.15687 2.14378,-1.95082 0.43356,0.10882 1.09097,-0.0674 1.6663,-0.44663 0.52262,-0.3445 1.18544,-0.62731 1.47293,-0.62847 0.64992,-0.003 1.01536,1.25417 0.53347,1.8348 -0.26342,0.31743 -0.25994,0.52733 0.0134,0.80065 0.46208,0.46209 0.48416,1.73439 0.0349,2.01204 -0.23258,0.14376 -0.22915,0.33556 0.0112,0.62521 0.19072,0.2298 0.30573,0.61298 0.25555,0.85151 -0.0505,0.23991 0.11776,0.38784 0.37655,0.33109 0.53811,-0.11802 1.29878,0.78866 1.27836,1.52375 -0.008,0.27436 -0.87164,1.05653 -1.92,1.73816 -1.04838,0.68162 -1.90614,1.43256 -1.90614,1.66874 0,0.23618 -0.29203,0.58571 -0.64896,0.77674 -0.35693,0.19102 -0.56445,0.48409 -0.46112,0.65125 0.27728,0.44866 -1.2424,0.36961 -1.84662,-0.096 -0.61671,-0.47528 -0.75831,-1.14373 -0.41127,-1.94151 0.45811,-1.05314 -0.27117,-1.34735 -2.31206,-0.93272 -2.34899,0.47723 -6.36592,0.92915 -13.67997,1.53905 -1.408,0.1174 -2.78794,0.33203 -3.0665,0.47695 -0.27859,0.14492 -1.93459,0.3577 -3.68,0.47283 -1.74544,0.11514 -3.31699,0.29739 -3.49238,0.405 -0.24448,0.15002 -8.00326,0.38522 -13.69453,0.41514 -0.54582,0.003 -1.79337,-1.18684 -1.81593,-1.73172 -0.0253,-0.60623 1.55312,-2.47137 3.03088,-3.58182 0.87916,-0.66063 1.72352,-1.31542 1.87638,-1.45509 0.15283,-0.13966 -0.49517,-0.23574 -1.44,-0.21351 -2.00637,0.0472 -2.53408,-0.0788 -3.06659,-0.7326 -0.68208,-0.83738 -0.45853,-1.30476 1.54941,-3.23924 z m 0.15264,-138.47128 c 0.34019,-0.48574 0.81849,-0.68948 1.61859,-0.68948 0.62461,0 2.02045,-0.2298 3.10185,-0.51066 1.08138,-0.28086 2.75818,-0.55267 3.72618,-0.60402 0.968,-0.0513 2.768,-0.18897 4,-0.30584 1.232,-0.11686 2.93757,-0.27694 3.79011,-0.35571 0.85258,-0.0788 1.66327,-0.21314 1.80151,-0.29858 0.13824,-0.0854 2.28112,-0.21887 4.76195,-0.2965 2.48086,-0.0776 4.62217,-0.20983 4.75853,-0.29377 0.13635,-0.0839 3.1279,-0.25456 6.6479,-0.37916 6.35341,-0.2249 7.22714,-0.38047 8.17056,-1.45489 0.84563,-0.96305 2.14701,-0.44673 2.86909,1.13832 0.35129,0.77115 0.90166,1.4345 1.27014,1.53086 0.784,0.20502 0.85386,1.22165 0.15703,2.28517 -0.44426,0.67801 -0.44426,0.80163 0,1.24588 0.67571,0.67571 0.61836,1.41531 -0.14682,1.89316 -0.352,0.21983 -0.64,0.56874 -0.64,0.77536 0,0.20661 -0.68077,0.75616 -1.51283,1.2212 -1.22067,0.68225 -1.65328,0.78155 -2.24,0.51422 -0.79607,-0.36271 -0.95408,-1.27014 -0.32986,-1.89436 0.31331,-0.31331 0.31431,-0.44865 0.005,-0.64001 -0.25011,-0.15459 -0.34278,-0.74407 -0.25526,-1.62389 0.10582,-1.06377 -0.024,-1.60264 -0.56464,-2.34466 l -0.70208,-0.96344 -5.6,0.21188 c -7.44848,0.28181 -10.87101,0.49849 -13.76,0.87114 -1.32,0.17026 -3.264,0.3728 -4.32,0.45007 -5.72368,0.41884 -12.06096,1.24365 -13.66992,1.77917 -2.27645,0.75769 -2.70666,0.76026 -3.10362,0.0185 -0.22745,-0.42505 -0.1807,-0.78374 0.16691,-1.28 z m 0.32316,-87.56032 c 0.27741,-0.27739 1.06807,-0.49449 1.82631,-0.50146 0.73542,-0.007 2.20115,-0.0909 3.25715,-0.1869 1.056,-0.096 2.136,-0.1759 2.4,-0.17748 0.264,-0.002 1.776,-0.15109 3.36,-0.33222 1.584,-0.18113 6.84,-0.37095 11.68,-0.42183 9.29424,-0.0977 16.05517,-0.33554 17.12,-0.60226 0.352,-0.0882 0.784,-0.48659 0.96,-0.88539 0.43594,-0.98778 2.18672,-1.4806 2.86179,-0.80555 0.27402,0.27402 0.49821,0.63709 0.49821,0.80683 0,0.36378 0.76854,0.6971 1.6073,0.6971 0.8192,0 1.0518,0.49687 0.61484,1.31338 -0.27692,0.51742 -0.27638,0.85682 0.003,1.37731 0.29191,0.54546 0.26557,0.8903 -0.12537,1.64 -0.27226,0.52212 -0.49591,1.13126 -0.49696,1.35365 0,0.22239 -0.12919,0.65439 -0.28464,0.96 -0.15549,0.30561 -0.46781,0.95166 -0.69408,1.43566 -0.22627,0.484 -0.59491,0.88 -0.8192,0.88 -0.22426,0 -0.59594,0.26332 -0.82592,0.58517 -0.59603,0.83409 -2.46848,1.43782 -3.02551,0.97551 -0.50176,-0.41642 -0.58435,-1.56068 -0.11264,-1.56068 0.176,0 0.32,-0.2124 0.32,-0.472 0,-0.33724 -0.25123,-0.43 -0.88,-0.32488 -0.484,0.0809 -4.264,0.21585 -8.4,0.29987 -4.136,0.084 -8.456,0.3079 -9.6,0.49752 -1.144,0.18963 -4.6,0.40668 -7.68,0.48236 -6.68563,0.16426 -8.48784,0.37067 -9.1671,1.04994 -0.4673,0.4673 -0.45194,0.55787 0.18144,1.07075 1.16682,0.94484 4.23322,1.94317 6.50195,2.11684 2.23616,0.17118 2.95901,0.58255 2.6121,1.48657 -0.14941,0.38939 -0.46605,0.48549 -1.20551,0.36589 -0.55158,-0.0892 -1.79488,-0.23867 -2.76288,-0.33212 -1.89116,-0.18258 -2.94425,-0.43937 -3.2,-0.7803 -0.088,-0.11732 -0.84998,-0.4721 -1.69328,-0.78841 -1.5911,-0.59679 -2.39142,-1.46311 -2.64534,-2.86343 -0.16422,-0.90563 0.71987,-1.96139 2.09862,-2.50614 1.87332,-0.74015 5.652,-1.25197 7.74384,-1.04888 2.39031,0.23206 4.84327,-0.0614 4.54516,-0.54375 -0.10656,-0.17241 -0.38324,-0.24074 -0.61488,-0.15185 -0.55015,0.21111 -0.90215,-0.72224 -0.46916,-1.24396 0.62999,-0.75907 1.57959,-0.78081 1.97332,-0.0452 0.20342,0.38013 0.34553,0.72714 0.3158,0.77114 -0.25996,0.38458 0.0876,0.72 0.74592,0.72 0.5753,0 0.8,-0.17242 0.8,-0.61383 0,-0.83605 0.32759,-1.62617 0.67424,-1.62617 0.15716,0 0.28576,0.43601 0.28576,0.96891 v 0.96891 l 2.16,-0.21267 c 1.188,-0.11696 2.21031,-0.25527 2.27178,-0.30735 0.0615,-0.0521 0.009,-0.70262 -0.11648,-1.44566 l -0.22826,-1.35099 -7.24352,0.25816 c -3.98393,0.142 -8.03552,0.30006 -9.00352,0.35126 -0.968,0.0512 -2.264,0.11141 -2.88,0.13381 l -1.12,0.0407 1.15008,0.42341 c 2.01101,0.74039 3.16992,1.45321 3.16992,1.94975 0,0.71267 -0.88243,0.92382 -1.86041,0.44517 -0.47277,-0.23138 -2.13971,-0.86397 -3.70429,-1.40575 -3.06214,-1.06033 -3.88314,-1.88413 -2.87875,-2.88852 z m 25.70064,3.44713 c 0.29572,0.30634 -0.11625,0.29929 7.92967,0.13554 4.61446,-0.0939 6.60809,-0.24885 6.96,-0.54091 0.55286,-0.45884 0.66448,-1.29092 0.17315,-1.29092 -0.176,0 -0.32,-0.37684 -0.32,-0.83743 v -0.83742 l -3.6,0.19757 c -1.98,0.10867 -4.38435,0.23351 -5.34298,0.27743 l -1.74297,0.0798 -0.017,1.12 c -0.0157,1.02733 -0.0965,1.12 -0.97703,1.12 -0.7358,0 -0.96761,-0.14947 -0.9926,-0.64 -0.0704,-1.38109 -0.12944,-1.44 -1.44301,-1.44 h -1.31562 l 0.22051,1.2 c 0.12128,0.66 0.33184,1.31533 0.46791,1.45629 z m -25.52995,132.03844 c 0.39488,-0.21134 1.80579,-0.42869 3.13536,-0.483 1.32957,-0.0543 3.02339,-0.24953 3.764,-0.43384 0.74064,-0.1843 1.60464,-0.30553 1.92,-0.26939 0.31539,0.0361 2.21107,-0.0562 4.21267,-0.20511 l 3.6393,-0.27082 -0.19955,-2.27629 c -0.10976,-1.25195 -0.28874,-3.17628 -0.39773,-4.27628 -0.12106,-1.22152 -0.0767,-2 0.11386,-2 0.29417,0 0.6336,2.42525 0.89574,6.4 0.0638,0.968 0.12349,1.83584 0.13261,1.92854 0.009,0.0927 1.13251,0.0535 2.49651,-0.0872 1.364,-0.14063 3.35043,-0.31698 4.41427,-0.3919 1.06384,-0.0749 2.92867,-0.29506 4.14407,-0.48923 1.21542,-0.19416 4.30499,-0.32525 6.86576,-0.29131 4.3511,0.0577 4.73683,0.0134 5.89219,-0.67664 l 1.23629,-0.73835 1.23484,1.33733 c 1.01428,1.09843 1.20208,1.50112 1.05149,2.25421 -0.10086,0.50428 -0.0404,1.00523 0.13431,1.11322 0.36518,0.2257 0.17024,3.25007 -0.26154,4.0568 -0.15846,0.29612 -1.11869,0.93165 -2.13379,1.41228 -1.56423,0.74064 -1.94346,0.81279 -2.48717,0.47325 -0.59363,-0.37073 -2.49798,-0.42215 -5.29072,-0.14286 -0.616,0.0616 -2.56,0.20481 -4.32,0.31823 -1.76,0.11343 -5,0.3528 -7.2,0.53195 -2.2,0.17915 -4.864,0.3823 -5.92,0.45144 -1.056,0.0692 -2.64,0.19699 -3.52,0.28411 -0.88,0.0871 -3.27699,0.24425 -5.32669,0.3492 l -3.72669,0.19082 -0.7975,-0.86011 c -0.7264,-0.78337 -0.75379,-0.91119 -0.3072,-1.43278 0.44118,-0.51529 0.62963,-0.53075 1.88048,-0.1543 1.06826,0.32149 2.18762,0.34729 4.83389,0.11137 1.89405,-0.16885 4.52371,-0.37219 5.84371,-0.45187 1.32,-0.0797 3.336,-0.25355 4.48,-0.38639 l 2.08,-0.24153 -0.0858,-1.35416 c -0.11379,-1.79542 0.46829,-1.74281 0.73968,0.0668 l 0.21309,1.42102 1.80649,-0.12291 c 0.9936,-0.0676 3.53453,-0.2042 5.64653,-0.30354 7.02598,-0.33049 8.16,-0.48912 8.16,-1.1414 0,-0.31947 0.15264,-0.63174 0.3392,-0.69392 0.22035,-0.0735 0.17056,-0.43818 -0.14218,-1.04098 -0.34169,-0.65859 -0.38998,-1.09877 -0.16633,-1.51662 0.2559,-0.4782 0.16841,-0.64447 -0.46605,-0.88569 -1.33914,-0.50914 -9.2743,-0.50445 -11.17219,0.007 -0.67536,0.18185 -1.47194,0.29904 -1.77018,0.26041 -0.29824,-0.0386 -1.19027,0.0305 -1.98227,0.15366 -0.792,0.12313 -1.944,0.25873 -2.56,0.30134 -0.616,0.0426 -1.13587,0.21776 -1.1553,0.38923 -0.0195,0.17148 -0.1454,0.77978 -0.28,1.35178 -0.35664,1.5157 -0.9054,1.30315 -0.64316,-0.24911 l 0.21779,-1.28911 -1.86967,0.0522 c -1.02832,0.0287 -2.08566,0.15972 -2.34966,0.29119 -0.264,0.13148 -1.704,0.32312 -3.2,0.42587 -3.35574,0.23049 -10.22944,1.05137 -10.88,1.29933 -0.62739,0.23912 -1.14099,-0.12122 -1.41226,-0.99084 -0.1655,-0.53063 -0.0444,-0.79369 0.49949,-1.08476 z m -0.12233,-103.17473 c 0.50265,-0.68416 1.69248,-1.08608 4.19283,-1.41631 4.73945,-0.62596 7.53449,-0.94649 9.96227,-1.14248 5.012,-0.40459 6.3001,-0.53084 8.32,-0.81545 1.144,-0.1612 2.74,-0.29594 3.54666,-0.29942 1.58492,-0.007 2.04361,-0.22742 1.61558,-0.7769 -0.60794,-0.78047 -0.63766,-2.28007 -0.0604,-3.04538 0.64537,-0.85561 1.6151,-0.73258 1.62284,0.2059 0.003,0.31352 0.18794,0.93004 0.41184,1.37004 0.35226,0.69218 0.32791,0.86469 -0.18073,1.28 -0.52739,0.43059 0.0147,0.48 5.26816,0.48 h 5.85605 l -0.0805,-1.54891 c -0.0595,-1.14414 0.0841,-1.75814 0.54934,-2.34961 l 0.62986,-0.80072 -0.94938,-0.79883 c -0.52212,-0.43935 -0.94932,-1.08349 -0.94932,-1.43142 0,-0.91272 0.58502,-1.87051 1.14253,-1.87051 0.264,0 0.83565,-0.23304 1.27033,-0.51785 0.63655,-0.4171 0.88343,-0.4406 1.26874,-0.12082 0.26314,0.21837 0.4784,0.5954 0.4784,0.83785 0,0.24714 0.32461,0.44082 0.73885,0.44082 0.87046,0 2.08595,0.80187 1.73993,1.14787 -0.13209,0.1321 -2.8e-4,0.50528 0.29293,0.82927 0.45971,0.50798 0.4744,0.69878 0.10663,1.38597 -0.35261,0.65885 -0.3538,0.93269 -0.007,1.58082 0.34233,0.63965 0.34432,0.96562 0.0109,1.77099 -0.43828,1.05804 -2.573,3.09067 -4.34228,4.13456 -0.97164,0.5733 -1.13545,0.58918 -1.57225,0.15239 -0.26816,-0.26817 -0.48759,-0.58733 -0.48759,-0.70923 0,-0.33 -9.60515,-0.17878 -13.2295,0.20828 -1.73222,0.185 -3.33766,0.26415 -3.56762,0.1759 -0.22998,-0.0883 -0.51321,-0.007 -0.6294,0.18136 -0.11946,0.19329 -1.28068,0.34522 -2.67236,0.34964 -1.35363,0.004 -3.03712,0.13443 -3.74112,0.28918 -0.704,0.15475 -2.72,0.36794 -4.48,0.47376 -3.74707,0.2253 -7.55888,0.82747 -7.35241,1.1615 0.15827,0.25609 2.45718,0.66272 4.46934,0.79054 0.70231,0.0446 1.96778,-0.0981 2.81213,-0.31712 1.43459,-0.37212 1.55824,-0.35524 1.88618,0.25751 0.29641,0.55384 0.20896,0.77785 -0.56276,1.44165 -0.89164,0.76696 -1.00268,0.78086 -4.60307,0.57629 -5.49001,-0.31195 -8.00851,-1.00231 -8.62966,-2.36556 -0.39847,-0.87459 -0.39187,-0.79129 -0.0949,-1.19557 z m 1.29539,147.06712 c 1.3352,-1.22042 4.05424,-2.71832 6.98809,-3.84971 0.55463,-0.21388 1.28896,-0.70129 1.63188,-1.08314 0.85625,-0.95348 1.76806,-4.46799 1.73939,-6.70418 -0.0163,-1.27344 0.0953,-1.82589 0.3583,-1.77286 0.21011,0.0424 0.69267,-0.0951 1.07235,-0.30546 0.62176,-0.34453 0.72343,-0.28751 1.02384,0.57427 0.2602,0.74637 0.19162,1.49864 -0.31184,3.42077 -0.35494,1.3552 -0.72441,2.59187 -0.82099,2.74817 -0.0966,0.1563 -0.22704,1.15997 -0.28985,2.23038 -0.11796,2.01055 -0.49911,2.59457 -1.49168,2.2857 -0.30813,-0.0959 -0.97834,0.12341 -1.48941,0.4873 -0.51104,0.36391 -1.08445,0.66164 -1.27424,0.66164 -0.18983,0 -1.24759,0.51031 -2.35063,1.13403 l -2.0055,1.13402 1.6,-0.20326 c 0.88,-0.11179 2.104,-0.32833 2.72,-0.48119 1.42886,-0.35457 6.66886,-0.99484 8.96,-1.09481 2.93427,-0.12803 14.2329,-1.08659 14.73261,-1.24989 1.05229,-0.34387 7.69654,-0.49198 8.49261,-0.18931 0.66569,0.25309 1.05446,0.191 1.84886,-0.29529 0.55325,-0.33868 1.35802,-0.66494 1.78835,-0.72504 0.68227,-0.0953 0.81808,0.0546 1.06083,1.17074 0.15312,0.704 0.31056,2.072 0.34989,3.04 0.0393,0.968 0.18509,2.00094 0.32397,2.29543 0.26669,0.56554 -0.15869,1.03082 -2.99712,3.27821 -1.62144,1.28381 -2.54032,1.45074 -2.7873,0.50636 -0.17568,-0.67188 -0.57404,-0.8356 -0.8696,-0.3574 -0.0961,0.15543 -1.00454,0.38255 -2.01888,0.5047 -1.01433,0.12216 -3.14022,0.49139 -4.72422,0.82052 -1.584,0.32912 -3.312,0.63657 -3.84,0.6832 -0.528,0.0466 -1.1185,0.19801 -1.31219,0.3364 -0.19373,0.13838 -5.3889,0.31485 -11.54483,0.39215 -6.15597,0.0773 -11.58029,0.23783 -12.05402,0.35674 -0.9169,0.23012 -2.76896,-0.36234 -2.76896,-0.88576 0,-0.17149 0.252,-0.75109 0.56,-1.288 0.7863,-1.37068 5.89827,-3.76255 8.04141,-3.76255 2.04115,0 2.68585,0.52091 2.68585,2.17012 0,0.90573 0.15805,1.37555 0.50794,1.50981 0.77232,0.29636 12.42112,-0.0976 14.6048,-0.49389 1.056,-0.19166 2.856,-0.47587 4,-0.63159 1.144,-0.15571 2.656,-0.43073 3.36,-0.61115 0.704,-0.18042 1.73773,-0.33147 2.29715,-0.33566 0.55943,-0.004 1.23312,-0.22364 1.49712,-0.48764 0.65085,-0.65085 1.48343,-0.60632 1.49591,0.08 0.009,0.51235 0.0493,0.50834 0.46976,-0.0471 0.53094,-0.70143 0.35414,-1.20725 -0.33018,-0.94465 -0.25837,0.0992 -0.46976,0.0209 -0.46976,-0.17397 0,-0.19484 0.14627,-0.35424 0.32509,-0.35424 0.3975,0 0.32205,-1.84261 -0.11111,-2.7134 -0.37593,-0.75576 -1.04806,-1.46584 -1.22246,-1.29147 -0.0685,0.0686 -2.6417,0.28896 -5.71808,0.48976 -5.9104,0.3858 -8.01382,0.53734 -10.87344,0.78336 -0.968,0.0833 -3.632,0.30063 -5.92,0.483 -4.46986,0.35629 -5.63046,0.52241 -6.88,0.98481 -0.44,0.16282 -2.2255,0.5064 -3.96778,0.7635 -2.77628,0.4097 -3.27932,0.40978 -4.07049,6.4e-4 -1.68544,-0.87157 -1.68973,-1.46821 -0.0214,-2.99308 z m 5.53936,7.80417 c 1.6608,-0.36477 2.00995,-0.42129 2.76035,-0.44681 0.82739,-0.0281 0.89702,-0.30004 0.28963,-1.13073 -0.39747,-0.54356 -0.50147,-0.55099 -1.36,-0.0972 -0.51129,0.27024 -1.32563,0.64849 -1.80963,0.84055 -1.23523,0.49017 -1.14602,1.11221 0.11965,0.83422 z m -5.23965,14.46379 c 2.71469,-2.71703 5.88186,-4.5374 7.28269,-4.18581 0.94093,0.23616 0.944,0.24936 0.29107,1.24586 -0.59197,0.90348 -2.66102,2.24036 -3.28589,2.12314 -0.23763,-0.0446 -0.34473,0.0603 -0.23798,0.233 0.10675,0.17274 -0.34679,0.65037 -1.00791,1.0614 l -1.20198,0.74733 0.96,0.11427 c 1.08122,0.12869 6.00774,-0.53077 7.13971,-0.95572 0.40682,-0.15273 4.29482,-0.49706 8.64,-0.76518 4.34515,-0.26813 9.23075,-0.70032 10.85683,-0.96043 1.62612,-0.26012 3.66013,-0.47294 4.52,-0.47294 2.4081,0 3.44784,-0.30605 3.89812,-1.14738 1.36531,-2.55112 4.25945,-0.052 3.65721,3.15811 -0.1487,0.79269 -0.0329,1.22855 0.48525,1.82594 0.39018,0.44987 0.61293,1.04336 0.52205,1.39089 -0.0872,0.3334 0,0.86129 0.19549,1.17308 0.28326,0.45358 0.20096,0.75174 -0.41181,1.49163 -1.89674,2.29026 -3.39424,2.96459 -3.99011,1.79674 -0.21783,-0.42689 -0.48064,-0.59568 -0.65776,-0.42241 -0.16224,0.15872 -3.85888,0.33466 -8.21479,0.39099 -4.35587,0.0563 -7.91987,0.18298 -7.92,0.28145 -2.2e-4,0.21865 -5.52749,0.87714 -9.38291,1.11785 -1.55251,0.0969 -3.20109,0.32008 -3.66352,0.4959 -0.46246,0.17582 -2.59734,0.28076 -4.74419,0.23319 -3.30378,-0.0732 -3.9568,-0.17206 -4.25127,-0.64358 -0.54156,-0.86718 -0.15558,-1.38644 2.23232,-3.00314 2.01757,-1.36596 2.34746,-1.48693 3.65344,-1.33973 0.78957,0.089 1.64311,0.33404 1.89674,0.54454 0.58106,0.48222 0.26835,1.39861 -0.39094,1.14562 -0.68119,-0.2614 -2.68989,0.4514 -2.53789,0.90059 0.14038,0.41482 2.68067,0.47361 5.18803,0.12008 0.88,-0.12408 3.63254,-0.36772 6.11674,-0.54143 2.48422,-0.1737 4.73606,-0.39997 5.00409,-0.50283 0.54227,-0.20809 0.96384,-1.79311 0.67623,-2.5426 -0.11626,-0.30301 0,-0.4835 0.30982,-0.4835 0.78026,0 0.8865,0.48194 0.37574,1.70437 -0.45699,1.09371 -0.44873,1.13616 0.24212,1.24376 0.3934,0.0613 1.21926,0.0131 1.83526,-0.10708 0.616,-0.12016 3.76806,-0.29254 7.00461,-0.38306 6.05037,-0.16922 6.52563,-0.28374 6.20861,-1.49603 -0.0816,-0.31196 0.0791,-1.0069 0.35696,-1.54431 0.53955,-1.04335 0.41235,-1.75513 -0.47162,-2.6391 -0.48838,-0.48838 -0.94147,-0.52005 -4.02445,-0.28134 -5.98393,0.46331 -7.49875,0.81647 -5.98832,1.39609 0.28919,0.11097 0.4424,0.28518 0.34045,0.38714 -0.10195,0.10195 -0.0475,0.54808 0.12106,0.99139 0.21004,0.55242 0.19129,0.94479 -0.0596,1.24709 -0.62041,0.74753 -1.25293,0.49213 -1.48333,-0.59892 -0.23718,-1.12333 -0.2391,-1.08419 0.0944,-1.94163 0.21315,-0.54794 0.0154,-0.57048 -3.41629,-0.38921 -6.88957,0.36395 -9.32343,0.64038 -14.52253,1.6494 -3.26538,0.63374 -8.79117,1.03135 -9.52,0.68502 -1.04262,-0.49543 -0.63139,-1.63544 1.28,-3.5485 z m -0.63747,-177.55842 c 1.36893,-0.80865 6.2024,-1.77739 10.95747,-2.19616 2.376,-0.20924 4.51664,-0.53791 4.75702,-0.73037 0.33783,-0.27053 0.39162,-0.96943 0.237,-3.08003 -0.29245,-3.99214 -0.53693,-5.79087 -0.95828,-7.0501 -0.56217,-1.68022 -0.33651,-2.24 0.90295,-2.24 1.04118,0 1.05401,0.0186 1.27529,1.84 0.36282,2.98634 0.49226,8.37073 0.20551,8.54795 -0.43047,0.26605 0.71088,2.44158 1.22861,2.34182 0.25622,-0.0494 0.58675,-0.52177 0.73446,-1.04977 0.27696,-0.98994 0.33021,-5.94108 0.0992,-9.22155 -0.092,-1.30692 -0.0218,-1.82508 0.23613,-1.73915 0.20195,0.0673 0.46496,0.48801 0.58448,0.93486 0.27389,1.02408 0.1432,7.64313 -0.18762,9.50313 l -0.24851,1.39729 2.90951,-0.16767 c 3.20777,-0.18486 3.72592,-0.35723 3.42448,-1.13928 -0.19572,-0.50773 -0.61805,-7.42215 -0.62234,-10.18888 -0.003,-1.61857 0.19357,-1.86497 1.09872,-1.38055 0.59872,0.32042 0.66218,0.54347 0.47306,1.66278 -0.12023,0.71159 -0.0731,1.59982 0.10476,1.97587 0.27332,0.57774 0.61821,2.90568 1.14423,7.72315 l 0.10483,0.96 2.2863,-0.10941 c 3.35031,-0.16032 6.60778,0.48803 7.10324,1.41381 0.6398,1.19548 0.1966,1.7356 -1.42413,1.7356 -0.78714,0 -1.51815,-0.14075 -1.62445,-0.31277 -0.25146,-0.40683 -8.1561,-0.4131 -13.12448,-0.0104 -2.112,0.17117 -6.288,0.45795 -9.28,0.63728 -2.992,0.17933 -5.728,0.38104 -6.08,0.44825 -0.352,0.0672 -1.252,0.22384 -2,0.34806 -1.5545,0.25815 -1.76893,0.67633 -0.48,0.9361 3.00285,0.60519 6.95254,1.16418 7.84074,1.10969 0.57161,-0.0351 1.36396,0.0424 1.76083,0.17209 0.51641,0.16879 0.77635,0.0931 0.91424,-0.26622 0.28262,-0.7365 1.00681,-0.61181 1.26576,0.21794 0.12358,0.396 0.35862,0.80626 0.5223,0.91169 0.16368,0.10544 -0.68374,0.42981 -1.88313,0.72084 -2.24314,0.54428 -4.62877,0.69277 -5.00973,0.31182 -0.11859,-0.11861 -0.53859,-0.24445 -0.93331,-0.27966 -2.07348,-0.18493 -6.09204,-1.11927 -7.01885,-1.63192 -2.41811,-1.33755 -2.77626,-2.18189 -1.29632,-3.05611 z m 0.37734,22.1947 c 1.11363,-0.8067 1.66157,-0.94506 4.72,-1.19179 1.90307,-0.15352 4.93251,-0.27333 6.7321,-0.26624 2.40912,0.01 3.19235,-0.0831 2.97001,-0.35095 -0.23625,-0.28468 -0.4222,-5.58964 -0.36755,-10.48559 0.007,-0.63413 0.5784,-1.29147 1.38919,-1.59837 0.85046,-0.32191 1.01993,0.73933 0.93292,5.84158 -0.0553,3.24488 -0.21702,4.91937 -0.53782,5.56916 -0.59578,1.20678 -0.6257,1.15084 0.61526,1.15084 h 1.07399 l 0.26957,-2.64 c 0.14825,-1.452 0.27696,-3.36 0.28601,-4.24 0.009,-0.88 0.16045,-1.63326 0.33645,-1.67392 0.36269,-0.0838 0.8303,1.37296 0.6231,1.94099 -0.0748,0.20511 -0.20726,1.02093 -0.2943,1.81293 -0.087,0.792 -0.24931,2.17928 -0.36064,3.08285 l -0.20243,1.64284 1.32365,0.12623 c 0.728,0.0694 1.5007,0.0296 1.71712,-0.0885 0.21644,-0.11811 2.1935,-0.31337 4.3935,-0.43391 2.2,-0.12054 5.584,-0.36457 7.52,-0.54229 5.3401,-0.49021 5.41165,-0.48907 5.52682,0.0878 0.0638,0.31996 -0.23613,0.64847 -0.792,0.86728 -1.19245,0.46939 -4.57322,1.25635 -5.37482,1.25113 -0.352,-0.002 -2.944,0.12424 -5.76,0.28119 -4.68374,0.26105 -12.6809,0.33457 -16.64,0.15299 -2.24982,-0.10319 -7.21232,0.33353 -7.03578,0.61918 0.19296,0.31226 3.99408,0.71738 6.28125,0.66944 1.31943,-0.0276 1.85405,0.0888 1.98602,0.43271 0.0993,0.2588 0.0405,0.55711 -0.13069,0.6629 -0.17117,0.1058 -0.23101,0.32219 -0.13293,0.48087 0.36634,0.59274 -1.66576,0.70808 -5.73414,0.32549 -2.30656,-0.21691 -4.33053,-0.52575 -4.49773,-0.6863 -0.1672,-0.16056 -0.7072,-0.29192 -1.2,-0.29192 -0.74179,0 -0.896,-0.13733 -0.896,-0.79799 0,-0.561 0.37418,-1.06904 1.25987,-1.71065 z m -0.74013,20.39566 c 0.56896,-0.47219 1.0497,-0.50386 11.00026,-0.72471 4.488,-0.0996 9.04733,-0.26797 10.13181,-0.37416 l 1.97184,-0.19306 0.22816,-3.04321 c 0.21424,-2.85765 0.10931,-4.80041 -0.36035,-6.67166 -0.11047,-0.44012 -0.0641,-0.80022 0.10294,-0.80022 0.59552,0 1.04525,3.3695 0.90682,6.79421 -0.0764,1.88881 -0.0256,3.50422 0.11289,3.5898 0.13847,0.0856 1.17293,0.002 2.29882,-0.18581 2.68857,-0.44837 10.88157,-1.1487 12.97702,-1.10926 0.90746,0.0171 1.58298,-0.0769 1.50112,-0.20894 -0.0819,-0.132 0.21117,-0.24 0.65117,-0.24 0.44,0 0.88614,-0.1394 0.99146,-0.30978 0.25824,-0.41784 2.43958,-0.31378 2.57347,0.12277 0.0586,0.19086 0.20073,1.18713 0.31603,2.21395 0.11526,1.02682 0.28864,1.78789 0.38528,1.69126 0.0966,-0.0966 0.43936,-0.0345 0.76166,0.13794 0.78413,0.41964 0.54749,0.95574 -1.60899,3.64518 -0.97965,1.22173 -1.87369,2.35722 -1.98681,2.52331 -0.11309,0.1661 -0.59661,0.20386 -1.07447,0.0839 -0.73238,-0.18382 -0.84342,-0.35099 -0.70704,-1.06446 0.0893,-0.4671 -0.0457,-1.16302 -0.30115,-1.55296 -0.41216,-0.629 -0.68083,-0.69304 -2.44733,-0.5834 -2.68752,0.16682 -4.75673,0.37638 -7.42435,0.75194 -7.07885,0.99659 -9.18058,1.2997 -11.2,1.61529 -1.232,0.19253 -3.032,0.40619 -4,0.47481 -2.41533,0.1712 -4.60608,0.48243 -6.88,0.97743 l -1.92,0.41795 2.67677,-0.012 c 1.93139,-0.009 2.75427,0.11038 2.9551,0.42742 0.392,0.61886 0.35981,0.802 -0.24784,1.40964 -0.46025,0.46027 -1.0816,0.51475 -4.4,0.38578 -6.06057,-0.23555 -9.53753,-1.64517 -8.15798,-3.3074 0.21939,-0.26437 0.69929,-0.44824 1.06643,-0.4086 0.86454,0.0934 3.83664,-0.24549 8.82752,-1.00639 2.2,-0.33541 4.648,-0.67594 5.44,-0.75674 3.77526,-0.38515 10.15958,-1.16731 10.83418,-1.32733 0.63225,-0.14999 0.73104,-0.33642 0.61113,-1.15346 -0.10361,-0.70599 0.0192,-1.07589 0.44583,-1.3423 0.72608,-0.45345 0.77987,-0.99557 0.0718,-0.72386 -0.28438,0.10913 -1.40038,0.27668 -2.48,0.37234 -2.6528,0.23507 -2.76294,0.29193 -2.76294,1.42656 0,0.5778 -0.13302,0.90671 -0.32,0.79116 -0.176,-0.10878 -0.32,-0.61768 -0.32,-1.13089 0,-0.84091 -0.0869,-0.91832 -0.88,-0.78338 -0.484,0.0824 -2.608,0.21311 -4.72,0.29057 -2.112,0.0774 -3.88106,0.15047 -3.93126,0.16226 -0.0502,0.0118 0.0582,0.3007 0.24086,0.64202 0.49629,0.9273 -0.0453,1.10356 -3.76989,1.22684 -2.90713,0.0962 -3.59952,0.008 -5.81187,-0.74425 -2.58038,-0.87687 -3.31712,-1.62855 -2.3681,-2.41615 z m 31.32026,2.69358 c 1.408,-0.0801 3.52442,-0.35155 4.70317,-0.60315 1.17875,-0.2516 2.71133,-0.45745 3.40576,-0.45745 1.44281,0 1.97222,-0.71475 1.17878,-1.59148 -0.26825,-0.2964 -0.48771,-0.71039 -0.48771,-0.91998 0,-0.24106 -0.3233,-0.32242 -0.88,-0.22144 -0.484,0.0878 -2.32,0.24527 -4.08,0.34994 -1.76,0.10467 -3.90365,0.32366 -4.76368,0.48664 -0.86003,0.16298 -1.59277,0.29632 -1.62832,0.29632 -0.0356,0 -0.0519,0.63141 -0.0363,1.40315 l 0.0285,1.40314 2.56,-0.14569 z m -31.0705,21.90691 c 0.4232,-0.0809 1.0352,0.008 1.36,0.19731 0.6784,0.39567 14.96432,0.54227 16.7505,0.17189 0.616,-0.12773 2.38419,-0.32488 3.92934,-0.4381 1.54512,-0.11322 2.98512,-0.26535 3.2,-0.33805 0.68109,-0.23046 3.42586,-0.44482 8.617,-0.67295 4.52368,-0.1988 5.05856,-0.16721 5.2415,0.30957 0.40291,1.04997 -0.47645,1.52447 -2.72285,1.46923 -2.87277,-0.0706 -8.10822,0.28825 -12.34499,0.84624 -1.936,0.25498 -4.384,0.52923 -5.44,0.60944 -1.056,0.0802 -2.4936,0.22764 -3.19466,0.3276 -2.20844,0.3149 -10.64089,0.17284 -12.23657,-0.20613 -0.84083,-0.1997 -1.74477,-0.39003 -2.00877,-0.42297 -0.83248,-0.10385 -1.92,-0.82578 -1.92,-1.27455 0,-0.23728 0.34627,-0.49762 0.7695,-0.57853 z m 1.12925,-36.71135 c 0.48637,-0.75721 3.70122,-1.21077 8.98125,-1.26712 2.728,-0.0291 5.752,-0.19132 6.72,-0.36047 1.77322,-0.30985 11.63334,-1.62483 13.12,-1.74973 9.4665,-0.79534 10.24141,-0.91335 10.71178,-1.63122 0.48451,-0.73942 0.44192,-2.25537 -0.09,-3.20591 -0.36477,-0.65182 0.58634,-3.72667 1.44685,-4.67753 0.5535,-0.61162 1.72589,-0.55949 2.5359,0.11276 0.59255,0.49178 0.70883,2.59809 0.18787,3.40306 -0.44332,0.68499 -0.42326,0.72 0.41268,0.72 0.81964,0 0.86688,0.0727 0.70307,1.08224 -0.0966,0.59524 -0.0482,1.20972 0.10765,1.36552 0.31961,0.31964 0.0437,1.71224 -0.33927,1.71224 -0.13686,0 -0.67469,0.39782 -1.1952,0.88405 -0.52051,0.48622 -1.4471,1.15369 -2.05907,1.48326 -1.0624,0.57215 -1.15114,0.57404 -1.96355,0.0417 -0.77456,-0.50751 -1.14528,-0.52205 -4.13475,-0.16219 -1.80618,0.21743 -4.36394,0.44116 -5.68394,0.4972 -1.32,0.056 -3.12,0.25636 -4,0.44516 -2.13104,0.45721 -13.19171,1.9308 -14.49248,1.9308 -1.4129,0 -1.29504,0.52556 0.17248,0.76918 2.19613,0.36457 2.48157,0.35872 2.4,-0.0492 -0.044,-0.22 0.10848,-0.4 0.33885,-0.4 0.23033,0 0.66019,0.18 0.9552,0.4 0.46582,0.34738 0.50957,0.83223 0.33251,3.6854 -0.22304,3.59402 -0.63766,4.63544 -1.60781,4.0385 -0.46281,-0.28478 -0.55702,-0.68267 -0.47033,-1.98641 0.0596,-0.89666 0.0122,-2.06841 -0.10544,-2.60389 -0.18839,-0.85773 -0.3466,-0.9736 -1.32944,-0.9736 -0.6136,0 -1.39229,-0.14806 -1.73044,-0.32904 -0.33814,-0.18097 -1.37267,-0.39264 -2.29894,-0.47038 -2.31379,-0.1942 -5.02634,-0.67951 -6.09526,-1.09053 -0.49012,-0.18846 -1.05754,-0.30831 -1.261,-0.26635 -0.48105,0.0992 -0.65123,-0.75274 -0.26915,-1.34754 z m 1.07143,107.15357 c 0.48131,-0.63004 3.4024,-2.20973 4.08611,-2.20973 0.27577,0 0.78089,0.20723 1.12256,0.46051 0.52317,0.38787 0.55942,0.56165 0.22985,1.1017 -0.36281,0.59457 -0.29302,0.65484 0.96,0.82893 2.62426,0.36458 9.06144,0.72301 11.4313,0.6365 3.61606,-0.13202 9.08851,-0.63152 9.46451,-0.8639 0.18279,-0.11297 1.24157,-0.29034 2.35287,-0.39415 1.11126,-0.10382 2.25497,-0.3077 2.54156,-0.45307 1.21652,-0.61709 3.62538,-1.02152 4.03911,-0.67813 0.59763,0.49599 1.53929,-0.48991 1.16582,-1.22061 -0.15117,-0.29578 -0.35593,-1.06615 -0.45504,-1.71193 -0.0991,-0.64579 -0.43709,-1.56621 -0.75107,-2.0454 l -0.57085,-0.87124 -4.49347,0.21241 c -2.47139,0.11682 -5.78944,0.27911 -7.37344,0.36065 -1.584,0.0815 -6.264,0.22734 -10.4,0.32402 -4.136,0.0967 -8.672,0.21034 -10.08,0.25257 -2.68829,0.0806 -3.36,-0.13143 -3.36,-1.06081 0,-0.65271 2.33898,-2.87805 3.02502,-2.87805 0.25476,0 0.57834,-0.19283 0.71908,-0.4285 0.14073,-0.23568 0.71209,-0.58407 1.26966,-0.7742 0.86205,-0.29397 1.0961,-0.25469 1.56416,0.2625 0.5809,0.64189 0.39395,1.15266 -0.78336,2.1402 -0.39334,0.32993 -0.18765,0.4 1.17424,0.4 1.28314,0 1.61283,-0.0998 1.47933,-0.44763 -0.0945,-0.2462 -0.0304,-0.535 0.1424,-0.64178 0.17277,-0.10679 0.26499,-0.73335 0.20489,-1.39237 -0.50953,-5.58951 -0.50358,-6.03355 0.0882,-6.5691 0.35817,-0.32414 0.8559,-0.45272 1.30144,-0.33621 0.61769,0.16153 0.69667,0.34456 0.54918,1.2726 -0.0947,0.59617 -0.16032,2.12581 -0.1457,3.39921 0.049,4.2706 0.0738,4.40877 0.82615,4.5976 1.50435,0.37757 1.84944,0.057 2.11673,-1.96654 0.13917,-1.05368 0.2105,-2.52778 0.1585,-3.27578 -0.0669,-0.96285 0.0291,-1.36 0.32918,-1.36 0.33898,0 0.37869,0.67174 0.19863,3.36 l -0.22506,3.36 h 3.21565 3.21565 l -0.10327,-3.56422 c -0.0921,-3.17867 -0.0356,-3.63685 0.52234,-4.23571 0.53437,-0.57355 0.66947,-0.60211 0.92637,-0.19578 0.16544,0.26164 0.30301,1.34819 0.30569,2.41455 0.003,1.14522 0.18743,2.18848 0.45085,2.54872 0.31059,0.42474 0.35914,0.83818 0.16,1.36199 -0.51462,1.3536 -0.37043,1.58802 0.91405,1.48596 3.54442,-0.28164 8.20262,-0.5095 10.31328,-0.50448 1.31632,0.003 2.56253,-0.13477 2.76941,-0.30645 0.43177,-0.35836 2.11539,-0.0298 1.87129,0.36516 -0.0889,0.14381 0.74013,0.23645 1.84221,0.20586 l 2.00381,-0.0556 0.28112,1.97434 c 0.36739,2.58002 0.20506,3.09113 -1.72781,5.43981 -1.92499,2.33914 -3.12173,2.91825 -4.11613,1.9918 -0.47756,-0.44491 -0.82403,-0.53814 -1.23091,-0.33122 -1.26336,0.64251 -3.952,1.36941 -6.03625,1.63197 -1.21549,0.15312 -3.21802,0.42944 -4.45002,0.61404 -3.44941,0.51684 -6.52221,0.61999 -6.68723,0.22447 -0.0986,-0.23626 -0.22999,-0.22453 -0.41639,0.0371 -0.3982,0.55905 -6.1008,0.46236 -12.08502,-0.20491 -1.64502,-0.18344 -3.4177,-0.24817 -3.93923,-0.14386 -0.73066,0.14612 -1.1048,0.0217 -1.63021,-0.5423 -0.7848,-0.8424 -0.79696,-0.91404 -0.27174,-1.60155 z m 8.03872,-3.59352 c 0.77817,-0.29861 1.47113,0.52761 1.55286,1.85145 0.0885,1.43407 -0.57942,1.86895 -1.48291,0.96547 -0.64125,-0.64125 -0.68938,-2.57922 -0.07,-2.81692 z m 0.81008,-20.36495 c 0.85526,-0.45773 0.87542,-0.44897 1.40348,0.60952 0.52624,1.05491 0.41872,1.29922 -0.5718,1.29922 -1.35664,0 -1.93178,-1.31999 -0.83168,-1.90874 z m 0.22998,53.98106 c 1.01011,-0.19309 1.47507,0.25081 1.19731,1.14304 -0.0985,0.31644 -0.006,0.78444 0.20647,1.04 0.24252,0.29222 0.26112,0.46464 0.0501,0.46464 -0.20701,0 -0.29923,0.72839 -0.24077,1.90172 0.0738,1.48216 -0.0144,1.94366 -0.40048,2.09176 -1.01926,0.39113 -1.49658,-0.68723 -1.61184,-3.64147 l -0.11021,-2.82584 z m -0.29302,21.65746 c 0.2631,-0.2631 0.64163,-0.42808 0.84121,-0.36664 0.73405,0.226 1.50624,2.41323 1.51322,4.2862 0.004,1.02886 0.12969,2.30266 0.27968,2.83066 0.15001,0.528 0.34704,1.9775 0.43779,3.22112 l 0.16506,2.26112 -0.92615,-0.13593 c -1.3111,-0.19242 -1.54941,-0.61389 -2.05328,-3.631 -0.71651,-4.29053 -0.82624,-7.89684 -0.25753,-8.46553 z m 0.9439,-90.97882 c 0.54819,-0.24978 0.91725,-0.24579 1.33392,0.0144 0.50064,0.31267 0.53997,0.5895 0.30064,2.11578 -0.15146,0.96582 -0.23466,2.97941 -0.1849,4.47465 0.0763,2.29048 0.003,2.77489 -0.46348,3.07598 -0.42784,0.27598 -0.66682,0.24454 -1.04944,-0.13806 -0.38752,-0.38751 -0.51712,-1.44311 -0.59501,-4.84643 -0.0987,-4.30967 -0.0924,-4.35429 0.65827,-4.69633 z m 0.016,117.72904 c 0.17459,-0.93941 0.59917,-1.26836 1.64579,-1.2751 0.72669,-0.005 0.75146,0.0648 0.54055,1.5151 -0.3904,2.68428 -0.0864,4.41746 0.86396,4.9261 0.56922,0.30464 0.61901,0.27341 0.3968,-0.24887 -0.29392,-0.6909 -0.77379,-3.73939 -0.61651,-3.91676 0.0583,-0.0657 0.32819,-0.0343 0.59978,0.07 0.35165,0.13494 0.49379,0.63868 0.49379,1.74993 0,2.26468 0.61363,2.73203 2.96672,2.25946 2.05197,-0.41209 2.12502,-0.52122 2.38285,-3.55982 0.15478,-1.82451 0.27545,-2.16 0.77683,-2.16 0.70528,0 0.76208,0.7829 0.23504,3.24036 -0.30941,1.44282 -0.28749,1.72379 0.16,2.05102 0.65197,0.47669 0.67766,1.42858 0.03856,1.42858 -0.47344,0 -0.65949,1.01309 -0.52896,2.88 0.0307,0.44 0.05,1.628 0.0427,2.64 l -0.0131,1.84 h 2.43075 c 1.3369,0 2.71389,-0.15154 3.05997,-0.33676 1.38774,-0.74268 10.48509,-1.31995 17.4087,-1.10466 3.696,0.11493 13.344,0.27284 21.44,0.35092 8.0960004,0.0781 14.97200038,0.14834 15.28000038,0.15612 0.308,0.008 0.5609,0.11321 0.56202,0.23427 0,0.12106 2.34112002,0.25579 5.20000002,0.29941 2.85888,0.0436 6.7099796,0.14367 8.5579796,0.22234 7.83658,0.33364 22.84679,0.42717 26.4,0.16449 2.112,-0.15613 6.36,-0.26023 9.44,-0.23133 3.08,0.0289 15.32,0.0133 27.2,-0.0347 11.88,-0.048 21.816,-0.0821 22.08,-0.0758 5.768911,0.13674 19.686221,-0.15149 20.115161,-0.41658 0.3069,-0.18968 4.0063,-0.22035 25.00484,-0.2073 5.72,0.004 11.84,-0.0622 13.6,-0.14607 1.76,-0.0839 7.52,-0.22058 12.8,-0.30375 5.28,-0.0832 12.69652,-0.2959 16.48115,-0.47272 3.78464,-0.17683 9.18464,-0.32762 12,-0.33509 2.81537,-0.007 6.34285,-0.0443 7.83885,-0.0817 2.71979,-0.0681 5.46769,-0.0603 13.28,0.0376 7.08016,0.0888 30.50934,-0.32986 43.84,-0.7833 2.992,-0.10177 7.744,-0.24686 10.56,-0.32242 2.816,-0.0756 6.488,-0.25936 8.16,-0.40842 1.672,-0.14907 5.09205,-0.25607 7.6001,-0.23777 2.50805,0.0183 4.56005,-0.0448 4.56,-0.1402 -5e-5,-0.0954 0.3959,-0.17841 0.8799,-0.18446 0.484,-0.006 2.752,-0.11841 5.04,-0.24968 4.04995,-0.23235 5.0955,-0.33251 13.12,-1.25685 4.28925,-0.49407 3.83405,-0.45683 8.64,-0.70691 1.936,-0.10074 6.04,-0.39889 9.12,-0.66255 3.08,-0.26366 6.824,-0.53861 8.32,-0.611 1.496,-0.0724 4.16,-0.27391 5.92,-0.44782 1.76,-0.17392 4.93301,-0.3975 7.05114,-0.49685 2.11812,-0.0994 4.178,-0.24359 4.57751,-0.32053 0.3995,-0.0769 2.17327,-0.21897 3.94171,-0.31562 1.76843,-0.0967 5.97255,-0.39831 9.34249,-0.67034 8.56012,-0.69099 22.19129,-0.60397 23.00692,0.14689 0.13188,0.12139 0.75504,0.16057 1.38482,0.087 l 1.14504,-0.13367 -0.19017,-1.4821 c -0.10459,-0.81515 -0.25602,-2.04439 -0.33651,-2.73165 -0.0805,-0.68726 -0.35172,-1.98326 -0.60272,-2.88 -0.85023,-3.03753 -1.3729,-7.66881 -1.62364,-14.38677 -0.0779,-2.08797 -0.23298,-4.21197 -0.34457,-4.72 -0.13589,-0.61842 -0.0758,-0.92367 0.18168,-0.92367 0.29595,0 0.29768,-0.10474 0.007,-0.45437 -0.34613,-0.41706 -0.40234,-3.08349 -0.29398,-13.94563 0.01,-0.968 -0.0806,-3.056 -0.20048,-4.64 -0.11992,-1.584 -0.19415,-3.168 -0.16496,-3.52 0.0898,-1.08259 0.0825,-1.42532 -0.15749,-7.36 -0.12809,-3.168 -0.19234,-6.84 -0.14277,-8.16 0.0496,-1.32 0.0668,-3.3 0.0384,-4.4 -0.0285,-1.1 0.0544,-1.99996 0.18414,-1.99992 0.12972,4e-5 0.21923,-1.94396 0.1989,-4.32 -0.0203,-2.37604 0.0605,-4.32008 0.17964,-4.32008 0.11913,0 0.21206,-1.188 0.2065,-2.64 -0.006,-1.452 0.0446,-5.016 0.11152,-7.92 0.0669,-2.904 0.0139,-5.892 -0.11767,-6.64 -0.13161,-0.748 -0.11863,-1.36 0.0288,-1.35999 0.14747,0 0.26277,-2.484 0.25622,-5.52 -0.007,-3.03601 0.11003,-6.45601 0.25908,-7.60001 0.3202,-2.45773 0.38189,-38.59354 0.10242,-60 -0.108,-8.272 -0.17057,-18.352 -0.13906,-22.4 0.0315,-4.048 0.047,-9.16 0.0345,-11.36 -0.0125,-2.2 -0.0335,-6.016 -0.0466,-8.48 -0.0131,-2.464 0.0449,-6.064 0.12894,-8 0.53039,-12.22424 0.81105,-45.0487 0.3888,-45.47067 -0.13411,-0.13403 -1.09895,-0.22012 -2.14409,-0.19131 -1.08476,0.0299 -1.9929,-0.0975 -2.11615,-0.29699 -0.14825,-0.23988 -0.30367,-0.2133 -0.49592,0.0848 -0.23216,0.35999 -0.33383,0.35216 -0.5951,-0.0458 -0.26218,-0.39939 -0.31674,-0.37252 -0.3249,0.16 -0.007,0.48049 -0.0782,0.53207 -0.2842,0.20696 -0.2181,-0.34418 -0.41971,-0.35527 -0.98251,-0.0541 -0.38946,0.20843 -0.79177,0.2953 -0.89403,0.19304 -0.10225,-0.10225 0.006,-0.18592 0.24075,-0.18592 0.23467,0 0.33415,-0.0925 0.22107,-0.2056 -0.11308,-0.11308 -0.38908,-0.0594 -0.61334,0.1193 -0.59624,0.47512 -5.09152,0.73914 -4.81843,0.28301 0.12199,-0.20378 10e-4,-0.18502 -0.28121,0.0437 -0.27212,0.22025 -1.19977,0.37696 -2.06143,0.34825 -0.86166,-0.0287 -2.07066,0.0449 -2.68666,0.16349 -0.616,0.11863 -2.44853,0.27528 -4.07229,0.3481 -1.62377,0.0728 -3.09587,0.22114 -3.27135,0.32959 -0.49425,0.30547 -2.41479,0.50289 -6.25636,0.64315 -1.936,0.0707 -3.52,0.14728 -3.52,0.17022 0,0.13888 -8.23569,0.42396 -8.96,0.31015 -0.39733,-0.0624 -2.76858,0.025 -5.92,0.2182 -1.32,0.0809 -6.49955,0.21075 -11.51011,0.28846 -5.01056,0.0777 -9.33056,0.20207 -9.6,0.27633 -0.26944,0.0743 -2.28801,0.23054 -4.48571,0.34729 -2.19771,0.11674 -4.09341,0.27257 -4.21267,0.34628 -0.11927,0.0737 -0.27773,-0.0469 -0.35214,-0.26797 -0.10202,-0.30312 -0.24648,-0.3128 -0.58733,-0.0393 -0.25163,0.20187 -1.72886,0.38071 -3.33204,0.40338 -1.584,0.0224 -3.96,0.10639 -5.28,0.18665 -5.50064,0.33447 -13.12,0.46788 -13.12,0.22973 0,-0.14088 -0.828,-0.16155 -1.84,-0.0459 -1.012,0.1156 -2.704,0.16984 -3.76,0.12053 -1.056,-0.0493 -4.476,-0.11661 -7.6,-0.14955 -3.20976,-0.0338 -5.68,-0.1882 -5.68,-0.35493 0,-0.16227 -0.30447,-0.1321 -0.6766,0.0671 -0.38959,0.20851 -1.23797,0.27976 -2,0.16799 -1.47809,-0.21681 -12.80657,-0.60673 -16.5234,-0.56873 -1.32,0.0135 -10.752,0.12355 -20.96,0.24456 -23.65666,0.28044 -29.14467,0.24673 -35.52,-0.21819 -0.176,-0.0128 -7.376,-0.0205 -16,-0.0171 -8.624,0.003 -16.472,-0.0495 -17.44,-0.11777 -7.68973,-0.54195 -20.41546,-0.72945 -24.64,-0.36303 -1.496,0.12976 -3.728,0.29826 -4.96,0.37445 -2.6675,0.16498 -6.02737,0.48801 -7.36,0.70764 -0.528,0.087 -2.112,0.21102 -3.52,0.27556 -1.408,0.0645 -4.03416,0.2712 -5.83592,0.45924 -6.03694,0.63002 -16.19221,0.81254 -34.644081,0.62264 -2.904,-0.0299 -6.504,-0.0289 -8,0.002 -2.68941,0.056 -7.29859,-0.15712 -10.4,-0.48087 -0.88,-0.0919 -6.064,-0.23478 -11.52,-0.31759 -5.456,-0.0828 -12.224,-0.22591 -15.04,-0.31799 -6.80963,-0.22267 -12.65894,-0.22963 -24.96,-0.0297 -12.81929962,0.20835 -49.04874,0.26085 -49.95213,0.0724 -0.36966,-0.0771 -1.88166,-0.003 -3.36,0.16446 -5.35542,0.60705 -7.32793,0.75622 -7.3279,0.55415 3e-5,-0.20021 -1.45751,0.0665 -3.93411,0.71983 -1.38432,0.3652 -2.46586,0.13397 -2.46586,-0.5272 0,-0.98063 3.33203,-1.99488 6.88,-2.09422 1.232,-0.0345 3.248,-0.31497 4.48,-0.62327 1.6904,-0.423 2.87402,-0.51007 4.824,-0.35485 1.42118,0.11313 3.65318,0.18792 4.96,0.16621 2.49603,-0.0415 16.82438,-0.0607 24.4560004,-0.0329 2.464,0.009 9.304,-0.076 15.2,-0.18884 22.6630996,-0.43378 36.4435196,-0.1954 59.6799996,1.03235 2.64,0.13949 8.21901,0.18727 12.39776,0.10616 4.17878,-0.0811 7.85078,-0.0489 8.16,0.0714 0.83917,0.32674 19.248601,0.21447 23.122241,-0.14101 5.5856,-0.51259 7.34555,-0.63387 11.52,-0.79384 2.2,-0.0843 4.45716,-0.28876 5.01591,-0.45434 0.55876,-0.16558 1.07604,-0.24093 1.14952,-0.16745 0.0735,0.0735 1.56032,-0.0145 3.30409,-0.19546 6.92654,-0.71892 17.40743,-0.88112 31.81048,-0.49228 11.25193,0.30376 20.85592,0.49971 32.8,0.6692 6.336,0.0899 13.248,0.19437 15.36,0.23213 5.29839,0.0947 30.88115,-0.36854 33.47811,-0.60625 1.42548,-0.13048 2.19136,-0.0754 2.34211,0.16856 0.1232,0.19934 0.36197,0.27718 0.53059,0.17296 0.38317,-0.23681 13.97902,-0.2221 14.36354,0.0155 0.58772,0.36323 37.70349,0.67514 43.68565,0.36712 1.408,-0.0725 4.432,-0.22609 6.72,-0.34132 2.288,-0.11523 5.168,-0.27624 6.4,-0.35781 3.15475,-0.20887 9.72645,-0.43718 17.76,-0.61702 17.20444,-0.38513 21.38035,-0.50634 22.79387,-0.66161 1.34449,-0.14768 1.49396,-0.10249 1.33584,0.40392 -0.15706,0.50303 -0.13839,0.5092 0.15847,0.0523 0.33752,-0.51947 2.33847,-0.8308 7.01532,-1.09151 1.73309,-0.0966 1.96858,-0.0466 1.64082,0.3483 -0.30645,0.36925 -0.27926,0.46111 0.1365,0.46111 0.28555,0 0.51942,-0.252 0.51971,-0.56 3.2e-4,-0.45757 0.30774,-0.56657 1.68,-0.59591 0.92371,-0.0197 3.11947,-0.14425 4.87947,-0.27669 1.76,-0.13243 4.064,-0.30111 5.12,-0.37485 1.056,-0.0737 2.424,-0.18313 3.04,-0.24309 0.616,-0.06 3.42012,-0.21123 6.23137,-0.33617 2.81126,-0.12494 5.35852,-0.35944 5.66058,-0.5211 0.30974,-0.16576 0.6245,-0.1721 0.72188,-0.0145 0.15838,0.25625 0.41052,2.27783 0.64942,5.20674 0.0522,0.64042 0.18146,1.30433 0.28716,1.47536 0.22277,0.36044 -0.0625,0.72242 -0.56374,0.71534 -0.19067,-0.003 -0.13067,-0.14449 0.13333,-0.3151 0.41021,-0.2651 0.39857,-0.31091 -0.08,-0.3151 -0.308,-0.003 -0.56,0.2111 -0.56,0.4751 0,0.264 0.252,0.4822 0.56,0.4849 0.43825,0.004 0.46516,0.065 0.12379,0.28126 -0.33451,0.21194 -0.34322,0.30736 -0.0374,0.40931 0.25176,0.0839 0.42812,0.89479 0.47823,2.19874 0.0437,1.13618 0.1752,3.72179 0.29232,5.74579 0.11945,2.06424 0.0581,5.36601 -0.13973,7.52 -0.19398,2.112 -0.39831,4.85002 -0.45408,6.08449 -0.0558,1.23448 -0.19671,2.81848 -0.3132,3.52 -0.25833,1.55573 -0.51751,8.33291 -0.65454,17.11551 -0.0563,3.608 -0.24785,7.352 -0.4257,8.32 -0.17784,0.968 -0.269,1.84984 -0.20258,1.95966 0.0664,0.10981 0.20118,3.20581 0.29947,6.88 0.21825,8.15815 0.28507,8.90527 0.87723,9.80903 0.25795,0.39366 0.49782,1.57875 0.53305,2.63353 0.0352,1.05478 0.16285,2.85378 0.28359,3.99778 0.21582,2.04498 -0.0371,12.56219 -0.40014,16.64 -0.10185,1.144 -0.25242,3.808 -0.33459,5.92 -0.0822,2.112 -0.23085,4.56 -0.33039,5.44 -0.149,1.3172 0.25725,7.42427 1.03242,15.52 0.25224,2.63434 0.0497,9.01309 -0.40651,12.8 -0.81601,6.7742 -1.27151,18.24257 -1.18835,29.92 0.0959,13.46491 0.0911,14.24165 -0.0953,15.31441 -0.0874,0.50292 -0.0257,1.07892 0.13707,1.28 0.38159,0.47143 0.36073,24.17066 -0.0215,24.40688 -0.16476,0.10183 -0.16211,0.33188 0.006,0.5472 0.16968,0.21696 0.1853,1.96896 0.0376,4.21151 -0.13915,2.112 -0.19617,4.272 -0.12673,4.8 0.0694,0.528 0.21881,2.184 0.33194,3.68 0.11313,1.496 0.28392,3.224 0.37953,3.84 0.147,0.94708 0.1486,6.19848 0.007,22.56 -0.0122,1.408 0.0811,3.856 0.20733,5.44 0.69149,8.67733 0.8471,10.22984 1.13863,11.36 0.1589,0.616 0.28511,1.804 0.28048,2.64 -0.008,1.4547 -0.0485,1.52172 -0.94176,1.56 -0.51333,0.022 -1.40133,0.0726 -1.97333,0.11251 -0.572,0.0399 -2.048,-0.0419 -3.28,-0.18172 -1.232,-0.13983 -3.176,-0.33325 -4.32,-0.42983 -1.144,-0.0966 -2.296,-0.20797 -2.56,-0.24753 -0.64258,-0.0963 -8.4704,0.32131 -13.44,0.71698 -2.2,0.17516 -5.08,0.38104 -6.4,0.4575 -12.78606,0.74069 -18.62319,1.17196 -19.28914,1.42515 -0.43508,0.16541 -3.14901,0.38453 -6.03096,0.48692 -8.94019,0.31763 -14.46677,0.5454 -15.7999,0.65116 -2.75538,0.2186 -7.94621,0.83673 -8.1657,0.97238 -0.12738,0.0787 -1.5102,0.2303 -3.07295,0.33683 -1.56274,0.10653 -3.39822,0.31402 -4.07884,0.46108 -0.68061,0.14706 -1.50937,0.21502 -1.84167,0.15103 -0.3323,-0.064 -1.50344,0.038 -2.60252,0.2267 -1.90272,0.32664 -4.01295,0.43022 -14.63832,0.7185 -2.552,0.0692 -5.936,0.20645 -7.52,0.30492 -1.584,0.0985 -4.464,0.27632 -6.4,0.39523 -1.936,0.11892 -4.168,0.25631 -4.96,0.3053 -0.792,0.049 -5.976,0.16301 -11.52,0.25337 -5.544,0.0904 -12.384,0.27248 -15.2,0.40473 -5.33706,0.25066 -11.0067,0.31887 -14.56,0.17519 -1.144,-0.0463 -5.536,-0.0906 -9.76,-0.0986 -4.224,-0.008 -9.264,-0.0183 -11.2,-0.0229 -5.59582,-0.0135 -17.7845,0.36245 -18.10132,0.55825 -0.1588,0.0981 -1.69497,0.15638 -3.4137,0.1294 -1.71874,-0.027 -3.91698,-0.0604 -4.88498,-0.0744 -0.968,-0.0139 -4.568,0.0747 -8,0.19687 -8.22323,0.29281 -26.16151,0.60556 -30.4,0.53002 -9.80394,-0.17474 -19.7979,0.11623 -20.15464,0.58679 -0.25343,0.33428 -0.96536,0.4128 -0.96536,0.10647 0,-0.14939 -2.46909,-0.22761 -5.48686,-0.17382 -3.17555,0.0566 -5.73369,-0.0343 -6.0728,-0.21577 -0.44943,-0.24053 -0.54665,-0.2112 -0.41728,0.12592 0.14053,0.36623 -1.47,0.44652 -9.66137,0.48163 -6.760741,0.029 -9.962981,-0.0682 -10.255851,-0.31128 -0.23421,-0.19437 -0.42584,-0.2206 -0.42584,-0.0583 0,0.28445 -0.82862,0.30649 -4.96,0.13193 -1.056,-0.0446 -1.992,-0.0486 -2.08,-0.009 -0.59792,0.26973 -21.50262,0.47226 -32,0.31002 -3.608,-0.0558 -8.36,0.006 -10.56,0.13775 -8.29299,0.49579 -23.68147,0.26833 -28.57312,-0.42233 -1.0192,-0.14391 -1.90672,-0.17492 -1.97222,-0.0689 -0.0655,0.106 -1.5356196,0.0958 -3.2668796,-0.0226 -1.73127,-0.11844 -5.16378,-0.23042 -7.62778002,-0.24885 -2.46399998,-0.0184 -6.20799998,-0.10361 -8.31999998,-0.18929 -2.112,-0.0857 -7.0800004,-0.14311 -11.0400004,-0.12762 -3.96,0.0155 -7.488,-0.001 -7.84,-0.0376 -0.99818,-0.10246 -2.11478,-0.10529 -3.68,-0.009 -0.792,0.0485 -3.63101,-0.003 -6.30893,-0.11344 -6.30694,-0.2613 -17.05629,0.43279 -17.92979,1.15772 -0.23936,0.19866 -1.93219,0.42778 -3.76182,0.50915 l -3.32656,0.14795 -0.20368,-0.81141 c -0.112,-0.44627 -0.0278,-1.14014 0.18732,-1.54193 0.21504,-0.40179 0.40816,-1.9632 0.42919,-3.46981 0.0211,-1.5066 0.15446,-2.92029 0.29654,-3.14154 0.40403,-0.62921 -0.56096,-0.82141 -2.25856,-0.44983 -3.37603,0.73897 -3.76345,0.7371 -4.86771,-0.0235 -1.59498,-1.09858 -2.25296,-3.67004 -1.70016,-6.6444 z m 434.964161,-263.04 c 0.176,0 0.32,-0.0635 0.32,-0.14112 0,-0.0776 -0.144,-0.23011 -0.32,-0.33888 -0.176,-0.10878 -0.32,-0.0453 -0.32,0.14111 0,0.18639 0.144,0.33889 0.32,0.33889 z m 6.72,268.16 c 0.176,0 0.32,-0.0635 0.32,-0.14111 0,-0.0776 -0.144,-0.23012 -0.32,-0.33889 -0.176,-0.10877 -0.32,-0.0453 -0.32,0.14111 0,0.18639 0.144,0.33889 0.32,0.33889 z m 23.57193,-20.72 c 0.0888,-0.22 0.0888,-0.58 0,-0.8 -0.0888,-0.22 -0.1614,-0.04 -0.1614,0.4 0,0.44 0.0726,0.62 0.1614,0.4 z m 0.74807,-150.96 c 0.176,0.10877 0.32,-0.0267 0.32,-0.30111 0,-0.27439 -0.144,-0.49889 -0.32,-0.49889 -0.176,0 -0.32,0.1355 -0.32,0.30111 0,0.16562 0.144,0.39012 0.32,0.49889 z m 0.96,-83.2 c 0.176,0.10877 0.32,-0.0352 0.32,-0.32 0,-0.28478 -0.144,-0.42878 -0.32,-0.32 -0.176,0.10877 -0.32,0.25277 -0.32,0.32 0,0.0672 0.144,0.21122 0.32,0.32 z m 0,4.32 c 0.176,0 0.32,-0.1525 0.32,-0.33889 0,-0.18639 -0.144,-0.24989 -0.32,-0.14111 -0.176,0.10877 -0.32,0.26127 -0.32,0.33888 0,0.0776 0.144,0.14112 0.32,0.14112 z m 0.19333,-5.52667 c 0.10634,-0.10633 0.1177,-0.38233 0.0253,-0.61333 -0.10216,-0.25528 -0.17798,-0.17945 -0.19334,0.19333 -0.0139,0.33734 0.0617,0.52634 0.16807,0.42 z m 0.58778,-3.75333 c 0.0776,0 0.23012,-0.144 0.33889,-0.32 0.10877,-0.176 0.0453,-0.32 -0.14112,-0.32 -0.18638,0 -0.33888,0.144 -0.33888,0.32 0,0.176 0.0635,0.32 0.14111,0.32 z m 0,1.6 c 0.0776,0 0.23012,-0.144 0.33889,-0.32 0.10877,-0.176 0.0453,-0.32 -0.14112,-0.32 -0.18638,0 -0.33888,0.144 -0.33888,0.32 0,0.176 0.0635,0.32 0.14111,0.32 z m -466.168181,60.8537 c 0.85584,-0.79946 1.66688,-0.43132 2.03129,0.92203 0.46605,1.73075 0.20413,2.44095 -0.9119,2.47268 -0.81715,0.0232 -0.92266,-0.10761 -1.20742,-1.49777 -0.23402,-1.14249 -0.21204,-1.61664 0.088,-1.89694 z m 0.2879,20.60967 c 1.14074,-0.28631 1.8401,0.33098 1.57437,1.38968 -0.11328,0.4513 -0.3599,0.91569 -0.54806,1.03197 -0.42519,0.26279 -1.37712,-0.61483 -1.65722,-1.52788 -0.16906,-0.5511 -0.0473,-0.72355 0.63091,-0.89377 z m 0.003,11.95531 c 0.64087,-0.60206 0.83719,-0.64737 1.26531,-0.29204 0.39815,0.33044 0.46621,0.80092 0.31764,2.19534 -0.17959,1.685 -0.51588,2.26208 -1.32474,2.27312 -0.1975,0.003 -0.46966,-0.6071 -0.60483,-1.3551 -0.13514,-0.748 -0.28311,-1.52846 -0.32883,-1.73436 -0.0457,-0.20589 0.25827,-0.69503 0.67545,-1.08696 z m -0.29008,125.53933 c 0.0891,-0.2211 0.27443,-0.33254 0.41181,-0.24764 0.32733,0.20231 0.0246,1.76963 -0.34173,1.76963 -0.30051,0 -0.33981,-0.85301 -0.0701,-1.52199 z m 0.80596,-217.17373 c 0.50957,-0.43631 1.34317,-0.57911 3.73872,-0.64044 1.69559,-0.0434 3.32442,-0.1859 3.61955,-0.31666 0.29517,-0.13075 1.55543,-0.26236 2.80058,-0.29246 2.63779,-0.0638 2.75034,-0.20238 2.40538,-2.96314 l -0.22263,-1.78181 0.90864,0.10511 c 0.82717,0.0957 0.94096,0.26722 1.26909,1.91302 0.43472,2.18053 0.0949,9.03136 -0.55162,11.12029 -0.52224,1.68752 -1.25052,2.27546 -2.02371,1.63377 -0.40073,-0.33259 -0.47891,-0.72114 -0.31817,-1.58144 0.11718,-0.62729 0.35318,-1.31012 0.52444,-1.5174 0.17124,-0.20728 0.33834,-1.50328 0.37136,-2.88 l 0.05866,-2.50312 -1.92,0.1 c -3.31318,0.17258 -3.10915,-0.14081 -2.92234,4.48883 0.14151,3.50627 0.12167,3.74988 -0.14736,1.81117 -0.17097,-1.232 -0.39075,-3.01328 -0.48838,-3.9584 l -0.17757,-1.71841 -1.33219,0.2128 c -0.73267,0.11703 -1.94416,0.29704 -2.69216,0.40001 -1.27629,0.17571 -1.36,0.25 -1.36,1.20684 0,0.56079 0.15219,1.84285 0.33818,2.84903 0.40304,2.18018 0.18748,3.08813 -0.73309,3.08813 -0.36947,0 -0.57699,-0.0948 -0.46119,-0.21056 0.11581,-0.11581 0.0866,-0.36781 -0.065,-0.56 -0.56368,-0.71494 -1.01792,-2.71568 -1.14521,-5.04429 -0.11565,-2.11599 -0.0537,-2.46567 0.52467,-2.96087 z m -0.36838,194.45572 c 0.39395,-0.98016 0.51641,-0.90583 0.52713,0.32 0.005,0.572 0.1248,1.4 0.26621,1.84 0.25635,0.79757 0.25504,0.79815 -0.43309,0.1904 -0.73769,-0.65151 -0.82201,-1.20162 -0.36025,-2.3504 z m 0.43731,-95.09286 c 0.35456,-0.29426 0.58973,-0.19016 1.13424,0.50206 0.80989,1.02961 0.75203,2.13588 -0.12038,2.30233 -1.18794,0.22664 -1.99066,-1.99371 -1.01386,-2.80439 z m -0.21338,127.01286 c 0.35901,0 0.61143,1.63162 0.91581,5.92 0.21245,2.9933 0.49642,3.76449 1.27597,3.46535 0.32186,-0.12351 0.40074,-0.0216 0.26237,0.33902 -0.24179,0.6301 -0.42835,0.63192 -1.24941,0.0122 -0.53373,-0.40283 -0.67309,-0.99894 -0.8393,-3.58983 -0.10963,-1.70873 -0.30918,-3.79078 -0.44348,-4.62678 -0.15565,-0.96879 -0.12733,-1.52 0.078,-1.52 z m 0.46471,-54.86101 c 0.38374,-1.7572 0.65862,-1.89035 0.46745,-0.22642 -0.15001,1.3059 -0.39155,1.9223 -0.6351,1.62076 -0.0593,-0.0733 0.0163,-0.70078 0.16765,-1.39434 z m -0.16743,14.38101 c 0.25588,-3.12024 0.49085,-4.6386 0.69802,-4.51056 0.3447,0.21304 -0.16938,6.61738 -0.56275,7.01076 -0.36096,0.36097 -0.36451,0.29551 -0.13527,-2.5002 z m 0.47338,22.56 c 0.13181,-1.144 0.16394,-2.476 0.0714,-2.96 -0.10614,-0.55542 -0.0298,-0.88 0.20714,-0.88 0.27101,0 0.34477,0.9781 0.26541,3.51928 -0.0604,1.9356 -0.14083,3.5196 -0.17863,3.52 -0.38611,0.004 -0.55948,-1.51399 -0.36534,-3.19928 z m 0.12029,33.80189 c 0.35283,-0.13538 0.47379,0.0608 0.47379,0.76815 0,0.55924 -0.1687,0.94996 -0.41021,0.94996 -0.58211,0 -0.63753,-1.49785 -0.0636,-1.71811 z m 0.11869,-92.31605 c 0.20902,-0.32989 0.33222,-0.34173 0.51296,-0.0493 0.13104,0.21204 0.005,0.61743 -0.28,0.90274 -0.43178,0.43179 -0.51706,0.43998 -0.51296,0.0493 0.003,-0.25771 0.1287,-0.66394 0.28,-0.90273 z m 0.25369,30.29416 c 0.0924,0.231 0.0811,0.507 -0.0253,0.61333 -0.10633,0.10634 -0.18198,-0.0827 -0.16809,-0.42 0.0154,-0.37278 0.0912,-0.4486 0.19334,-0.19333 z m 1.06141,-54.98 c 0.17062,-0.264 0.31242,-0.9048 0.3151,-1.424 0.004,-0.67204 0.10381,-0.8451 0.3482,-0.6007 0.40604,0.40604 -0.17767,2.9847 -0.67562,2.9847 -0.38931,0 -0.38486,-0.34539 0.0125,-0.96 z m 0.70019,-32.32 c 0.17735,-0.616 0.26317,-1.948 0.19072,-2.96 -0.0983,-1.37318 -0.025,-1.84 0.28867,-1.84 0.77546,0 0.27738,5.95877 -0.57376,6.864 -0.37094,0.39452 -0.32515,-0.60692 0.0944,-2.064 z m 0.23677,130.31175 c 0.36304,0.0701 0.46906,0.91045 0.51581,4.08825 0.0325,2.21301 0.23257,4.45619 0.44777,5.02114 0.21389,0.56162 0.33056,1.35362 0.25924,1.76 -0.11463,0.6531 -0.19594,0.59085 -0.70042,-0.53628 -0.78509,-1.75405 -1.22566,-10.46893 -0.5224,-10.33311 z m 0,-151.11175 c 0.10045,-1.144 0.27066,-1.936 0.37827,-1.76 0.32323,0.52873 0.29095,5.40313 -0.0392,5.92 -0.2391,0.37432 -0.30768,0.29202 -0.31152,-0.37383 -0.003,-0.4696 -0.0511,-1.0456 -0.10752,-1.28 -0.0564,-0.23439 -0.0205,-1.36217 0.08,-2.50617 z m -0.0214,106.77391 c 0.17642,-0.44788 0.35869,-0.18045 0.77309,1.13417 0.55033,1.74588 0.72832,6.65192 0.24131,6.65192 -0.34195,0 -0.65024,-1.6789 -0.65024,-3.54111 0,-0.84762 -0.144,-1.63012 -0.32,-1.73889 -0.36397,-0.22494 -0.38877,-1.63124 -0.0442,-2.50609 z m 0.23027,63.28725 c 0.46314,-0.56841 0.49034,-0.57138 0.32,-0.035 -0.10237,0.3224 -0.18611,0.7989 -0.18611,1.05889 0,0.25999 -0.144,0.38371 -0.32,0.27494 -0.44474,-0.27487 -0.40134,-0.57786 0.18611,-1.29884 z m -0.18221,8.81253 c 0.40029,-0.64771 0.56653,-0.0284 0.71031,2.64631 0.0869,1.61588 0.0115,2.16 -0.29882,2.16 -0.29952,0 -0.39673,-0.51306 -0.34947,-1.84424 0.036,-1.01433 -0.0266,-1.99321 -0.1391,-2.17528 -0.11252,-0.18207 -0.0778,-0.53612 0.0771,-0.78679 z m 0.29399,-152.14002 c 0.54313,-0.33567 0.69545,0.43413 0.34409,1.73895 -0.19065,0.70806 -0.41308,1.28738 -0.4943,1.28738 -0.28541,0 -0.14419,-2.84438 0.15021,-3.02633 z m -0.0867,94.76185 c 0.4383,-0.43829 0.65587,-0.19335 0.50931,0.57336 -0.0829,0.43389 -0.003,1.21229 0.17718,1.72979 0.27303,0.78318 0.23869,0.96391 -0.2048,1.07817 -0.43888,0.11305 -0.54733,-0.15397 -0.61501,-1.51427 -0.0452,-0.90835 0.0147,-1.74852 0.13332,-1.86705 z m 0.0871,10.19065 c 0.14573,-0.7006 0.20199,-1.43802 0.12496,-1.6387 -0.13574,-0.3538 0.81136,-0.91956 1.08362,-0.6473 0.0744,0.0744 -0.0128,0.68976 -0.19392,1.36753 -0.18103,0.67777 -0.29847,2.48028 -0.26103,4.00559 0.0626,2.54861 -0.1286,3.53667 -0.59424,3.07105 -0.31827,-0.31828 -0.43513,-4.83275 -0.15939,-6.15817 z m -0.0849,12.84716 c 0.76199,-0.76198 0.99664,0.29383 0.27684,1.24551 -0.45236,0.59807 -0.47021,0.59043 -0.48,-0.20551 -0.005,-0.45466 0.0858,-0.92266 0.20316,-1.04 z m 0.4529,-211.05752 c 0.15168,-0.77231 0.37037,-1.49231 0.48595,-1.6 0.26915,-0.25082 -0.15587,2.71114 -0.51753,3.60645 -0.26013,0.64394 -0.27303,0.64582 -0.25898,0.0377 0.008,-0.352 0.13888,-1.27189 0.29056,-2.04419 z m -0.035,53.72419 c 0.35348,-0.53146 0.31968,-0.65228 0.43376,1.55052 0.0304,0.58878 -0.0526,1.13728 -0.18464,1.21888 -0.13203,0.0816 -0.24201,-0.11213 -0.24444,-0.43052 -0.003,-0.31838 -0.0763,-0.86688 -0.16416,-1.21888 -0.0879,-0.352 -0.016,-0.856 0.15948,-1.12 z m 0.25882,97.52 c 0.0645,-0.308 0.26662,-0.56 0.44931,-0.56 0.21287,0 0.24653,0.43095 0.0938,1.2 -0.20544,1.03406 -0.2295,2.21932 -0.0861,4.24 0.0716,1.00845 -0.0794,1.6 -0.40835,1.6 -0.31824,0 -0.35584,-5.0117 -0.0486,-6.48 z m 0.39017,-119.6 c 0.176,0 0.32,0.432 0.32,0.96 0,0.528 -0.144,0.96 -0.32,0.96 -0.176,0 -0.32,-0.432 -0.32,-0.96 0,-0.528 0.144,-0.96 0.32,-0.96 z m 0,42.56 c 0.176,0 0.32,0.288 0.32,0.64 0,0.352 -0.144,0.64 -0.32,0.64 -0.176,0 -0.32,-0.288 -0.32,-0.64 0,-0.352 0.144,-0.64 0.32,-0.64 z m 0.18083,58.08 c 0.22627,-2.288 0.42215,-4.268 0.4353,-4.4 0.0131,-0.132 0.18723,-0.24 0.38688,-0.24 0.25878,0 0.29587,0.66605 0.12918,2.32 -0.12861,1.276 -0.27779,3.04 -0.33158,3.92 -0.11395,1.86471 -0.43792,3.04 -0.83792,3.04 -0.15549,0 -0.26256,-0.108 -0.23799,-0.24 0.0246,-0.132 0.22986,-2.112 0.45613,-4.4 z m -0.16067,31.41216 c 0.46384,0.46383 0.4831,2.29257 0.0288,2.74672 -0.27882,0.27883 -0.36912,-0.0536 -0.36912,-1.35888 0,-1.22026 0.0999,-1.62805 0.34016,-1.38784 z m 0.97434,-81.79846 c 0.17267,-0.43246 0.27152,-1.1399 0.21971,-1.57208 -0.055,-0.45864 0.0932,-0.84877 0.3559,-0.93707 0.3744,-0.12584 0.4032,0.19252 0.1713,1.89208 -0.15335,1.12385 -0.30467,3.12337 -0.33629,4.44337 -0.0825,3.44256 -0.0923,3.52 -0.44512,3.52 -0.41645,0 -0.38691,-6.29078 0.0345,-7.3463 z m 0.0214,36.91173 c 0.15955,-0.0986 0.20636,-0.44305 0.10406,-0.76543 -0.1023,-0.32238 -0.052,-0.669 0.1119,-0.77027 0.16384,-0.10127 0.39341,0.3249 0.51015,0.94706 0.22243,1.18574 -0.003,2.38321 -0.44631,2.38321 -0.37753,0 -0.62416,-1.58175 -0.2798,-1.79457 z m 0.27552,-16.61252 c 0.49312,-0.30476 0.50646,-0.26764 0.8648,2.40709 0.39379,2.93939 0.097,8.05213 -0.47844,8.24205 -0.31168,0.10287 -0.38368,-0.79141 -0.32,-3.97466 0.0452,-2.25906 -0.0301,-4.63616 -0.16764,-5.28244 -0.1626,-0.76475 -0.12724,-1.25081 0.10128,-1.39204 z m 0.23228,-36.13041 c 0.046,-0.0458 0.14797,-0.92035 0.22647,-1.94339 0.17901,-2.33214 0.80983,-3.17069 0.80983,-1.07645 0,0.79787 -0.0934,1.54404 -0.20749,1.65817 -0.11411,0.11412 -0.17657,1.3773 -0.13878,2.80707 0.0497,1.88022 -0.0358,2.56475 -0.30893,2.4737 -0.31754,-0.10585 -0.66122,-3.64039 -0.38106,-3.9191 z m 0.38618,-26.41323 c 0.60461,-0.96383 0.77344,0.13084 0.72234,4.6832 -0.0522,4.64698 -0.36836,6.88393 -0.4185,2.96086 -0.0413,-3.22829 -0.21091,-5.92723 -0.41338,-6.57707 -0.10217,-0.32794 -0.0529,-0.80809 0.10954,-1.06699 z m 0.0853,54.32117 c 0.26019,0.54008 0.25453,0.82779 -0.0218,1.104 -0.28477,0.28475 -0.36841,0.11108 -0.3519,-0.73044 0.0202,-1.0368 0.0431,-1.05954 0.37357,-0.37356 z m 0.40482,-87.08616 c 0.59184,-0.22712 0.59184,0.0404 0,1.07572 l -0.45731,0.8 -0.0112,-0.84576 c -0.006,-0.46518 0.20467,-0.92865 0.46867,-1.02996 z m -0.15773,48.27432 c 0.39075,-0.24151 0.77747,0.63641 0.4872,1.10607 -0.11398,0.18443 -0.34275,0.33533 -0.50835,0.33533 -0.40358,0 -0.38611,-1.1897 0.0211,-1.4414 z m 0.0395,94.37562 c 0.15305,-0.0946 0.2927,0.23251 0.31033,0.72689 0.22397,6.27906 0.21661,7.4652 -0.0473,7.62833 -0.16762,0.10358 -0.316,-0.14417 -0.32976,-0.55055 -0.18333,-5.40918 -0.16404,-7.66204 0.0668,-7.80467 z m 0.0202,75.41999 c 0.13373,-3.06118 0.31853,-5.64118 0.41065,-5.73333 0.50893,-0.50894 0.63696,0.86456 0.54132,5.80791 -0.0995,5.13947 -0.32813,6.54266 -0.94442,5.79521 -0.13786,-0.1672 -0.14125,-2.8086 -0.008,-5.86979 z m 0.25803,-195.39421 c 0.19318,-0.1194 0.33901,0.38036 0.368,1.26111 0.0262,0.80239 0.0624,1.62689 0.08,1.83222 0.0176,0.20533 -0.148,0.43333 -0.368,0.50667 -0.49466,0.16488 -0.57158,-3.29619 -0.08,-3.6 z m 0.06256,134.24 c 0.3432,1.57388 0.89744,2.45146 0.89744,1.42098 0,-0.70584 1.00371,-1.47362 1.5055,-1.15161 0.46416,0.29786 0.76381,1.42581 0.4872,1.83397 -0.35731,0.5272 -1.308,0.78789 -1.53481,0.42087 -0.11146,-0.18031 -0.42855,-0.24115 -0.70467,-0.13519 -0.72372,0.27772 -1.02756,-0.40359 -0.99405,-2.22902 l 0.0294,-1.6 0.31401,1.44 z m 0.70656,-149.73437 c 0.37792,-0.31366 0.4856,0.11382 0.67926,2.69709 0.29776,3.97128 0.0678,8.37402 -0.46396,8.88428 -0.33152,0.3181 -0.37021,0.0881 -0.20301,-1.207 0.22505,-1.74323 0.29529,-7.34481 0.1032,-8.23074 -0.0657,-0.30291 -0.21959,-0.65091 -0.34202,-0.77333 -0.3583,-0.3583 -0.25741,-0.96868 0.22653,-1.3703 z m -0.0578,114.28454 c 0.41616,-1.60607 0.6753,-1.21109 0.4263,0.64983 -0.12361,0.924 -0.21302,3.30921 -0.19865,5.30045 0.0182,2.52123 -0.0791,3.55548 -0.32023,3.40644 -0.40371,-0.2495 -0.32972,-7.72704 0.0926,-9.35672 z m 0.1777,-47.22632 c 0.37968,-0.23467 1.09366,6.57718 0.72796,6.94534 -0.14707,0.14806 -0.36,-0.64394 -0.47312,-1.76 -0.11315,-1.11605 -0.28419,-2.69766 -0.38009,-3.51468 -0.0959,-0.81702 -0.0396,-1.56881 0.12525,-1.67066 z m 0.1064,36.21876 c 0.27539,-0.44559 0.60454,0.54787 0.60454,1.82468 0,1.06651 -0.60326,1.92848 -0.68,0.9716 -0.12381,-1.54415 -0.0976,-2.51629 0.0755,-2.79628 z m 0.27239,79.41739 c 0.92,0 1.13373,1.26564 0.6976,4.13117 -0.2033,1.33586 -0.36867,2.96883 -0.36752,3.62883 0,0.87133 -0.1337,1.2 -0.49379,1.2 -0.41284,0 -0.46343,-0.30818 -0.30202,-1.84 0.30992,-2.9419 0.33696,-5.29187 0.0718,-6.24 -0.20938,-0.7487 -0.15059,-0.88 0.39392,-0.88 z m 0.0122,-7.2 c 0.18618,-0.11506 0.32,0.20372 0.32,0.76223 0,0.528 -0.144,1.049 -0.32,1.15777 -0.18618,0.11506 -0.32,-0.20372 -0.32,-0.76223 0,-0.528 0.144,-1.049 0.32,-1.15777 z m 0.39029,-151.72344 c 0.16074,-0.0994 0.37584,-0.0971 0.47802,0.005 0.10214,0.10215 0.25709,2.65775 0.34432,5.67911 0.11754,4.07215 0.064,5.43493 -0.20704,5.26743 -0.23853,-0.14743 -0.37222,-1.5262 -0.38467,-3.96708 -0.0106,-2.05761 -0.13245,-4.43024 -0.27101,-5.27251 -0.1449,-0.88087 -0.12774,-1.60814 0.0404,-1.71204 z m -0.097,135.38119 c 0.53671,-0.55451 0.67341,0.41758 0.59568,4.23602 -0.0631,3.09928 -0.2032,4.41171 -0.48086,4.50395 -0.29862,0.0992 -0.37475,-0.90855 -0.32,-4.23602 0.0395,-2.40141 0.13184,-4.42819 0.20518,-4.50395 z m 0.32455,-99.80408 c 0.38291,-0.23666 0.7623,0.36532 0.49888,0.79155 -0.22119,0.35787 -0.79677,0.12293 -0.79677,-0.32522 0,-0.15523 0.13405,-0.36508 0.29789,-0.46633 z m 0.0298,27.82155 c 0.18307,-0.11314 0.32464,0.37752 0.34217,1.18589 0.0163,0.75839 0.11408,2.45889 0.21696,3.77889 0.34688,4.45064 0.28029,6.24 -0.23228,6.24 -0.3858,0 -0.48026,-0.94165 -0.55226,-5.50589 -0.0526,-3.33291 0.0364,-5.58207 0.22541,-5.69889 z m 0.31235,-7.51522 c 0.176,0 0.32,0.504 0.32,1.12 0,0.616 -0.144,1.12 -0.32,1.12 -0.176,0 -0.32,-0.504 -0.32,-1.12 0,-0.616 0.144,-1.12 0.32,-1.12 z m 0.32,-77.44 c 0.14093,0.44 0.27914,1.736 0.30717,2.88 0.0282,1.144 0.16195,2.75336 0.2976,3.57637 0.15801,0.95894 0.11344,1.8209 -0.12416,2.4 -0.34583,0.84295 -0.38503,0.7532 -0.58339,-1.33637 -0.2977,-3.1356 -0.22384,-8.53984 0.10278,-7.52 z m 0.23898,-17.12 c 0.0625,-1.232 0.2199,-2.34642 0.34979,-2.47648 0.28201,-0.28237 0.41219,5.8313 0.13376,6.28181 -0.19875,0.32162 -0.70896,-0.67523 -0.63738,-1.24533 0.0221,-0.176 0.0913,-1.328 0.15383,-2.56 z m 0.08102,32.64 c 0.176,-0.10878 0.32,0.0182 0.32,0.28223 0,0.264 -0.144,0.56899 -0.32,0.67777 -0.176,0.10877 -0.32,-0.0182 -0.32,-0.28223 0,-0.264 0.144,-0.569 0.32,-0.67777 z m 0,21.76 c 0.19546,-0.1208 0.32,0.37001 0.32,1.26111 0,0.80239 -0.144,1.45889 -0.32,1.45889 -0.176,0 -0.32,-0.5675 -0.32,-1.26112 0,-0.69361 0.144,-1.35011 0.32,-1.45888 z m 0.18579,117.45992 c 0.65498,-0.65498 1.02599,-0.39798 1.76051,1.21956 0.46442,1.02277 0.60122,2.09148 0.60666,4.73969 0.007,3.59062 -0.30701,5.06083 -1.08218,5.06083 -1.01785,0 -1.40848,-0.85126 -1.11398,-2.42763 0.38099,-2.03921 0.19181,-6.75177 -0.2904,-7.23396 -0.50902,-0.50902 -0.48771,-0.75138 0.11939,-1.35849 z m 0.32928,-36.49992 c 0.42749,-1.5491 0.66461,-7.08698 0.31831,-7.43331 -0.22682,-0.22681 0.3934,-1.36669 0.74364,-1.36669 0.84541,0 1.53652,4.50493 1.19671,7.80082 -0.37293,3.61736 -0.79363,4.26833 -2.04851,3.1697 -0.61322,-0.53687 -0.62564,-0.66488 -0.21015,-2.17052 z m 0.16768,-54.8 c 0.69725,-0.68821 1.14973,-0.44509 1.69146,0.90889 0.59929,1.49777 0.90051,5.81295 0.48249,6.91239 -0.20812,0.54741 -0.53209,0.73872 -1.25094,0.73872 h -0.97008 l 0.0805,-3.12 c 0.0443,-1.716 -0.0363,-3.552 -0.1791,-4.08 -0.17693,-0.65438 -0.13056,-1.08734 0.14569,-1.36 z m 0.10503,174.96 c 0.19408,-1.32 0.44921,-2.55489 0.56694,-2.7442 0.11776,-0.18931 0.30022,-1.41331 0.40554,-2.72 0.22665,-2.81266 0.27177,-3.06872 0.74265,-4.2158 0.33171,-0.80807 0.98355,-1.2086 1.04157,-0.64 0.0134,0.132 0.0861,0.528 0.16144,0.88 0.14528,0.67874 -0.32048,5.00531 -0.82669,7.68 -0.16656,0.88 -0.38736,2.284 -0.49065,3.12 -0.16493,1.3349 -0.28052,1.52 -0.94932,1.52 -0.41881,0 -0.81612,-0.108 -0.88291,-0.24 -0.0668,-0.132 0.0374,-1.32 0.23143,-2.64 z m 0.61952,-161.12941 c 0.33689,-0.46071 0.52195,-0.48816 1.12284,-0.16656 0.44436,0.23781 0.64884,0.56923 0.53469,0.86668 -0.10166,0.2649 -0.18483,0.54186 -0.18483,0.61546 0,0.0736 -0.34461,0.13383 -0.76576,0.13383 -0.92253,0 -1.26032,-0.6926 -0.70694,-1.44941 z m -0.2562,6.80499 c 0.90007,-0.90008 1.40951,0.6378 2.04205,6.16442 0.50362,4.40024 0.48922,4.84987 -0.17104,5.33266 -0.85779,0.62723 -0.96022,0.55983 -1.41731,-0.93266 -0.4576,-1.49416 -0.83094,-10.1872 -0.4537,-10.56442 z m 0.28906,87.12442 c 0.25754,-0.71428 0.612,-1.12 0.97846,-1.12 0.45943,0 0.59226,0.30332 0.66253,1.51276 0.1056,1.81769 -0.5512,2.45719 -1.52429,1.4841 -0.32828,-0.32827 -0.57968,-0.63286 -0.55868,-0.67686 0.0211,-0.044 0.2199,-0.584 0.44198,-1.2 z m 0.28522,-46.24676 c 0.3784,-0.5175 0.52275,-0.54486 0.96,-0.18198 0.88956,0.73829 0.56544,3.37713 -0.44736,3.64198 -0.964,0.25209 -1.34528,-2.32129 -0.51264,-3.46 z m -0.22663,62.13467 c 0.12032,-0.12031 0.30032,-2.03721 0.4,-4.25977 0.14931,-3.32879 0.27725,-4.10134 0.72589,-4.38326 0.29958,-0.18823 0.65958,-0.22745 0.8,-0.0871 0.14045,0.14031 0.25536,2.50463 0.25536,5.25404 v 4.99893 l -0.8,0.20097 c -0.44,0.11054 -0.98,0.13772 -1.2,0.0604 -0.4231,-0.14868 -0.55162,-1.4138 -0.18125,-1.78418 z m 0.23376,-157.67376 c 0.0916,-0.0916 0.18755,-1.5674 0.21315,-3.27951 0.037,-2.47369 0.16493,-3.25891 0.62292,-3.82379 0.31699,-0.39097 0.67248,-0.61509 0.79001,-0.49805 0.27616,0.27504 0.82362,8.47698 0.604,9.04929 -0.19549,0.50939 -1.18704,0.8289 -1.66179,0.53548 -0.38355,-0.23704 -0.81363,-1.73808 -0.56829,-1.98342 z m 0.0808,6.95918 c 0.39162,-0.39161 1.38666,-0.21939 1.38666,0.24 0,0.24933 0.15299,0.50433 0.33997,0.56666 0.5,0.16666 -0.21079,1.86001 -0.78074,1.86001 -0.25113,0 -0.61472,-0.45349 -0.80793,-1.00775 -0.40951,-1.17472 -0.42583,-1.37105 -0.13796,-1.65892 z m 0.15031,13.86667 c 0.17766,-0.44 0.37081,-1.808 0.42924,-3.04 0.0584,-1.232 0.11994,-2.42 0.13668,-2.64 0.0166,-0.22 0.30995,-0.4 0.65158,-0.4 0.71149,0 1.16672,0.52406 0.61498,0.70796 -0.27645,0.0922 -0.27696,0.29251 -0.003,0.8063 0.20124,0.37601 0.36588,1.98407 0.36588,3.57344 0,2.64302 -0.0596,2.9217 -0.69856,3.26364 -0.59475,0.3183 -0.78496,0.26716 -1.28,-0.34419 -0.65763,-0.81215 -0.6599,-0.83234 -0.21782,-1.92715 z m 0.24614,167.40576 c 0.37987,-0.61019 1.63024,-0.15236 1.63024,0.59692 0,0.32975 0.144,0.68855 0.32,0.79732 0.39053,0.24135 0.41117,1.44063 0.035,2.03424 -0.42387,0.66896 -1.5407,0.14254 -1.79424,-0.84571 -0.42336,-1.65024 -0.46032,-2.1502 -0.19104,-2.58277 z m 0.63581,-17.00576 c 0.13206,-0.47875 0.49385,-0.83966 0.90096,-0.89877 0.59081,-0.0858 0.73001,0.14062 1.05808,1.72091 0.35929,1.73074 0.48675,5.11027 0.36896,9.78317 -0.0511,2.02591 -0.0942,2.13549 -0.92103,2.34303 -1.16054,0.29128 -1.80172,-0.55115 -1.53142,-2.0121 0.21578,-1.16643 0.24342,-9.00686 0.0342,-9.70265 -0.0717,-0.23848 -0.031,-0.79359 0.0903,-1.23359 z m 10.86518,11.26144 c 0.17527,-0.27176 0.56794,-0.34376 1.11962,-0.20531 0.62707,0.15739 0.84963,0.41636 0.84963,0.9886 0,0.88995 -0.80579,1.329 -1.56349,0.8519 -0.61347,-0.38628 -0.77955,-1.05561 -0.40576,-1.63519 z M 309.2728,374.82179 c 0.24625,-0.22694 0.44773,-0.27143 0.44773,-0.0989 0,0.3323 -0.60871,0.81335 -0.78901,0.62354 -0.0585,-0.0616 0.095,-0.29772 0.34128,-0.52466 z"
       style="fill:#000000;stroke-width:0.32" />
  </g>
</svg>
