<?xml version="1.0" encoding="UTF-8" standalone="no"?>
<svg
   xmlns:dc="http://purl.org/dc/elements/1.1/"
   xmlns:cc="http://creativecommons.org/ns#"
   xmlns:rdf="http://www.w3.org/1999/02/22-rdf-syntax-ns#"
   xmlns:svg="http://www.w3.org/2000/svg"
   xmlns="http://www.w3.org/2000/svg"
   xmlns:sodipodi="http://sodipodi.sourceforge.net/DTD/sodipodi-0.dtd"
   xmlns:inkscape="http://www.inkscape.org/namespaces/inkscape"
   version="1.1"
   id="svg833"
   width="492.13177"
   height="28.732893"
   viewBox="0 0 492.13178 28.732893"
   sodipodi:docname="pencil.svg"
   inkscape:version="1.0beta2 (2b71d25, 2019-12-03)">
  <metadata
     id="metadata839">
    <rdf:RDF>
      <cc:Work
         rdf:about="">
        <dc:format>image/svg+xml</dc:format>
        <dc:type
           rdf:resource="http://purl.org/dc/dcmitype/StillImage" />
        <dc:title />
      </cc:Work>
    </rdf:RDF>
  </metadata>
  <defs
     id="defs837" />
  <sodipodi:namedview
     pagecolor="#ffffff"
     bordercolor="#666666"
     inkscape:document-rotation="0"
     borderopacity="1"
     objecttolerance="10"
     gridtolerance="10"
     guidetolerance="10"
     inkscape:pageopacity="0"
     inkscape:pageshadow="2"
     inkscape:window-width="1217"
     inkscape:window-height="701"
     id="namedview835"
     showgrid="false"
     inkscape:zoom="1.2496027"
     inkscape:cx="177.21783"
     inkscape:cy="-48.695082"
     inkscape:window-x="0"
     inkscape:window-y="23"
     inkscape:window-maximized="0"
     inkscape:current-layer="g841" />
  <g
     transform="translate(228.27996,-236.35473)"
     inkscape:groupmode="layer"
     inkscape:label="Image"
     id="g841">
    <path
       style="fill:#000000;stroke-width:0.32"
       d="m -228.1241,249.98507 c 0.26509,-1.85296 1.47408,-4.14417 3.08672,-5.84979 0.58243,-0.616 1.06022,-1.3623 1.06173,-1.65844 0.004,-0.7284 0.6304,-0.86521 4.00278,-0.87388 1.584,-0.004 5.04,-0.23507 7.68,-0.51334 2.64,-0.27827 6.744,-0.63969 9.12,-0.80316 2.376,-0.16347 4.824,-0.37662 5.44,-0.47368 2.59949,-0.40956 3.91245,-0.49699 8.20394,-0.54634 3.81779,-0.0439 4.65654,0.0349 5.37337,0.50455 1.13725,0.74516 5.4911,0.65693 8.61146,-0.1745 2.22054,-0.59167 5.19001,-1.02987 9.49123,-1.4006 1.144,-0.0986 2.75318,-0.31074 3.57597,-0.47142 0.82278,-0.16067 2.62278,-0.37256 4,-0.47086 1.37721,-0.0983 4.01603,-0.34743 5.86403,-0.55362 3.47229,-0.38742 17.01213,-0.47296 20.96,-0.13242 5.44262,0.46947 30.34803,0.99191 39.680001,0.83236 10.8838,-0.18608 27.21984,-0.13348 33.76,0.1087 3.432,0.12709 8.472,0.30421 11.2,0.39362 2.728,0.0894 6.328,0.30608 8,0.4815 8.43354,0.88486 19.63007,1.18452 40.9599996,1.09625 51.6746704,-0.21386 59.6966504,-0.15555 66.7199904,0.48496 2.112,0.19261 5.928,0.48143 8.48,0.64182 2.552,0.16038 7.06414,0.44976 10.02698,0.64306 2.96283,0.19329 5.63796,0.27178 5.94473,0.17442 0.30677,-0.0974 2.56263,-0.0324 5.01303,0.14429 2.450389,0.17673 5.391259,0.38916 6.535259,0.47207 2.7971,0.20272 13.85756,0.59784 19.2,0.6859 6.88072,0.11342 27.50883,0.0784 29.44,-0.05 1.79667,-0.11943 6.97022,-0.12966 19.2,-0.038 3.784,0.0284 9.256,-0.0532 12.16,-0.1813 2.904,-0.12808 8.592,-0.31972 12.64,-0.42586 6.75458,-0.17712 7.39612,-0.2433 7.79903,-0.80456 0.24147,-0.33637 0.74547,-0.61342 1.12,-0.61567 0.65649,-0.004 4.97721,0.86948 5.96097,1.20501 0.264,0.09 0.82728,0.20933 1.25172,0.26508 1.14022,0.14978 3.71165,0.78386 6.42828,1.58513 3.0757,0.90718 6.37734,1.617 10.4,2.2359 1.76,0.27079 3.416,0.5858 3.68,0.70003 0.264,0.11423 0.696,0.24184 0.96,0.28357 0.264,0.0417 1.2,0.23411 2.08,0.42748 0.88,0.19338 2.392,0.48077 3.36,0.63866 1.66755,0.272 2.56952,0.47057 6.72,1.47946 0.968,0.2353 3.632,0.72712 5.92,1.09293 2.288,0.36582 4.94002,0.80591 5.89337,0.97798 0.95335,0.17208 2.35229,0.31287 3.10874,0.31287 1.69868,0 2.20854,0.68062 1.6394,2.18845 -0.38899,1.03054 -0.80445,1.21806 -5.11233,2.3075 -0.93238,0.2358 -1.57953,0.59857 -1.69029,0.94753 -0.12428,0.39158 -0.9389,0.76131 -2.64918,1.2024 -1.35834,0.35032 -3.47771,0.94911 -4.70971,1.33065 -5.0731,1.5711 -17.68916,3.31813 -26.72,3.7001 -2.66351,0.11265 -4.85535,0.40376 -6.56,0.87125 -2.86309,0.7852 -7.25973,0.9186 -15.36,0.46603 -2.464,-0.13767 -6.208,-0.30808 -8.32,-0.37869 -4.79566,-0.16034 -10.1924,-0.39004 -14.56,-0.61973 -1.848,-0.0972 -4.872,-0.2535 -6.72,-0.34736 -2.44301,-0.12409 -21.52135,-0.19377 -26.08,-0.0952 -0.30219,0.006 -7.95,-0.18546 -21.28,-0.5342 -3.256,-0.0852 -9.58746,-0.23868 -14.06991,-0.34111 -4.48246,-0.10243 -8.27539,-0.26377 -8.42874,-0.35855 -0.15335,-0.0948 -9.487289,-0.16085 -20.742069,-0.14684 -13.07437,0.0163 -20.39433,-0.086 -20.27238,-0.28335 0.29824,-0.48256 -0.15907,-0.36238 -0.70733,0.18588 -0.43695,0.43695 -2.29335,0.47674 -15.89714,0.34072 -14.8976,-0.14895 -20.46483,-0.2802 -29.08444,-0.68568 -2.24511,-0.10561 -14.34111035,-0.25099 -26.88,-0.32306 -25.05029,-0.14398 -49.28048,-0.44997 -51.27798,-0.64755 -2.36407,-0.23384 -60.430081,-0.25685 -64.800001,-0.0257 -7.28538,0.38541 -21.18,0.49938 -23.04,0.18898 -1.52522,-0.25452 -7.43821,-0.34112 -18.08,-0.26477 -1.584,0.0114 -5.36631,-0.0695 -8.40512,-0.1798 -5.16272,-0.18731 -5.66061,-0.15395 -7.59101,0.50854 -1.99545,0.68482 -2.08771,0.6893 -2.70438,0.13121 -0.4409,-0.399 -0.86448,-0.50634 -1.36896,-0.3469 -0.7969,0.25187 -6.11808,0.43655 -18.97053,0.65841 -5.77901,0.0998 -9.11264,0.29913 -10.91533,0.6528 -3.39523,0.66612 -4.41497,0.55223 -4.53869,-0.50692 -0.0643,-0.55072 -0.46784,-1.00555 -1.2776,-1.44 -1.87606,-1.00659 -2.66745,-2.85913 -3.07363,-7.19503 -0.0577,-0.616 0.003,-1.87159 0.13402,-2.79021 z m 2.33555,5.49768 c 0.48822,1.95967 1.14614,2.81278 2.03776,2.64234 0.41424,-0.0792 0.83606,-0.01 0.93731,0.15395 0.29495,0.47722 1.36839,-0.70084 2.08106,-2.28387 0.52147,-1.1583 0.65469,-2.10115 0.64489,-4.5639 -0.0134,-3.34466 -0.31753,-4.31018 -1.79219,-5.68798 -0.79187,-0.73986 -0.90345,-0.76065 -1.69581,-0.31592 -0.46646,0.26183 -1.25916,1.26284 -1.7615,2.22447 -0.79715,1.52592 -0.90451,2.05317 -0.84346,4.1434 0.0385,1.31724 0.21482,2.97662 0.39194,3.68751 z m 6.39507,-10.61219 c 1.45539,1.3871 1.95312,4.19446 1.48359,8.3681 -0.21943,1.95067 -0.51181,2.90643 -1.25456,4.10126 -1.16912,1.88073 -1.22436,2.32014 -0.24842,1.9764 0.396,-0.13949 3.96,-0.27984 7.92,-0.3119 9.24234,-0.0748 21.2383,-0.88363 19.92,-1.34307 -0.9295,-0.32395 0.16,-1.68607 1.34861,-1.68607 0.91561,0 1.02873,-0.28582 1.77286,-4.48 0.56835,-3.20349 0.70573,-8.99947 0.22471,-9.48048 -0.20231,-0.2023 -4.77261,-0.20294 -6.30618,-8.7e-4 -2.25341,0.2969 -2.77213,0.53868 -2.69219,1.25482 0.0434,0.3886 0.0909,0.89504 0.10553,1.12543 0.0414,0.65064 0.66666,0.10057 0.66666,-0.58652 0,-0.33542 0.29232,-0.7663 0.6496,-0.9575 0.52656,-0.28181 0.82058,-0.20819 1.55235,0.38874 0.81869,0.66779 0.89587,0.90489 0.82858,2.54519 -0.0408,0.99483 -0.1657,1.95688 -0.27757,2.13788 -0.11187,0.18101 -0.0571,0.41955 0.12182,0.53009 0.17888,0.11055 0.32522,0.4805 0.32522,0.82212 0,0.8925 -1.76666,0.86558 -2.24822,-0.0343 -0.24282,-0.45368 -0.54173,-0.59477 -0.97127,-0.45844 -0.3912,0.12417 -0.62051,0.0471 -0.62051,-0.20862 0,-0.79871 -0.67014,0.25445 -1.12624,1.76995 -0.39389,1.30885 -0.39168,1.52406 0.0173,1.68099 0.52544,0.20162 0.6464,1.07148 0.14896,1.07148 -0.176,0 -0.32,-0.1525 -0.32,-0.33889 0,-0.82587 -0.76739,0.28303 -1.9153,2.76764 -1.20204,2.60183 -1.60316,2.98669 -2.51225,2.41043 -0.33955,-0.21523 -0.20067,-0.75768 0.67462,-2.6351 0.60621,-1.30024 1.29667,-2.94008 1.53431,-3.64408 0.23766,-0.704 0.54614,-1.43884 0.6855,-1.63297 0.13939,-0.19413 0.3455,-1.65 0.45802,-3.23526 0.18604,-2.62089 0.14585,-2.94101 -0.44292,-3.52977 -0.42006,-0.42007 -0.92048,-0.5953 -1.42473,-0.49891 -0.72208,0.13803 -0.7777,0.28874 -0.78365,2.12275 -0.006,1.85588 -0.81504,4.75022 -1.93821,6.93416 -0.2263,0.44 -0.41235,0.999 -0.41341,1.24223 -0.005,1.08727 -2.21363,3.87777 -3.06937,3.87777 -0.93968,0 -0.79562,-1.26196 0.33097,-2.89974 0.62503,-0.90864 1.13642,-1.93182 1.13642,-2.27372 0,-0.34191 0.31904,-1.29775 0.70896,-2.1241 0.85056,-1.80254 1.10986,-5.56248 0.42291,-6.1326 -0.3159,-0.26217 -1.85465,-0.2506 -5.82064,0.0438 -2.96518,0.22009 -6.29133,0.40606 -7.39142,0.41327 -1.10013,0.007 -2.00013,0.056 -2,0.1084 9e-5,0.0524 0.33293,0.4124 0.73958,0.8 z m 22.0697,10.16111 c 0.39101,-0.78298 0.85491,-1.46038 1.03091,-1.50533 0.41555,-0.10613 1.82134,2.09082 1.58381,2.47516 -0.0999,0.16158 -0.47456,0.29378 -0.83264,0.29378 -0.38752,0 -0.72061,0.26588 -0.82285,0.65679 -0.11693,0.44719 -0.38717,0.6259 -0.84675,0.56 -0.92208,-0.13222 -0.95229,-0.79863 -0.11248,-2.4804 z m 5.73718,-10.01639 c 0.31555,-0.308 0.70234,-0.56 0.85949,-0.56 0.37251,0 0.67424,0.80842 0.67424,1.80644 0,0.69969 -0.1207,0.78218 -1.0153,0.69383 -1.19296,-0.11782 -1.43964,-1.0411 -0.51843,-1.94027 z m 0.28883,4.27597 c 1.01933,-0.94966 1.64436,-0.52725 1.46877,0.99267 -0.19651,1.70129 -0.66374,2.13165 -1.49632,1.3782 -0.83206,-0.75303 -0.82246,-1.57894 0.0275,-2.37087 z m 8.12899,8.8847 c 2.28576,0.0664 8.18791,0.17546 13.11591,0.2424 9.59171,0.13031 16.77523,0.30931 23.2,0.57812 6.35737,0.26599 7.83219,0.26962 13.6,0.0335 2.992,-0.1225 7.528,-0.27676 10.08,-0.3428 6.7215,-0.17393 39.825281,-0.1506 46.400001,0.0327 12.55849,0.35013 32.97138,0.60532 73.5999996,0.92013 8.888,0.0689 17.1680004,0.20486 18.4000004,0.3022 3.66311,0.28942 19.10514,0.62163 30.13324,0.64826 5.66129,0.0137 10.3864,0.11796 10.50024,0.23176 0.11384,0.11379 1.02587,0.0322 2.02675,-0.18126 1.34184,-0.28621 7.40848,-0.3703 23.09976,-0.3202 11.704,0.0374 22.719999,0.15299 24.479999,0.25694 6.84409,0.40423 25.49364,0.80188 46.56,0.99277 14.88097,0.13484 26.76766,0.39162 30.08,0.64979 0.968,0.0754 4.424,0.2293 7.68,0.3419 3.256,0.11259 6.784,0.26504 7.84,0.33877 2.80837,0.19607 10.74474,0.19631 10.94073,3.2e-4 0.0924,-0.0924 -0.63032,-0.40016 -1.60611,-0.68383 -2.32983,-0.6773 -2.43755,-1.23715 -0.56497,-2.93624 1.06966,-0.97056 1.33955,-1.37754 0.99035,-1.49342 -0.264,-0.0876 -1.12676,-0.35125 -1.91725,-0.58587 -1.93576,-0.57455 -2.01336,-1.26582 -0.31779,-2.83116 1.59008,-1.46795 1.53581,-2.06435 -0.19151,-2.10471 -1.93739,-0.0453 -3.5509,-0.42158 -3.9693,-0.92572 -0.56694,-0.68312 0.77488,-1.8696 2.89556,-2.56036 1.81223,-0.59029 2.95702,-1.34923 2.6891,-1.78274 -0.0858,-0.13891 -0.94567,-0.23408 -1.91071,-0.21149 -1.96903,0.0461 -2.75536,-0.41249 -2.20455,-1.2857 0.18654,-0.29572 0.8313,-0.66303 1.4328,-0.81624 3.72855,-0.9497 -0.15053,-1.02157 -20.98635,-0.38884 -4.67693,0.14203 -26.55627,0.37839 -46.56,0.50299 -3.256,0.0203 -7.576,-0.0495 -9.6,-0.15504 -2.024,-0.10555 -7.28,-0.26232 -11.68,-0.34837 -4.4,-0.0861 -10.16,-0.29652 -12.8,-0.46771 -2.639999,-0.17119 -7.607999,-0.38914 -11.039999,-0.48432 -3.432,-0.0952 -6.744,-0.23215 -7.36,-0.30437 -0.616,-0.0722 -2.92,-0.22034 -5.12,-0.32916 -2.2,-0.10882 -6.664,-0.41662 -9.92,-0.68399 -6.08024,-0.4993 -30.34481,-0.69584 -67.0399904,-0.54302 -8.8,0.0367 -17.1519996,-6e-5 -18.5599996,-0.0816 -1.408,-0.0815 -5.008,-0.21631 -8,-0.29953 -4.63766,-0.12901 -10.54786,-0.4991 -14.88,-0.93179 -0.616,-0.0615 -4.072,-0.20063 -7.68,-0.30911 -3.608,-0.10848 -9.44,-0.30183 -12.96,-0.42966 -3.52,-0.12783 -12.088,-0.17093 -19.04,-0.0958 -16.55111,0.17892 -15.77632,0.1815 -28.160001,-0.0938 -5.896,-0.13106 -14.248,-0.31396 -18.56,-0.40645 -4.312,-0.0925 -8.56,-0.23699 -9.44,-0.32111 -3.23434,-0.30917 -10.29459,-0.3852 -12.16,-0.13094 -1.056,0.14393 -3.072,0.34449 -4.48,0.44568 -1.408,0.10119 -4.576,0.40688 -7.04,0.67932 -2.464,0.27243 -6.424,0.69497 -8.8,0.93896 -2.376,0.244 -5.472,0.76182 -6.88,1.15072 -1.99923,0.55219 -3.37917,0.70248 -6.29971,0.6861 l -3.73971,-0.021 -0.2208,1.00529 c -0.12144,0.55291 -0.20269,1.79123 -0.18052,2.75181 0.0636,2.75984 -1.30723,10.40262 -1.93555,10.79093 -0.16451,0.10169 -0.25334,0.42346 -0.19731,0.71506 0.0871,0.4535 0.70275,0.54761 4.25769,0.65084 z m 392.0759,-7.57083 c 0.59887,0.49185 0.48809,1.33061 -0.39511,2.99169 -0.43731,0.82247 -0.72366,1.61101 -0.63633,1.75231 0.0873,0.14131 0.56967,0.34716 1.07187,0.45746 0.9227,0.20266 2.27957,1.24287 2.27957,1.74757 0,0.29575 -1.05494,1.35044 -2.06792,2.06743 -0.87055,0.61617 -0.31466,1.20598 1.64302,1.74327 0.8497,0.2332 1.83758,0.56352 2.1953,0.73404 0.65071,0.31018 1.85602,0.19703 4.02438,-0.3778 0.63513,-0.16837 1.49913,-0.30461 1.92,-0.30275 1.79219,0.008 10.44612,-0.34593 11.32522,-0.46309 0.528,-0.0704 2.688,-0.30359 4.8,-0.51827 4.42675,-0.44997 5.34999,-0.70698 5.07876,-1.41379 -0.11417,-0.29752 0.23671,-0.97582 0.88611,-1.71295 2.34102,-2.65726 2.54655,-2.97184 2.3488,-3.59492 -0.10824,-0.34102 -0.33109,-0.62004 -0.49523,-0.62004 -0.42454,0 -0.36951,-1.17489 0.0894,-1.90979 0.21333,-0.34161 0.31921,-0.68978 0.23528,-0.77371 -0.0839,-0.0839 -1.59048,-0.46143 -3.34788,-0.83888 -1.75741,-0.37746 -3.77129,-0.81939 -4.47529,-0.98207 -2.48365,-0.57392 -6.73455,-1.24445 -7.92434,-1.24997 -0.66239,-0.003 -1.45439,-0.15119 -1.76,-0.32915 -0.57539,-0.33506 -5.38798,-1.57388 -6.79566,-1.74929 -0.44,-0.0548 -2.2367,-0.47487 -3.99266,-0.93342 -3.8744,-1.01175 -4.86444,-1.02593 -6.0125,-0.0861 l -0.88517,0.72463 1.30334,0.57503 c 1.01275,0.44683 1.28145,0.72682 1.20516,1.25585 -0.054,0.37446 -0.42492,0.84308 -0.82429,1.0414 -0.39937,0.19831 -1.19137,0.77792 -1.76,1.28801 l -1.03388,0.92744 0.8,0.11066 c 0.44,0.0609 0.98,0.25849 1.2,0.43918 z"
       id="path845"
       inkscape:connector-curvature="0" />
  </g>
</svg>
