<?xml version="1.0" encoding="UTF-8" standalone="no"?>
<svg
   xmlnsdc="http://purl.org/dc/elements/1.1/"
   xmlnscc="http://creativecommons.org/ns#"
   xmlnsrdf="http://www.w3.org/1999/02/22-rdf-syntax-ns#"
   xmlnssvg="http://www.w3.org/2000/svg"
   xmlns="http://www.w3.org/2000/svg"
   xmlnssodipodi="http://sodipodi.sourceforge.net/DTD/sodipodi-0.dtd"
   xmlnsinkscape="http://www.inkscape.org/namespaces/inkscape"
   inkscapeversion="1.0beta2 (2b71d25, 2019-12-03)"
   sodipodidocname="phone.svg"
   viewbox="0 0 83.199997 100.48"
   height="100.48"
   width="83.199997"
   id="svg833"
   version="1.1"
   fill="current"
   stroke="current">
  <metadata
     id="metadata839">
    <rdfRDF>
      <ccWork
         rdfabout="">
        <dcFormat>image/svg+xml</dcFormat>
        <dcType
           rdfresource="http://purl.org/dc/dcmitype/StillImage" />
        <dcTitle></dcTitle>
      </ccWork>
    </rdfRDF>
  </metadata>
  <defs
     id="defs837" />
  <sodipodiNamedview
     inkscapecurrent-layer="g841"
     inkscapewindow-maximized="0"
     inkscapewindow-y="23"
     inkscapewindow-x="0"
     inkscapecy="21.805279"
     inkscapecx="18.596627"
     inkscapezoom="6.259952"
     showgrid="false"
     id="namedview835"
     inkscapewindow-height="480"
     inkscapewindow-width="740"
     inkscapepageshadow="2"
     inkscapepageopacity="0"
     guidetolerance="10"
     gridtolerance="10"
     objecttolerance="10"
     borderopacity="1"
     inkscapedocument-rotation="0"
     bordercolor="#666666"
     pagecolor="#ffffff" />
  <g
     id="g841"
     inkscapelabel="Image"
     inkscapegroupmode="layer">
    <path
       inkscapeconnector-curvature="0"
       id="path845"
       d="m 22.719999,98.888029 c -1.848,-0.110944 -3.936,-0.364259 -4.64,-0.562919 -0.704,-0.198659 -2.113949,-0.526736 -3.133221,-0.729062 -1.505242,-0.29879 -2.297555,-0.725312 -4.219599,-2.271517 C 9.425671,94.27752 7.98945,92.957181 7.5355764,92.390438 7.0817028,91.823696 6.5685226,91.186077 6.3951758,90.973507 6.2218289,90.760934 6.0748971,90.400934 6.0686606,90.173507 6.0624238,89.946077 5.8640308,89.411098 5.6277873,88.984666 L 5.1982533,88.209331 4.9775624,88.904666 C 4.3769762,90.796944 3.5711378,88.595814 3.5919887,85.12 3.5999071,83.8 3.382637,81.928 3.1091664,80.96 2.8356955,79.992 2.5317974,78.076528 2.4338372,76.703398 2.335877,75.330269 2.1006802,73.630995 1.9111778,72.927238 1.4040632,71.043958 1.3493577,65.172912 1.8334617,64.586662 2.1180111,64.242074 2.1409119,63.810275 1.916194,63.02673 1.3694011,61.120173 1.2001015,55.893053 1.160024,39.68 1.1240938,25.144702 1.1693373,23.681854 1.7093129,21.92 2.8217187,18.290396 3.2870693,17.117861 3.9953157,16.16 4.3857208,15.632 4.9538133,14.717247 5.2577429,14.127215 6.3213319,12.062425 10.620462,8.1521795 13.446549,6.6791405 14.12121,6.3274877 15.943734,5.8475094 17.496602,5.6125222 c 1.552868,-0.2349872 3.687397,-0.6478486 4.743397,-0.91747 1.056,-0.2696215 2.496,-0.575216 3.2,-0.6790992 0.704,-0.1038832 1.722848,-0.3328372 2.264107,-0.508786 0.541258,-0.1759491 2.197258,-0.5252859 3.679999,-0.7763042 1.482742,-0.2510184 2.983894,-0.5176536 3.335894,-0.5925228 1.920252,-0.4084314 4.121376,-0.6539073 6.4,-0.7137471 1.407999,-0.036976 4.442156,-0.1652899 6.742569,-0.285142 3.861238,-0.20117157 14.055311,0.4448126 14.859135,0.9416026 0.149223,0.092225 1.053524,0.2342426 2.009555,0.3155949 1.627898,0.1385236 4.37226,0.7537504 5.828739,1.3066774 2.053136,0.7794368 4.573168,3.35755 6.29193,6.4369442 0.41144,0.737149 1.218035,2.12611 1.792435,3.08658 0.720614,1.204959 1.431795,3.278287 2.294157,6.688224 l 1.249795,4.941915 -0.148915,9.251507 C 81.957495,39.196822 81.921613,45.592 81.959664,48.32 c 0.157482,11.290413 0.05129,15.425722 -0.403504,15.713866 -0.364355,0.230838 -0.364864,0.277142 -0.0032,0.281235 0.354023,0.004 0.399293,0.974499 0.248029,5.316937 -0.289706,8.316784 -0.580656,12.025495 -1.048736,13.368196 -0.237795,0.682128 -0.432358,1.717747 -0.432358,2.301379 0,1.463792 -2.573856,4.379257 -6.425293,7.278073 -1.062237,0.799504 -1.832246,1.229658 -4.934707,2.756692 -3.363433,1.655484 -4.691373,1.977196 -12.799999,3.100988 -2.990308,0.414432 -6.743117,0.545488 -16.96,0.592288 -7.216,0.03305 -14.631999,-0.03069 -16.479999,-0.141625 z M 52.799998,94.871206 C 63.280971,93.636374 65.596692,93.17305 66.910708,92.047955 67.249841,91.757581 67.693582,91.52 67.896798,91.52 c 0.549283,0 4.850588,-2.744618 6.034483,-3.850541 0.565628,-0.528377 1.622483,-1.35904 2.348566,-1.84592 1.275734,-0.855449 1.343337,-0.989645 2.009369,-3.988569 C 79.242973,77.540515 79.416176,72.249942 79.454522,46.24 79.484282,26.05512 79.43817,23.967741 78.917415,21.92 78.066564,18.574317 76.892586,15.322442 76.194928,14.378806 75.85433,13.918123 74.960029,12.644112 74.207597,11.547671 73.455162,10.451229 72.398637,9.3283667 71.859767,9.0524202 71.320893,8.7764736 70.807997,8.4476592 70.719997,8.3217216 70.484234,7.9843165 68.602554,7.4607309 66.239998,7.0751414 65.095998,6.8884307 62.720334,6.503383 60.960743,6.21948 59.201153,5.9355766 55.632296,5.6495482 53.02995,5.5838608 50.427605,5.5181734 48.137019,5.3646835 47.939761,5.2427718 c -0.218355,-0.1349516 -0.269334,-0.077142 -0.13032,0.1477856 0.165588,0.2679258 -0.502291,0.36953 -2.430556,0.3697607 -7.307066,8.745e-4 -11.127504,0.4610336 -19.778886,2.3822998 -2.024,0.4494823 -4.328,0.8966743 -5.12,0.9937597 C 15.298592,9.7715299 11.561684,11.715865 8.5081194,15.365417 7.2661079,16.849842 4.9508145,20.8 5.3227652,20.8 c 0.1075796,0 0.052825,0.18 -0.1216764,0.4 -1.0510768,1.325127 -1.2010889,3.853038 -1.2010889,20.24 0,17.667981 0.093598,19.745018 1.3338748,29.6 0.2768761,2.2 0.5380608,5.44 0.5804099,7.2 0.066868,2.778966 0.2526077,3.729072 1.4116847,7.22113 1.2374154,3.728076 1.4563699,4.139641 3.0043577,5.647244 2.9452,2.868362 4.629438,3.382592 13.669672,4.173623 4.546255,0.397801 24.332255,0.115584 28.799999,-0.410791 z m 4.16,-10.236985 C 55.017374,84.15689 51.357777,82.821552 49.801141,82.022054 48.259224,81.230115 42.00924,76.401958 39.628751,74.163811 38.456565,73.061715 35.720565,70.509562 33.548751,68.492355 28.838838,64.117738 23.665962,58.946346 18.327819,53.275795 14.384156,49.086557 13.395737,47.572954 10.912219,41.92 9.6406067,39.025571 9.5182323,35.734842 10.543317,32 11.239191,29.464621 13.629641,25.815819 16.541312,22.844613 19.709151,19.612003 20.404017,19.2 22.688156,19.2 c 1.05274,0 1.990664,0.123928 2.084276,0.275396 0.09361,0.151468 1.064507,0.526325 2.157544,0.833015 2.328584,0.653368 3.562252,1.386304 6.433728,3.822353 1.159978,0.98408 2.229152,1.789236 2.375943,1.789236 0.14679,0 0.66142,0.365828 1.143622,0.81295 1.319757,1.223749 1.235718,2.999008 -0.198998,4.203753 -0.73752,0.619303 -1.457741,1.808763 -2.290791,3.783297 -0.668288,1.584 -1.480208,3.26223 -1.804275,3.729398 -0.822412,1.185588 -0.753982,1.539988 0.610794,3.16329 1.520294,1.808278 7.737132,7.942176 9.826835,9.695734 0.872761,0.732368 3.079612,2.771578 4.904118,4.531578 1.824502,1.76 3.414637,3.23607 3.533629,3.280157 0.118995,0.04408 0.564646,-0.576384 0.990336,-1.378823 0.425692,-0.802438 1.106995,-1.774508 1.514006,-2.160156 0.407011,-0.385648 0.742505,-0.825997 0.745545,-0.978551 0.0032,-0.152553 0.840327,-1.043456 1.860637,-1.979782 1.020307,-0.936327 2.05264,-2.071511 2.294074,-2.522627 0.334086,-0.62425 0.689632,-0.820218 1.488118,-0.820218 0.856275,0 1.449341,0.384253 3.22593,2.090106 1.197222,1.149558 3.148982,2.769558 4.337238,3.6 2.83342,1.980204 3.746652,2.640985 4.850864,3.509894 0.503238,0.396 1.249948,0.72 1.659356,0.72 1.048599,0 2.083053,1.194144 1.847495,2.132688 -0.112042,0.446416 -0.04475,0.747312 0.167126,0.747312 0.634202,0 0.358432,1.983046 -0.600749,4.32 -0.144477,0.352 -0.650329,2.08 -1.124118,3.84 -1.060675,3.940118 -1.887283,5.696509 -3.440442,7.310317 -0.66,0.685769 -1.2,1.361257 -1.2,1.501085 0,0.859449 -3.542777,4.213564 -5.492559,5.200064 -1.970525,0.996995 -4.592221,1.128553 -7.62744,0.382755 z m 7.085459,-4.668736 c 2.711177,-1.3568 6.376624,-7.030711 7.774236,-12.034093 0.453005,-1.621734 0.997716,-3.33065 1.210468,-3.79759 0.345993,-0.759373 0.303596,-0.914381 -0.401671,-1.468564 -0.43367,-0.340768 -1.004493,-0.793977 -1.268493,-1.007136 -0.264,-0.213155 -1.678489,-1.230739 -3.143308,-2.261296 C 66.75187,58.36625 64.72483,56.755974 63.712158,55.818419 62.1457,54.368157 61.802961,54.178637 61.415463,54.548451 c -3.514028,3.353658 -6.695465,7.000205 -6.695465,7.674311 0,0.237369 -0.322115,0.421593 -0.72,0.411785 -0.396,-0.0098 -0.959184,0.08796 -1.25152,0.217159 -0.386995,0.171036 -1.257101,-0.40032 -3.2,-2.101277 -1.467664,-1.284903 -2.81248,-2.50025 -2.98848,-2.700778 -0.176,-0.200525 -2.336,-2.141917 -4.8,-4.314208 -5.730274,-5.051878 -12.248699,-11.668585 -12.84525,-13.038931 -0.274611,-0.630816 -0.367181,-1.346864 -0.227532,-1.76 0.129489,-0.383082 0.1991,-0.946662 0.15469,-1.252403 -0.04441,-0.305741 0.270172,-1.025741 0.699069,-1.6 C 29.969873,35.50985 30.502098,34.464 30.723698,33.76 c 0.2216,-0.704 0.700916,-1.856 1.065145,-2.56 0.364231,-0.704 0.673847,-1.352 0.688036,-1.44 0.01418,-0.088 0.194077,-0.462167 0.39975,-0.831482 C 33.201132,28.345832 33.115,28.127844 32.225292,27.280069 30.991656,26.104579 28.204281,24.32 27.601891,24.32 c -0.238044,0 -1.008023,-0.277914 -1.711065,-0.617587 -2.315471,-1.118714 -3.003139,-1.129816 -4.519751,-0.07297 -2.12405,1.480137 -5.365604,5.272624 -6.985739,8.17303 -1.23596,2.212646 -1.481285,2.93878 -1.548392,4.583062 -0.04419,1.082694 0.143097,2.704221 0.420048,3.636816 0.544382,1.83313 2.783693,6.377949 3.773057,7.657648 2.157272,2.790336 12.247079,13.194525 16.770817,17.293366 1.254477,1.136647 3.702477,3.387677 5.44,5.002288 1.737523,1.614612 3.879132,3.481152 4.759132,4.147869 0.88,0.666717 2.032,1.614397 2.56,2.105959 1.622464,1.510489 5.966768,3.451353 8.06823,3.604563 1.018474,0.07425 2.78777,0.338867 3.93177,0.588032 2.348819,0.511571 3.790681,0.391558 5.485459,-0.456592 z"
       style="fill:#current;stroke-width:0.32" />
  </g>
</svg>
